<?xml version="1.0" standalone="no"?>
<!DOCTYPE svg PUBLIC "-//W3C//DTD SVG 1.1//EN" "http://www.w3.org/Graphics/SVG/1.1/DTD/svg11.dtd" >
<svg xmlns="http://www.w3.org/2000/svg" xmlns:xlink="http://www.w3.org/1999/xlink" version="1.1">
<metadata>
Created by FontForge 20190801 at Tue Nov 17 17:19:06 2015
 By Unknown
Copyright \(c\) 2013 by Fontsmith Ltd. All rights reserved. This font may not be altered in any way without prior permission of Fontsmith Ltd.
</metadata>
<defs>
<font id="TelefonicaCap-Regular" horiz-adv-x="780" >
  <font-face 
    font-family="Telefonica Cap"
    font-weight="400"
    font-style="italic"
    font-variant="small-caps"
    font-stretch="normal"
    units-per-em="1000"
    panose-1="0 0 5 0 0 0 0 0 0 0"
    ascent="850"
    descent="-150"
    x-height="752"
    cap-height="752"
    bbox="-467 -322 1481 1323"
    underline-thickness="107"
    underline-position="-100"
    slope="-10"
    stemh="124"
    stemv="178"
    unicode-range="U+000D-F8FF"
  />
<missing-glyph horiz-adv-x="652" 
d="M91 0v660h470v-660h-470zM327 371l158 241h-320zM139 90l158 242l-158 238v-480zM515 90v480l-159 -240zM165 49h320l-160 240z" />
    <glyph glyph-name=".notdef" horiz-adv-x="652" 
d="M91 0v660h470v-660h-470zM327 371l158 241h-320zM139 90l158 242l-158 238v-480zM515 90v480l-159 -240zM165 49h320l-160 240z" />
    <glyph glyph-name="A" unicode="A" horiz-adv-x="747" 
d="M-51 0l384 752h189l140 -752h-176l-30 189h-244l-91 -189h-172zM273 313h163l-37 262h-2z" />
    <glyph glyph-name="Aacute" unicode="&#xc1;" horiz-adv-x="747" 
d="M358 818l-47 80l250 154l65 -119zM-51 0l384 752h189l140 -752h-176l-30 189h-244l-91 -189h-172zM273 313h163l-37 262h-2z" />
    <glyph glyph-name="Abreve" unicode="&#x102;" horiz-adv-x="747" 
d="M445 820c-108 0 -154 61 -154 138c0 12 1 24 4 38l93 3c0 -44 9 -84 64 -84c48 0 74 30 90 84l95 -3c-8 -103 -74 -176 -192 -176zM-51 0l384 752h189l140 -752h-176l-30 189h-244l-91 -189h-172zM273 313h163l-37 262h-2z" />
    <glyph glyph-name="uni01CD" unicode="&#x1cd;" horiz-adv-x="747" 
d="M388 818l-111 167l59 48l114 -108l157 108l49 -58l-163 -157h-105zM-51 0l384 752h189l140 -752h-176l-30 189h-244l-91 -189h-172zM273 313h163l-37 262h-2z" />
    <glyph glyph-name="Acircumflex" unicode="&#xc2;" horiz-adv-x="747" 
d="M299 805l-49 59l162 156h106l111 -166l-59 -49l-115 108zM-51 0l384 752h189l140 -752h-176l-30 189h-244l-91 -189h-172zM273 313h163l-37 262h-2z" />
    <glyph glyph-name="Adieresis" unicode="&#xc4;" horiz-adv-x="747" 
d="M327 836c-50 0 -69 21 -69 61c0 7 1 17 4 27c8 40 37 65 88 65c49 0 68 -21 68 -61c0 -7 -1 -17 -4 -27c-8 -40 -37 -65 -87 -65zM555 836c-49 0 -68 21 -68 61c0 7 1 17 3 27c9 40 38 65 88 65s69 -21 69 -61c0 -7 -2 -17 -4 -27c-8 -40 -37 -65 -88 -65zM-51 0l384 752
h189l140 -752h-176l-30 189h-244l-91 -189h-172zM273 313h163l-37 262h-2z" />
    <glyph glyph-name="Agrave" unicode="&#xc0;" horiz-adv-x="747" 
d="M464 818l-217 125l77 107l196 -157zM-51 0l384 752h189l140 -752h-176l-30 189h-244l-91 -189h-172zM273 313h163l-37 262h-2z" />
    <glyph glyph-name="Amacron" unicode="&#x100;" horiz-adv-x="747" 
d="M291 853l20 107h325l-20 -107h-325zM-51 0l384 752h189l140 -752h-176l-30 189h-244l-91 -189h-172zM273 313h163l-37 262h-2z" />
    <glyph glyph-name="Aogonek" unicode="&#x104;" horiz-adv-x="747" 
d="M481 -274c-69 0 -131 25 -131 106c0 70 47 128 134 183l-28 174h-244l-91 -189h-172l384 752h189l140 -752h-7c-100 -6 -191 -72 -191 -138c0 -34 25 -46 59 -46c21 0 45 5 64 10l-16 -85c-26 -9 -57 -15 -90 -15zM273 313h163l-37 262h-2z" />
    <glyph glyph-name="Aring" unicode="&#xc5;" horiz-adv-x="747" 
d="M440 813c-83 0 -124 44 -124 107c0 35 8 72 30 101c27 35 72 51 130 51c83 0 124 -44 124 -107c0 -35 -8 -72 -30 -101c-27 -35 -72 -51 -130 -51zM448 884c25 0 45 7 57 25c8 12 13 30 13 47c0 28 -14 45 -50 45c-25 0 -45 -7 -57 -25c-8 -12 -13 -30 -13 -47
c0 -28 14 -45 50 -45zM-51 0l384 752h189l140 -752h-176l-30 189h-244l-91 -189h-172zM273 313h163l-37 262h-2z" />
    <glyph glyph-name="Aringacute" unicode="&#x1fa;" horiz-adv-x="747" 
d="M461 1089l-47 80l250 154l65 -119zM434 808c-83 0 -124 44 -124 107c0 35 8 72 30 101c27 35 72 51 130 51c83 0 124 -44 124 -107c0 -35 -8 -72 -30 -101c-27 -35 -72 -51 -130 -51zM442 879c25 0 45 7 57 25c8 12 13 30 13 47c0 28 -14 45 -50 45c-25 0 -45 -7 -57 -25
c-8 -12 -13 -30 -13 -47c0 -28 14 -45 50 -45zM-51 0l384 752h189l140 -752h-176l-30 189h-244l-91 -189h-172zM273 313h163l-37 262h-2z" />
    <glyph glyph-name="Atilde" unicode="&#xc3;" horiz-adv-x="747" 
d="M328 838l-76 12c15 92 68 151 142 151c67 0 104 -48 150 -48c28 0 47 18 60 52l76 -12c-16 -92 -70 -150 -143 -150c-65 0 -103 47 -150 47c-28 0 -46 -18 -59 -52zM-51 0l384 752h189l140 -752h-176l-30 189h-244l-91 -189h-172zM273 313h163l-37 262h-2z" />
    <glyph glyph-name="AE" unicode="&#xc6;" horiz-adv-x="1142" 
d="M-54 0l596 752h608l-35 -124h-323l-32 -182h258l-23 -129h-258l-34 -193h341l-20 -124h-514l36 206h-254l-156 -206h-190zM389 328h178l53 300h-2z" />
    <glyph glyph-name="AEacute" unicode="&#x1fc;" horiz-adv-x="1142" 
d="M777 818l-47 80l250 154l65 -119zM-54 0l596 752h608l-35 -124h-323l-32 -182h258l-23 -129h-258l-34 -193h341l-20 -124h-514l36 206h-254l-156 -206h-190zM389 328h178l53 300h-2z" />
    <glyph glyph-name="B" unicode="B" horiz-adv-x="703" 
d="M23 0l132 752h235c96 0 163 -15 202 -51c28 -26 42 -62 42 -111c0 -73 -40 -144 -137 -182c86 -25 133 -81 133 -162c0 -74 -23 -131 -68 -172c-57 -51 -150 -74 -290 -74h-249zM274 453h56c46 0 82 10 105 32c20 18 31 45 31 77c0 21 -5 36 -15 46c-15 15 -40 20 -80 20
h-67zM215 124h75c58 0 105 10 133 36c22 20 34 48 34 87c0 28 -8 47 -22 60c-20 18 -54 22 -95 22h-88z" />
    <glyph glyph-name="C" unicode="C" horiz-adv-x="662" 
d="M354 -15c-205 0 -313 94 -313 298c0 126 41 278 132 375c77 82 175 109 278 109c80 0 148 -16 212 -37l-43 -122c-46 13 -99 26 -155 26c-66 0 -130 -18 -179 -95c-41 -64 -67 -160 -67 -247c0 -45 7 -92 32 -124c29 -38 75 -50 140 -50c46 0 105 6 151 15l-4 -125
c-48 -14 -121 -23 -184 -23z" />
    <glyph glyph-name="Cacute" unicode="&#x106;" horiz-adv-x="662" 
d="M387 818l-47 80l250 154l65 -119zM354 -15c-205 0 -313 94 -313 298c0 126 41 278 132 375c77 82 175 109 278 109c80 0 148 -16 212 -37l-43 -122c-46 13 -99 26 -155 26c-66 0 -130 -18 -179 -95c-41 -64 -67 -160 -67 -247c0 -45 7 -92 32 -124c29 -38 75 -50 140 -50
c46 0 105 6 151 15l-4 -125c-48 -14 -121 -23 -184 -23z" />
    <glyph glyph-name="Ccaron" unicode="&#x10c;" horiz-adv-x="662" 
d="M417 818l-111 167l59 48l114 -108l157 108l49 -58l-163 -157h-105zM354 -15c-205 0 -313 94 -313 298c0 126 41 278 132 375c77 82 175 109 278 109c80 0 148 -16 212 -37l-43 -122c-46 13 -99 26 -155 26c-66 0 -130 -18 -179 -95c-41 -64 -67 -160 -67 -247
c0 -45 7 -92 32 -124c29 -38 75 -50 140 -50c46 0 105 6 151 15l-4 -125c-48 -14 -121 -23 -184 -23z" />
    <glyph glyph-name="Ccedilla" unicode="&#xc7;" horiz-adv-x="662" 
d="M465 634c-66 0 -130 -18 -179 -95c-41 -64 -67 -160 -67 -247c0 -45 7 -92 32 -124c29 -38 75 -50 140 -50c46 0 105 6 151 15l-4 -125c-48 -14 -121 -23 -184 -23h-6c-2 -5 -3 -10 -3 -14c0 -12 12 -19 26 -26c56 -29 84 -45 84 -99c0 -39 -15 -69 -41 -90
c-28 -23 -63 -33 -107 -33c-35 0 -74 6 -102 15l15 80c24 -6 49 -8 66 -8c34 0 60 8 60 28s-25 27 -46 35c-47 17 -58 30 -58 57c0 2 0 6 1 12c2 13 11 33 23 50c-148 25 -225 119 -225 291c0 126 41 278 132 375c77 82 175 109 278 109c80 0 148 -16 212 -37l-43 -122
c-46 13 -99 26 -155 26z" />
    <glyph glyph-name="Ccircumflex" unicode="&#x108;" horiz-adv-x="662" 
d="M328 805l-49 59l162 156h106l111 -166l-59 -49l-115 108zM354 -15c-205 0 -313 94 -313 298c0 126 41 278 132 375c77 82 175 109 278 109c80 0 148 -16 212 -37l-43 -122c-46 13 -99 26 -155 26c-66 0 -130 -18 -179 -95c-41 -64 -67 -160 -67 -247c0 -45 7 -92 32 -124
c29 -38 75 -50 140 -50c46 0 105 6 151 15l-4 -125c-48 -14 -121 -23 -184 -23z" />
    <glyph glyph-name="Cdotaccent" unicode="&#x10a;" horiz-adv-x="662" 
d="M480 831c-51 0 -71 22 -71 64c0 10 1 20 4 32c9 37 32 65 94 65c51 0 71 -22 71 -64c0 -10 -1 -20 -4 -32c-9 -37 -32 -65 -94 -65zM354 -15c-205 0 -313 94 -313 298c0 126 41 278 132 375c77 82 175 109 278 109c80 0 148 -16 212 -37l-43 -122c-46 13 -99 26 -155 26
c-66 0 -130 -18 -179 -95c-41 -64 -67 -160 -67 -247c0 -45 7 -92 32 -124c29 -38 75 -50 140 -50c46 0 105 6 151 15l-4 -125c-48 -14 -121 -23 -184 -23z" />
    <glyph glyph-name="D" unicode="D" horiz-adv-x="765" 
d="M23 0l132 752h223c112 0 217 -19 280 -85c49 -52 66 -123 66 -209c0 -133 -41 -261 -124 -346c-83 -84 -192 -112 -344 -112h-233zM217 125h57c93 0 155 23 203 93c40 57 69 144 69 237c0 58 -11 98 -36 127c-26 30 -68 45 -136 45h-70z" />
    <glyph glyph-name="Eth" unicode="&#xd0;" 
d="M37 0l55 317h-79l20 112l81 13l55 310h223c112 0 217 -19 280 -85c49 -52 66 -123 66 -209c0 -133 -41 -261 -124 -346c-83 -84 -192 -112 -344 -112h-233zM231 125h57c93 0 155 23 203 93c40 57 69 144 69 237c0 58 -11 98 -36 127c-26 30 -68 45 -136 45h-70l-31 -181
h153l-23 -129h-153z" />
    <glyph glyph-name="Dcaron" unicode="&#x10e;" horiz-adv-x="765" 
d="M359 818l-111 167l59 48l114 -108l157 108l49 -58l-163 -157h-105zM23 0l132 752h223c112 0 217 -19 280 -85c49 -52 66 -123 66 -209c0 -133 -41 -261 -124 -346c-83 -84 -192 -112 -344 -112h-233zM217 125h57c93 0 155 23 203 93c40 57 69 144 69 237
c0 58 -11 98 -36 127c-26 30 -68 45 -136 45h-70z" />
    <glyph glyph-name="Dcroat" unicode="&#x110;" 
d="M37 0l55 317h-79l20 112l81 13l55 310h223c112 0 217 -19 280 -85c49 -52 66 -123 66 -209c0 -133 -41 -261 -124 -346c-83 -84 -192 -112 -344 -112h-233zM231 125h57c93 0 155 23 203 93c40 57 69 144 69 237c0 58 -11 98 -36 127c-26 30 -68 45 -136 45h-70l-31 -181
h153l-23 -129h-153z" />
    <glyph glyph-name="E" unicode="E" horiz-adv-x="655" 
d="M23 0l132 752h508l-35 -124h-324l-31 -182h258l-23 -129h-258l-33 -193h340l-20 -124h-514z" />
    <glyph glyph-name="Eacute" unicode="&#xc9;" horiz-adv-x="655" 
d="M332 818l-47 80l250 154l65 -119zM23 0l132 752h508l-35 -124h-324l-31 -182h258l-23 -129h-258l-33 -193h340l-20 -124h-514z" />
    <glyph glyph-name="Ebreve" unicode="&#x114;" horiz-adv-x="655" 
d="M419 820c-108 0 -154 61 -154 138c0 12 1 24 4 38l93 3c0 -44 9 -84 64 -84c48 0 74 30 90 84l95 -3c-8 -103 -74 -176 -192 -176zM23 0l132 752h508l-35 -124h-324l-31 -182h258l-23 -129h-258l-33 -193h340l-20 -124h-514z" />
    <glyph glyph-name="Ecaron" unicode="&#x11a;" horiz-adv-x="655" 
d="M362 818l-111 167l59 48l114 -108l157 108l49 -58l-163 -157h-105zM23 0l132 752h508l-35 -124h-324l-31 -182h258l-23 -129h-258l-33 -193h340l-20 -124h-514z" />
    <glyph glyph-name="Ecircumflex" unicode="&#xca;" horiz-adv-x="655" 
d="M273 805l-49 59l162 156h106l111 -166l-59 -49l-115 108zM23 0l132 752h508l-35 -124h-324l-31 -182h258l-23 -129h-258l-33 -193h340l-20 -124h-514z" />
    <glyph glyph-name="Edieresis" unicode="&#xcb;" horiz-adv-x="655" 
d="M301 836c-50 0 -69 21 -69 61c0 7 1 17 4 27c8 40 37 65 88 65c49 0 68 -21 68 -61c0 -7 -1 -17 -4 -27c-8 -40 -37 -65 -87 -65zM529 836c-49 0 -68 21 -68 61c0 7 1 17 3 27c9 40 38 65 88 65s69 -21 69 -61c0 -7 -2 -17 -4 -27c-8 -40 -37 -65 -88 -65zM23 0l132 752
h508l-35 -124h-324l-31 -182h258l-23 -129h-258l-33 -193h340l-20 -124h-514z" />
    <glyph glyph-name="Edotaccent" unicode="&#x116;" horiz-adv-x="655" 
d="M425 831c-51 0 -71 22 -71 64c0 10 1 20 4 32c9 37 32 65 94 65c51 0 71 -22 71 -64c0 -10 -1 -20 -4 -32c-9 -37 -32 -65 -94 -65zM23 0l132 752h508l-35 -124h-324l-31 -182h258l-23 -129h-258l-33 -193h340l-20 -124h-514z" />
    <glyph glyph-name="Egrave" unicode="&#xc8;" horiz-adv-x="655" 
d="M465 818l-217 125l77 107l196 -157zM23 0l132 752h508l-35 -124h-324l-31 -182h258l-23 -129h-258l-33 -193h340l-20 -124h-514z" />
    <glyph glyph-name="Emacron" unicode="&#x112;" horiz-adv-x="655" 
d="M265 853l20 107h325l-20 -107h-325zM23 0l132 752h508l-35 -124h-324l-31 -182h258l-23 -129h-258l-33 -193h340l-20 -124h-514z" />
    <glyph glyph-name="Eogonek" unicode="&#x118;" horiz-adv-x="655" 
d="M389 -274c-80 0 -131 34 -131 106c0 71 51 135 111 168h-346l132 752h508l-35 -124h-324l-31 -182h258l-23 -129h-258l-33 -193h340l-20 -124h-7c-108 0 -158 -85 -158 -136c0 -35 23 -48 59 -48c21 0 45 5 64 10l-16 -85c-26 -9 -57 -15 -90 -15z" />
    <glyph glyph-name="F" unicode="F" horiz-adv-x="630" 
d="M23 0l132 752h496l-35 -124h-312l-31 -182h246l-23 -129h-246l-55 -317h-172z" />
    <glyph glyph-name="G" unicode="G" horiz-adv-x="762" 
d="M364 -15c-115 0 -192 25 -242 71c-54 50 -81 129 -81 228c0 157 67 336 182 417c72 51 158 66 241 66c82 0 168 -16 241 -37l-45 -125c-55 15 -121 29 -184 29c-60 0 -121 -13 -168 -65c-61 -67 -89 -189 -89 -278c0 -55 11 -100 38 -130c25 -28 66 -43 126 -43
c16 0 56 1 80 4l28 161h-105l22 124h276l-68 -384c-71 -22 -160 -38 -252 -38z" />
    <glyph glyph-name="Gbreve" unicode="&#x11e;" horiz-adv-x="762" 
d="M473 820c-108 0 -154 61 -154 138c0 12 1 24 4 38l93 3c0 -44 9 -84 64 -84c48 0 74 30 90 84l95 -3c-8 -103 -74 -176 -192 -176zM364 -15c-115 0 -192 25 -242 71c-54 50 -81 129 -81 228c0 157 67 336 182 417c72 51 158 66 241 66c82 0 168 -16 241 -37l-45 -125
c-55 15 -121 29 -184 29c-60 0 -121 -13 -168 -65c-61 -67 -89 -189 -89 -278c0 -55 11 -100 38 -130c25 -28 66 -43 126 -43c16 0 56 1 80 4l28 161h-105l22 124h276l-68 -384c-71 -22 -160 -38 -252 -38z" />
    <glyph glyph-name="Gcircumflex" unicode="&#x11c;" horiz-adv-x="762" 
d="M327 805l-49 59l162 156h106l111 -166l-59 -49l-115 108zM364 -15c-115 0 -192 25 -242 71c-54 50 -81 129 -81 228c0 157 67 336 182 417c72 51 158 66 241 66c82 0 168 -16 241 -37l-45 -125c-55 15 -121 29 -184 29c-60 0 -121 -13 -168 -65
c-61 -67 -89 -189 -89 -278c0 -55 11 -100 38 -130c25 -28 66 -43 126 -43c16 0 56 1 80 4l28 161h-105l22 124h276l-68 -384c-71 -22 -160 -38 -252 -38z" />
    <glyph glyph-name="Gcommaaccent" unicode="&#x122;" horiz-adv-x="762" 
d="M364 -15c-115 0 -192 25 -242 71c-54 50 -81 129 -81 228c0 157 67 336 182 417c72 51 158 66 241 66c82 0 168 -16 241 -37l-45 -125c-55 15 -121 29 -184 29c-60 0 -121 -13 -168 -65c-61 -67 -89 -189 -89 -278c0 -55 11 -100 38 -130c25 -28 66 -43 126 -43
c16 0 56 1 80 4l28 161h-105l22 124h276l-68 -384c-71 -22 -160 -38 -252 -38zM241 -322l41 120c-33 5 -51 20 -51 56c0 17 5 46 19 65c16 22 41 31 74 31c28 0 44 -8 54 -18c11 -11 16 -28 16 -51c0 -55 -39 -143 -77 -203h-76z" />
    <glyph glyph-name="Gdotaccent" unicode="&#x120;" horiz-adv-x="762" 
d="M479 831c-51 0 -71 22 -71 64c0 10 1 20 4 32c9 37 32 65 94 65c51 0 71 -22 71 -64c0 -10 -1 -20 -4 -32c-9 -37 -32 -65 -94 -65zM364 -15c-115 0 -192 25 -242 71c-54 50 -81 129 -81 228c0 157 67 336 182 417c72 51 158 66 241 66c82 0 168 -16 241 -37l-45 -125
c-55 15 -121 29 -184 29c-60 0 -121 -13 -168 -65c-61 -67 -89 -189 -89 -278c0 -55 11 -100 38 -130c25 -28 66 -43 126 -43c16 0 56 1 80 4l28 161h-105l22 124h276l-68 -384c-71 -22 -160 -38 -252 -38z" />
    <glyph glyph-name="H" unicode="H" horiz-adv-x="786" 
d="M23 0l132 752h171l-53 -306h265l54 306h171l-132 -752h-171l55 317h-265l-55 -317h-172z" />
    <glyph glyph-name="Hbar" unicode="&#x126;" horiz-adv-x="850" 
d="M57 0l95 549h-89l20 108h88l18 95h171l-18 -95h266l17 95h172l-18 -95h92l-20 -108h-90l-96 -549h-172l55 317h-265l-55 -317h-171zM306 446h265l18 103h-265z" />
    <glyph glyph-name="Hcircumflex" unicode="&#x124;" horiz-adv-x="786" 
d="M325 805l-49 59l162 156h106l111 -166l-59 -49l-115 108zM23 0l132 752h171l-53 -306h265l54 306h171l-132 -752h-171l55 317h-265l-55 -317h-172z" />
    <glyph glyph-name="I" unicode="I" horiz-adv-x="363" 
d="M30 0l131 752h172l-132 -752h-171z" />
    <glyph glyph-name="IJ" unicode="&#x132;" horiz-adv-x="839" 
d="M30 0l131 752h172l-132 -752h-171zM473 -15c-43 0 -93 6 -128 15l8 128c23 -6 55 -11 86 -11c35 0 62 7 81 25s29 45 37 91l91 519h171l-95 -546c-13 -76 -37 -127 -74 -162c-41 -39 -98 -59 -177 -59z" />
    <glyph glyph-name="Iacute" unicode="&#xcd;" horiz-adv-x="363" 
d="M170 818l-47 80l250 154l65 -119zM30 0l131 752h172l-132 -752h-171z" />
    <glyph glyph-name="Ibreve" unicode="&#x12c;" horiz-adv-x="363" 
d="M257 820c-108 0 -154 61 -154 138c0 12 1 24 4 38l93 3c0 -44 9 -84 64 -84c48 0 74 30 90 84l95 -3c-8 -103 -74 -176 -192 -176zM30 0l131 752h172l-132 -752h-171z" />
    <glyph glyph-name="Icircumflex" unicode="&#xce;" horiz-adv-x="363" 
d="M124 805l-49 59l162 156h106l111 -166l-59 -49l-115 108zM30 0l131 752h172l-132 -752h-171z" />
    <glyph glyph-name="Idieresis" unicode="&#xcf;" horiz-adv-x="363" 
d="M139 836c-50 0 -69 21 -69 61c0 7 1 17 4 27c8 40 37 65 88 65c49 0 68 -21 68 -61c0 -7 -1 -17 -4 -27c-8 -40 -37 -65 -87 -65zM367 836c-49 0 -68 21 -68 61c0 7 1 17 3 27c9 40 38 65 88 65s69 -21 69 -61c0 -7 -2 -17 -4 -27c-8 -40 -37 -65 -88 -65zM30 0l131 752
h172l-132 -752h-171z" />
    <glyph glyph-name="Idotaccent" unicode="&#x130;" horiz-adv-x="363" 
d="M263 831c-51 0 -71 22 -71 64c0 10 1 20 4 32c9 37 32 65 94 65c51 0 71 -22 71 -64c0 -10 -1 -20 -4 -32c-9 -37 -32 -65 -94 -65zM30 0l131 752h172l-132 -752h-171z" />
    <glyph glyph-name="Igrave" unicode="&#xcc;" horiz-adv-x="363" 
d="M361 818l-217 125l77 107l196 -157zM30 0l131 752h172l-132 -752h-171z" />
    <glyph glyph-name="Imacron" unicode="&#x12a;" horiz-adv-x="363" 
d="M103 853l20 107h325l-20 -107h-325zM30 0l131 752h172l-132 -752h-171z" />
    <glyph glyph-name="Iogonek" unicode="&#x12e;" horiz-adv-x="370" 
d="M50 -274c-81 0 -131 34 -131 106c0 74 56 136 119 175l130 745h172l-132 -752c-122 0 -175 -79 -175 -135c0 -36 21 -49 57 -49c22 0 47 5 65 10l-15 -85c-26 -9 -57 -15 -90 -15z" />
    <glyph glyph-name="Itilde" unicode="&#x128;" horiz-adv-x="363" 
d="M140 838l-76 12c15 92 68 151 142 151c67 0 104 -48 150 -48c28 0 47 18 60 52l76 -12c-16 -92 -70 -150 -143 -150c-65 0 -103 47 -150 47c-28 0 -46 -18 -59 -52zM30 0l131 752h172l-132 -752h-171z" />
    <glyph glyph-name="J" unicode="J" horiz-adv-x="476" 
d="M110 -15c-43 0 -93 6 -128 15l8 128c23 -6 55 -11 86 -11c35 0 62 7 81 25s29 45 37 91l91 519h171l-95 -546c-13 -76 -37 -127 -74 -162c-41 -39 -98 -59 -177 -59z" />
    <glyph glyph-name="Jcircumflex" unicode="&#x134;" horiz-adv-x="476" 
d="M237 805l-49 59l162 156h106l111 -166l-59 -49l-115 108zM110 -15c-43 0 -93 6 -128 15l8 128c23 -6 55 -11 86 -11c35 0 62 7 81 25s29 45 37 91l91 519h171l-95 -546c-13 -76 -37 -127 -74 -162c-41 -39 -98 -59 -177 -59z" />
    <glyph glyph-name="K" unicode="K" horiz-adv-x="737" 
d="M23 0l132 752h171l-53 -305l284 305h201l-306 -304l193 -448h-189l-132 321l-89 -89l-40 -232h-172z" />
    <glyph glyph-name="Kcommaaccent" unicode="&#x136;" horiz-adv-x="737" 
d="M23 0l132 752h171l-53 -305l284 305h201l-306 -304l193 -448h-189l-132 321l-89 -89l-40 -232h-172zM203 -322l41 120c-33 5 -51 20 -51 56c0 17 5 46 19 65c16 22 41 31 74 31c28 0 44 -8 54 -18c11 -11 16 -28 16 -51c0 -55 -39 -143 -77 -203h-76z" />
    <glyph glyph-name="L" unicode="L" horiz-adv-x="634" 
d="M23 0l132 752h171l-111 -628h334l-21 -124h-505z" />
    <glyph glyph-name="Lacute" unicode="&#x139;" horiz-adv-x="634" 
d="M191 818l-47 80l250 154l65 -119zM23 0l132 752h171l-111 -628h334l-21 -124h-505z" />
    <glyph glyph-name="Lcaron" unicode="&#x13d;" horiz-adv-x="651" 
d="M442 495l41 120c-33 5 -51 20 -51 56c0 17 5 46 19 65c16 22 41 31 74 31c28 0 44 -8 54 -18c11 -11 16 -28 16 -51c0 -55 -39 -143 -77 -203h-76zM23 0l132 752h171l-111 -628h334l-21 -124h-505z" />
    <glyph glyph-name="Lcommaaccent" unicode="&#x13b;" horiz-adv-x="634" 
d="M23 0l132 752h171l-111 -628h334l-21 -124h-505zM176 -322l41 120c-33 5 -51 20 -51 56c0 17 5 46 19 65c16 22 41 31 74 31c28 0 44 -8 54 -18c11 -11 16 -28 16 -51c0 -55 -39 -143 -77 -203h-76z" />
    <glyph glyph-name="Ldot" unicode="&#x13f;" horiz-adv-x="652" 
d="M23 0l132 752h171l-111 -628h334l-21 -124h-505zM458 316c-51 0 -71 22 -71 64c0 10 1 20 4 32c9 37 32 65 94 65c51 0 71 -22 71 -64c0 -10 -1 -20 -4 -32c-9 -37 -32 -65 -94 -65z" />
    <glyph glyph-name="Lslash" unicode="&#x141;" horiz-adv-x="700" 
d="M67 0l35 201l-60 -35l-58 99l144 85l71 402h172l-54 -301l131 77l57 -99l-214 -126l-32 -179h334l-21 -124h-505z" />
    <glyph glyph-name="M" unicode="M" horiz-adv-x="928" 
d="M23 0l132 752h132l161 -415l316 415h141l-132 -752h-157l76 439l-203 -267h-132l-110 281l-80 -453h-144z" />
    <glyph glyph-name="N" unicode="N" horiz-adv-x="811" 
d="M23 0l132 752h124l272 -492l87 492h151l-133 -752h-135l-265 468l-82 -468h-151z" />
    <glyph glyph-name="Nacute" unicode="&#x143;" horiz-adv-x="811" 
d="M393 818l-47 80l250 154l65 -119zM23 0l132 752h124l272 -492l87 492h151l-133 -752h-135l-265 468l-82 -468h-151z" />
    <glyph glyph-name="Ncaron" unicode="&#x147;" horiz-adv-x="811" 
d="M423 818l-111 167l59 48l114 -108l157 108l49 -58l-163 -157h-105zM23 0l132 752h124l272 -492l87 492h151l-133 -752h-135l-265 468l-82 -468h-151z" />
    <glyph glyph-name="Ncommaaccent" unicode="&#x145;" horiz-adv-x="811" 
d="M23 0l132 752h124l272 -492l87 492h151l-133 -752h-135l-265 468l-82 -468h-151zM243 -322l41 120c-33 5 -51 20 -51 56c0 17 5 46 19 65c16 22 41 31 74 31c28 0 44 -8 54 -18c11 -11 16 -28 16 -51c0 -55 -39 -143 -77 -203h-76z" />
    <glyph glyph-name="Eng" unicode="&#x14a;" horiz-adv-x="812" 
d="M395 -263c-41 0 -88 6 -120 13l7 118c27 -7 65 -10 94 -10s64 2 87 21c20 16 28 37 35 78l11 64l-253 447l-82 -468h-151l132 752h124l272 -492l87 492h151l-145 -821c-13 -74 -32 -111 -66 -141c-38 -34 -103 -53 -183 -53z" />
    <glyph glyph-name="Ntilde" unicode="&#xd1;" horiz-adv-x="811" 
d="M363 838l-76 12c15 92 68 151 142 151c67 0 104 -48 150 -48c28 0 47 18 60 52l76 -12c-16 -92 -70 -150 -143 -150c-65 0 -103 47 -150 47c-28 0 -46 -18 -59 -52zM23 0l132 752h124l272 -492l87 492h151l-133 -752h-135l-265 468l-82 -468h-151z" />
    <glyph glyph-name="O" unicode="O" horiz-adv-x="784" 
d="M334 -15c-174 0 -293 87 -293 297c0 105 30 221 80 306c66 112 171 179 326 179c176 0 295 -86 295 -297c0 -102 -28 -220 -79 -307c-68 -117 -177 -178 -329 -178zM344 119c78 0 128 43 164 111c36 69 57 163 57 241c0 121 -50 161 -126 161c-77 0 -127 -42 -163 -111
s-57 -162 -57 -241c0 -120 49 -161 125 -161z" />
    <glyph glyph-name="Oacute" unicode="&#xd3;" horiz-adv-x="784" 
d="M380 818l-47 80l250 154l65 -119zM334 -15c-174 0 -293 87 -293 297c0 105 30 221 80 306c66 112 171 179 326 179c176 0 295 -86 295 -297c0 -102 -28 -220 -79 -307c-68 -117 -177 -178 -329 -178zM344 119c78 0 128 43 164 111c36 69 57 163 57 241
c0 121 -50 161 -126 161c-77 0 -127 -42 -163 -111s-57 -162 -57 -241c0 -120 49 -161 125 -161z" />
    <glyph glyph-name="Obreve" unicode="&#x14e;" horiz-adv-x="784" 
d="M479 820c-108 0 -154 61 -154 138c0 12 1 24 4 38l93 3c0 -44 9 -84 64 -84c48 0 74 30 90 84l95 -3c-8 -103 -74 -176 -192 -176zM334 -15c-174 0 -293 87 -293 297c0 105 30 221 80 306c66 112 171 179 326 179c176 0 295 -86 295 -297c0 -102 -28 -220 -79 -307
c-68 -117 -177 -178 -329 -178zM344 119c78 0 128 43 164 111c36 69 57 163 57 241c0 121 -50 161 -126 161c-77 0 -127 -42 -163 -111s-57 -162 -57 -241c0 -120 49 -161 125 -161z" />
    <glyph glyph-name="Ocircumflex" unicode="&#xd4;" horiz-adv-x="784" 
d="M321 805l-49 59l162 156h106l111 -166l-59 -49l-115 108zM334 -15c-174 0 -293 87 -293 297c0 105 30 221 80 306c66 112 171 179 326 179c176 0 295 -86 295 -297c0 -102 -28 -220 -79 -307c-68 -117 -177 -178 -329 -178zM344 119c78 0 128 43 164 111
c36 69 57 163 57 241c0 121 -50 161 -126 161c-77 0 -127 -42 -163 -111s-57 -162 -57 -241c0 -120 49 -161 125 -161z" />
    <glyph glyph-name="Odieresis" unicode="&#xd6;" horiz-adv-x="784" 
d="M349 836c-50 0 -69 21 -69 61c0 7 1 17 4 27c8 40 37 65 88 65c49 0 68 -21 68 -61c0 -7 -1 -17 -4 -27c-8 -40 -37 -65 -87 -65zM577 836c-49 0 -68 21 -68 61c0 7 1 17 3 27c9 40 38 65 88 65s69 -21 69 -61c0 -7 -2 -17 -4 -27c-8 -40 -37 -65 -88 -65zM334 -15
c-174 0 -293 87 -293 297c0 105 30 221 80 306c66 112 171 179 326 179c176 0 295 -86 295 -297c0 -102 -28 -220 -79 -307c-68 -117 -177 -178 -329 -178zM344 119c78 0 128 43 164 111c36 69 57 163 57 241c0 121 -50 161 -126 161c-77 0 -127 -42 -163 -111
s-57 -162 -57 -241c0 -120 49 -161 125 -161z" />
    <glyph glyph-name="Ograve" unicode="&#xd2;" horiz-adv-x="784" 
d="M521 818l-217 125l77 107l196 -157zM334 -15c-174 0 -293 87 -293 297c0 105 30 221 80 306c66 112 171 179 326 179c176 0 295 -86 295 -297c0 -102 -28 -220 -79 -307c-68 -117 -177 -178 -329 -178zM344 119c78 0 128 43 164 111c36 69 57 163 57 241
c0 121 -50 161 -126 161c-77 0 -127 -42 -163 -111s-57 -162 -57 -241c0 -120 49 -161 125 -161z" />
    <glyph glyph-name="Ohungarumlaut" unicode="&#x150;" horiz-adv-x="784" 
d="M336 818l-56 62l175 172l74 -85zM548 818l-54 65l197 169l72 -92zM334 -15c-174 0 -293 87 -293 297c0 105 30 221 80 306c66 112 171 179 326 179c176 0 295 -86 295 -297c0 -102 -28 -220 -79 -307c-68 -117 -177 -178 -329 -178zM344 119c78 0 128 43 164 111
c36 69 57 163 57 241c0 121 -50 161 -126 161c-77 0 -127 -42 -163 -111s-57 -162 -57 -241c0 -120 49 -161 125 -161z" />
    <glyph glyph-name="Omacron" unicode="&#x14c;" horiz-adv-x="784" 
d="M313 853l20 107h325l-20 -107h-325zM334 -15c-174 0 -293 87 -293 297c0 105 30 221 80 306c66 112 171 179 326 179c176 0 295 -86 295 -297c0 -102 -28 -220 -79 -307c-68 -117 -177 -178 -329 -178zM344 119c78 0 128 43 164 111c36 69 57 163 57 241
c0 121 -50 161 -126 161c-77 0 -127 -42 -163 -111s-57 -162 -57 -241c0 -120 49 -161 125 -161z" />
    <glyph glyph-name="Oslash" unicode="&#xd8;" horiz-adv-x="784" 
d="M94 -81l61 111c-78 49 -114 136 -114 254c0 103 30 219 80 304c68 115 174 179 325 179c40 0 74 -4 104 -12l41 78h96l-60 -110c71 -43 115 -127 115 -251c0 -107 -28 -221 -79 -309c-67 -116 -173 -178 -333 -178c-34 0 -67 4 -98 12l-42 -78h-96zM237 179l243 448
c-15 4 -28 5 -42 5c-76 0 -126 -42 -162 -111c-35 -66 -57 -160 -57 -240c0 -48 7 -76 18 -102zM344 119c77 0 128 43 164 111c36 69 57 162 57 239c0 45 -7 82 -20 105l-242 -450c13 -4 29 -5 41 -5z" />
    <glyph glyph-name="Oslashacute" unicode="&#x1fe;" horiz-adv-x="784" 
d="M430 818l-47 80l250 154l65 -119zM94 -81l61 111c-78 49 -114 136 -114 254c0 103 30 219 80 304c68 115 174 179 325 179c40 0 74 -4 104 -12l41 78h96l-60 -110c71 -43 115 -127 115 -251c0 -107 -28 -221 -79 -309c-67 -116 -173 -178 -333 -178c-34 0 -67 4 -98 12
l-42 -78h-96zM237 179l243 448c-15 4 -28 5 -42 5c-76 0 -126 -42 -162 -111c-35 -66 -57 -160 -57 -240c0 -48 7 -76 18 -102zM344 119c77 0 128 43 164 111c36 69 57 162 57 239c0 45 -7 82 -20 105l-242 -450c13 -4 29 -5 41 -5z" />
    <glyph glyph-name="Otilde" unicode="&#xd5;" horiz-adv-x="784" 
d="M350 838l-76 12c15 92 68 151 142 151c67 0 104 -48 150 -48c28 0 47 18 60 52l76 -12c-16 -92 -70 -150 -143 -150c-65 0 -103 47 -150 47c-28 0 -46 -18 -59 -52zM334 -15c-174 0 -293 87 -293 297c0 105 30 221 80 306c66 112 171 179 326 179c176 0 295 -86 295 -297
c0 -102 -28 -220 -79 -307c-68 -117 -177 -178 -329 -178zM344 119c78 0 128 43 164 111c36 69 57 163 57 241c0 121 -50 161 -126 161c-77 0 -127 -42 -163 -111s-57 -162 -57 -241c0 -120 49 -161 125 -161z" />
    <glyph glyph-name="OE" unicode="&#x152;" horiz-adv-x="1087" 
d="M384 0c-99 0 -211 17 -277 86c-47 49 -66 120 -66 208c0 134 40 261 123 346c87 89 208 112 344 112h587l-36 -124h-323l-32 -182h259l-23 -129h-259l-33 -193h341l-21 -124h-584zM391 125h85l88 502h-73c-94 0 -156 -22 -204 -92c-40 -57 -69 -144 -69 -238
c0 -50 9 -97 36 -127c24 -27 66 -45 137 -45z" />
    <glyph glyph-name="P" unicode="P" horiz-adv-x="696" 
d="M23 0l132 752h240c101 0 173 -24 216 -61c34 -30 62 -78 62 -155c0 -81 -31 -149 -76 -193c-60 -59 -153 -83 -269 -83h-88l-45 -260h-172zM263 388h69c48 0 89 8 121 32c34 26 50 68 50 110c0 29 -8 50 -20 64c-17 20 -48 34 -104 34h-75z" />
    <glyph glyph-name="Thorn" unicode="&#xde;" horiz-adv-x="696" 
d="M23 0l132 752h171l-22 -125h72c101 0 174 -24 217 -62c34 -29 61 -78 61 -155c0 -80 -31 -148 -76 -192c-60 -60 -152 -84 -269 -84h-91l-23 -134h-172zM241 263h72c49 0 89 8 121 32c34 26 50 67 50 109c0 29 -8 50 -20 65c-16 19 -47 34 -103 34h-79z" />
    <glyph glyph-name="Q" unicode="Q" horiz-adv-x="824" 
d="M673 -138l-142 80c-49 27 -112 43 -186 43h-11c-174 0 -293 87 -293 297c0 105 30 221 80 306c66 112 171 179 326 179c176 0 295 -86 295 -298c0 -99 -26 -214 -79 -306c-26 -45 -58 -82 -97 -110c75 -5 133 -19 192 -50c-18 -50 -48 -100 -85 -141zM344 119
c78 0 128 43 164 111c36 69 57 163 57 241c0 121 -50 161 -126 161c-77 0 -127 -42 -163 -111s-57 -162 -57 -241c0 -120 49 -161 125 -161z" />
    <glyph glyph-name="R" unicode="R" horiz-adv-x="731" 
d="M23 0l132 752h256c94 0 158 -20 199 -55c42 -36 64 -93 64 -158c0 -55 -16 -106 -41 -141s-73 -73 -135 -97l117 -301h-184l-88 273h-101l-47 -273h-172zM264 397h66c58 0 101 9 133 39c27 26 41 63 41 100c0 29 -9 52 -22 65c-15 15 -42 27 -92 27h-86z" />
    <glyph glyph-name="Racute" unicode="&#x154;" horiz-adv-x="731" 
d="M333 818l-47 80l250 154l65 -119zM23 0l132 752h256c94 0 158 -20 199 -55c42 -36 64 -93 64 -158c0 -55 -16 -106 -41 -141s-73 -73 -135 -97l117 -301h-184l-88 273h-101l-47 -273h-172zM264 397h66c58 0 101 9 133 39c27 26 41 63 41 100c0 29 -9 52 -22 65
c-15 15 -42 27 -92 27h-86z" />
    <glyph glyph-name="Rcaron" unicode="&#x158;" horiz-adv-x="731" 
d="M363 818l-111 167l59 48l114 -108l157 108l49 -58l-163 -157h-105zM23 0l132 752h256c94 0 158 -20 199 -55c42 -36 64 -93 64 -158c0 -55 -16 -106 -41 -141s-73 -73 -135 -97l117 -301h-184l-88 273h-101l-47 -273h-172zM264 397h66c58 0 101 9 133 39
c27 26 41 63 41 100c0 29 -9 52 -22 65c-15 15 -42 27 -92 27h-86z" />
    <glyph glyph-name="Rcommaaccent" unicode="&#x156;" horiz-adv-x="731" 
d="M23 0l132 752h256c94 0 158 -20 199 -55c42 -36 64 -93 64 -158c0 -55 -16 -106 -41 -141s-73 -73 -135 -97l117 -301h-184l-88 273h-101l-47 -273h-172zM264 397h66c58 0 101 9 133 39c27 26 41 63 41 100c0 29 -9 52 -22 65c-15 15 -42 27 -92 27h-86zM200 -322l41 120
c-33 5 -51 20 -51 56c0 17 5 46 19 65c16 22 41 31 74 31c28 0 44 -8 54 -18c11 -11 16 -28 16 -51c0 -55 -39 -143 -77 -203h-76z" />
    <glyph glyph-name="S" unicode="S" horiz-adv-x="664" 
d="M260 -15c-81 0 -168 14 -252 45l34 127c61 -23 147 -40 217 -40c72 0 157 18 157 92c0 41 -26 69 -96 97l-65 26c-109 44 -165 104 -165 202c0 73 31 135 92 177c52 36 123 56 209 56c74 0 147 -15 222 -40l-43 -121c-60 18 -120 29 -173 29c-80 0 -143 -25 -143 -81
c0 -37 29 -62 111 -96l65 -27c106 -44 153 -105 153 -204c0 -72 -25 -135 -87 -180c-58 -42 -140 -62 -236 -62z" />
    <glyph glyph-name="Sacute" unicode="&#x15a;" horiz-adv-x="664" 
d="M320 818l-47 80l250 154l65 -119zM260 -15c-81 0 -168 14 -252 45l34 127c61 -23 147 -40 217 -40c72 0 157 18 157 92c0 41 -26 69 -96 97l-65 26c-109 44 -165 104 -165 202c0 73 31 135 92 177c52 36 123 56 209 56c74 0 147 -15 222 -40l-43 -121
c-60 18 -120 29 -173 29c-80 0 -143 -25 -143 -81c0 -37 29 -62 111 -96l65 -27c106 -44 153 -105 153 -204c0 -72 -25 -135 -87 -180c-58 -42 -140 -62 -236 -62z" />
    <glyph glyph-name="Scaron" unicode="&#x160;" horiz-adv-x="664" 
d="M350 818l-111 167l59 48l114 -108l157 108l49 -58l-163 -157h-105zM260 -15c-81 0 -168 14 -252 45l34 127c61 -23 147 -40 217 -40c72 0 157 18 157 92c0 41 -26 69 -96 97l-65 26c-109 44 -165 104 -165 202c0 73 31 135 92 177c52 36 123 56 209 56
c74 0 147 -15 222 -40l-43 -121c-60 18 -120 29 -173 29c-80 0 -143 -25 -143 -81c0 -37 29 -62 111 -96l65 -27c106 -44 153 -105 153 -204c0 -72 -25 -135 -87 -180c-58 -42 -140 -62 -236 -62z" />
    <glyph glyph-name="Scedilla" unicode="&#x15e;" horiz-adv-x="664" 
d="M430 431c106 -44 153 -105 153 -204c0 -72 -25 -135 -87 -180c-49 -35 -115 -55 -192 -61c-1 -5 -3 -10 -3 -15c0 -12 12 -19 26 -26c56 -29 84 -45 84 -99c0 -39 -15 -69 -41 -90c-28 -23 -63 -33 -107 -33c-35 0 -74 6 -102 15l15 80c24 -6 49 -8 66 -8
c34 0 60 8 60 28s-25 27 -46 35c-47 17 -58 30 -58 57c0 2 0 6 1 12c2 12 9 29 19 44c-69 4 -140 18 -210 44l34 127c61 -23 147 -40 217 -40c72 0 157 18 157 92c0 41 -26 69 -96 97l-65 26c-109 44 -165 104 -165 202c0 73 31 135 92 177c52 36 123 56 209 56
c74 0 147 -15 222 -40l-43 -121c-60 18 -120 29 -173 29c-80 0 -143 -25 -143 -81c0 -37 29 -62 111 -96z" />
    <glyph glyph-name="Scircumflex" unicode="&#x15c;" horiz-adv-x="664" 
d="M261 805l-49 59l162 156h106l111 -166l-59 -49l-115 108zM260 -15c-81 0 -168 14 -252 45l34 127c61 -23 147 -40 217 -40c72 0 157 18 157 92c0 41 -26 69 -96 97l-65 26c-109 44 -165 104 -165 202c0 73 31 135 92 177c52 36 123 56 209 56c74 0 147 -15 222 -40
l-43 -121c-60 18 -120 29 -173 29c-80 0 -143 -25 -143 -81c0 -37 29 -62 111 -96l65 -27c106 -44 153 -105 153 -204c0 -72 -25 -135 -87 -180c-58 -42 -140 -62 -236 -62z" />
    <glyph glyph-name="Scommaaccent" unicode="&#x218;" horiz-adv-x="664" 
d="M260 -15c-81 0 -168 14 -252 45l34 127c61 -23 147 -40 217 -40c72 0 157 18 157 92c0 41 -26 69 -96 97l-65 26c-109 44 -165 104 -165 202c0 73 31 135 92 177c52 36 123 56 209 56c74 0 147 -15 222 -40l-43 -121c-60 18 -120 29 -173 29c-80 0 -143 -25 -143 -81
c0 -37 29 -62 111 -96l65 -27c106 -44 153 -105 153 -204c0 -72 -25 -135 -87 -180c-58 -42 -140 -62 -236 -62zM206 -322l41 120c-33 5 -51 20 -51 56c0 17 5 46 19 65c16 22 41 31 74 31c28 0 44 -8 54 -18c11 -11 16 -28 16 -51c0 -55 -39 -143 -77 -203h-76z" />
    <glyph glyph-name="T" unicode="T" horiz-adv-x="693" 
d="M194 0l110 628h-233l22 124h646l-36 -124h-227l-110 -628h-172z" />
    <glyph glyph-name="Tbar" unicode="&#x166;" horiz-adv-x="732" 
d="M216 0l51 293h-138l20 107h138l39 228h-233l22 124h646l-35 -124h-228l-40 -228h138l-20 -107h-138l-50 -293h-172z" />
    <glyph glyph-name="Tcaron" unicode="&#x164;" horiz-adv-x="693" 
d="M365 818l-111 167l59 48l114 -108l157 108l49 -58l-163 -157h-105zM194 0l110 628h-233l22 124h646l-36 -124h-227l-110 -628h-172z" />
    <glyph glyph-name="uni0162" unicode="&#x162;" horiz-adv-x="693" 
d="M194 0l110 628h-233l22 124h646l-36 -124h-227l-110 -628h-172zM177 -322l41 120c-33 5 -51 20 -51 56c0 17 5 46 19 65c16 22 41 31 74 31c28 0 44 -8 54 -18c11 -11 16 -28 16 -51c0 -55 -39 -143 -77 -203h-76z" />
    <glyph glyph-name="uni021A" unicode="&#x21a;" horiz-adv-x="693" 
d="M194 0l110 628h-233l22 124h646l-36 -124h-227l-110 -628h-172zM177 -322l41 120c-33 5 -51 20 -51 56c0 17 5 46 19 65c16 22 41 31 74 31c28 0 44 -8 54 -18c11 -11 16 -28 16 -51c0 -55 -39 -143 -77 -203h-76z" />
    <glyph glyph-name="U" unicode="U" 
d="M348 -15c-90 0 -159 20 -211 64c-54 46 -74 105 -74 184c0 35 4 71 13 121l71 398h168l-78 -442c-7 -42 -8 -63 -8 -75c0 -26 5 -56 23 -79c21 -27 56 -40 103 -40c60 0 97 21 119 46c24 27 40 66 53 137l80 453h154l-89 -504c-17 -96 -54 -155 -101 -194
c-61 -51 -137 -69 -223 -69z" />
    <glyph glyph-name="Uacute" unicode="&#xda;" 
d="M391 818l-47 80l250 154l65 -119zM348 -15c-90 0 -159 20 -211 64c-54 46 -74 105 -74 184c0 35 4 71 13 121l71 398h168l-78 -442c-7 -42 -8 -63 -8 -75c0 -26 5 -56 23 -79c21 -27 56 -40 103 -40c60 0 97 21 119 46c24 27 40 66 53 137l80 453h154l-89 -504
c-17 -96 -54 -155 -101 -194c-61 -51 -137 -69 -223 -69z" />
    <glyph glyph-name="Ubreve" unicode="&#x16c;" 
d="M478 820c-108 0 -154 61 -154 138c0 12 1 24 4 38l93 3c0 -44 9 -84 64 -84c48 0 74 30 90 84l95 -3c-8 -103 -74 -176 -192 -176zM348 -15c-90 0 -159 20 -211 64c-54 46 -74 105 -74 184c0 35 4 71 13 121l71 398h168l-78 -442c-7 -42 -8 -63 -8 -75
c0 -26 5 -56 23 -79c21 -27 56 -40 103 -40c60 0 97 21 119 46c24 27 40 66 53 137l80 453h154l-89 -504c-17 -96 -54 -155 -101 -194c-61 -51 -137 -69 -223 -69z" />
    <glyph glyph-name="Ucircumflex" unicode="&#xdb;" 
d="M332 805l-49 59l162 156h106l111 -166l-59 -49l-115 108zM348 -15c-90 0 -159 20 -211 64c-54 46 -74 105 -74 184c0 35 4 71 13 121l71 398h168l-78 -442c-7 -42 -8 -63 -8 -75c0 -26 5 -56 23 -79c21 -27 56 -40 103 -40c60 0 97 21 119 46c24 27 40 66 53 137l80 453
h154l-89 -504c-17 -96 -54 -155 -101 -194c-61 -51 -137 -69 -223 -69z" />
    <glyph glyph-name="Udieresis" unicode="&#xdc;" 
d="M360 836c-50 0 -69 21 -69 61c0 7 1 17 4 27c8 40 37 65 88 65c49 0 68 -21 68 -61c0 -7 -1 -17 -4 -27c-8 -40 -37 -65 -87 -65zM588 836c-49 0 -68 21 -68 61c0 7 1 17 3 27c9 40 38 65 88 65s69 -21 69 -61c0 -7 -2 -17 -4 -27c-8 -40 -37 -65 -88 -65zM348 -15
c-90 0 -159 20 -211 64c-54 46 -74 105 -74 184c0 35 4 71 13 121l71 398h168l-78 -442c-7 -42 -8 -63 -8 -75c0 -26 5 -56 23 -79c21 -27 56 -40 103 -40c60 0 97 21 119 46c24 27 40 66 53 137l80 453h154l-89 -504c-17 -96 -54 -155 -101 -194c-61 -51 -137 -69 -223 -69
z" />
    <glyph glyph-name="Ugrave" unicode="&#xd9;" 
d="M502 818l-217 125l77 107l196 -157zM348 -15c-90 0 -159 20 -211 64c-54 46 -74 105 -74 184c0 35 4 71 13 121l71 398h168l-78 -442c-7 -42 -8 -63 -8 -75c0 -26 5 -56 23 -79c21 -27 56 -40 103 -40c60 0 97 21 119 46c24 27 40 66 53 137l80 453h154l-89 -504
c-17 -96 -54 -155 -101 -194c-61 -51 -137 -69 -223 -69z" />
    <glyph glyph-name="Uhungarumlaut" unicode="&#x170;" 
d="M347 818l-56 62l175 172l74 -85zM559 818l-54 65l197 169l72 -92zM348 -15c-90 0 -159 20 -211 64c-54 46 -74 105 -74 184c0 35 4 71 13 121l71 398h168l-78 -442c-7 -42 -8 -63 -8 -75c0 -26 5 -56 23 -79c21 -27 56 -40 103 -40c60 0 97 21 119 46c24 27 40 66 53 137
l80 453h154l-89 -504c-17 -96 -54 -155 -101 -194c-61 -51 -137 -69 -223 -69z" />
    <glyph glyph-name="Umacron" unicode="&#x16a;" 
d="M324 853l20 107h325l-20 -107h-325zM348 -15c-90 0 -159 20 -211 64c-54 46 -74 105 -74 184c0 35 4 71 13 121l71 398h168l-78 -442c-7 -42 -8 -63 -8 -75c0 -26 5 -56 23 -79c21 -27 56 -40 103 -40c60 0 97 21 119 46c24 27 40 66 53 137l80 453h154l-89 -504
c-17 -96 -54 -155 -101 -194c-61 -51 -137 -69 -223 -69z" />
    <glyph glyph-name="Uogonek" unicode="&#x172;" 
d="M328 -274c-80 0 -130 33 -130 108c0 61 36 113 97 153c-66 7 -118 28 -159 63c-55 46 -73 108 -73 184c0 32 4 72 13 120l71 398h168l-78 -442c-4 -26 -8 -53 -8 -72c0 -29 5 -59 23 -82c20 -26 54 -40 103 -40c60 0 97 21 119 46c22 24 40 64 53 137l80 453h154
l-89 -504c-17 -95 -53 -154 -101 -194c-44 -36 -97 -56 -152 -64c-76 -49 -108 -86 -108 -132c0 -29 21 -42 58 -42c22 0 46 5 65 10l-15 -85c-27 -9 -58 -15 -91 -15z" />
    <glyph glyph-name="Uring" unicode="&#x16e;" 
d="M473 813c-83 0 -124 44 -124 107c0 35 8 72 30 101c27 35 72 51 130 51c83 0 124 -44 124 -107c0 -35 -8 -72 -30 -101c-27 -35 -72 -51 -130 -51zM481 884c25 0 45 7 57 25c8 12 13 30 13 47c0 28 -14 45 -50 45c-25 0 -45 -7 -57 -25c-8 -12 -13 -30 -13 -47
c0 -28 14 -45 50 -45zM348 -15c-90 0 -159 20 -211 64c-54 46 -74 105 -74 184c0 35 4 71 13 121l71 398h168l-78 -442c-7 -42 -8 -63 -8 -75c0 -26 5 -56 23 -79c21 -27 56 -40 103 -40c60 0 97 21 119 46c24 27 40 66 53 137l80 453h154l-89 -504
c-17 -96 -54 -155 -101 -194c-61 -51 -137 -69 -223 -69z" />
    <glyph glyph-name="Utilde" unicode="&#x168;" 
d="M361 838l-76 12c15 92 68 151 142 151c67 0 104 -48 150 -48c28 0 47 18 60 52l76 -12c-16 -92 -70 -150 -143 -150c-65 0 -103 47 -150 47c-28 0 -46 -18 -59 -52zM348 -15c-90 0 -159 20 -211 64c-54 46 -74 105 -74 184c0 35 4 71 13 121l71 398h168l-78 -442
c-7 -42 -8 -63 -8 -75c0 -26 5 -56 23 -79c21 -27 56 -40 103 -40c60 0 97 21 119 46c24 27 40 66 53 137l80 453h154l-89 -504c-17 -96 -54 -155 -101 -194c-61 -51 -137 -69 -223 -69z" />
    <glyph glyph-name="V" unicode="V" horiz-adv-x="741" 
d="M220 0l-130 752h178l82 -554l262 554h176l-382 -752h-186z" />
    <glyph glyph-name="W" unicode="W" horiz-adv-x="1091" 
d="M181 0l-88 752h177l44 -554l231 554h144l52 -554l230 554h159l-335 -752h-186l-43 466l-199 -466h-186z" />
    <glyph glyph-name="Wacute" unicode="&#x1e82;" horiz-adv-x="1091" 
d="M545 818l-47 80l250 154l65 -119zM181 0l-88 752h177l44 -554l231 554h144l52 -554l230 554h159l-335 -752h-186l-43 466l-199 -466h-186z" />
    <glyph glyph-name="Wcircumflex" unicode="&#x174;" horiz-adv-x="1091" 
d="M486 805l-49 59l162 156h106l111 -166l-59 -49l-115 108zM181 0l-88 752h177l44 -554l231 554h144l52 -554l230 554h159l-335 -752h-186l-43 466l-199 -466h-186z" />
    <glyph glyph-name="Wdieresis" unicode="&#x1e84;" horiz-adv-x="1091" 
d="M514 836c-50 0 -69 21 -69 61c0 7 1 17 4 27c8 40 37 65 88 65c49 0 68 -21 68 -61c0 -7 -1 -17 -4 -27c-8 -40 -37 -65 -87 -65zM742 836c-49 0 -68 21 -68 61c0 7 1 17 3 27c9 40 38 65 88 65s69 -21 69 -61c0 -7 -2 -17 -4 -27c-8 -40 -37 -65 -88 -65zM181 0l-88 752
h177l44 -554l231 554h144l52 -554l230 554h159l-335 -752h-186l-43 466l-199 -466h-186z" />
    <glyph glyph-name="Wgrave" unicode="&#x1e80;" horiz-adv-x="1091" 
d="M736 818l-217 125l77 107l196 -157zM181 0l-88 752h177l44 -554l231 554h144l52 -554l230 554h159l-335 -752h-186l-43 466l-199 -466h-186z" />
    <glyph glyph-name="X" unicode="X" horiz-adv-x="719" 
d="M-49 0l316 391l-153 361h186l91 -237l186 237h183l-303 -374l162 -378h-186l-100 255l-200 -255h-182z" />
    <glyph glyph-name="Y" unicode="Y" horiz-adv-x="751" 
d="M218 0l54 307l-182 445h183l112 -305l225 305h182l-348 -446l-54 -306h-172z" />
    <glyph glyph-name="Yacute" unicode="&#xdd;" horiz-adv-x="751" 
d="M376 818l-47 80l250 154l65 -119zM218 0l54 307l-182 445h183l112 -305l225 305h182l-348 -446l-54 -306h-172z" />
    <glyph glyph-name="Ycircumflex" unicode="&#x176;" horiz-adv-x="751" 
d="M317 805l-49 59l162 156h106l111 -166l-59 -49l-115 108zM218 0l54 307l-182 445h183l112 -305l225 305h182l-348 -446l-54 -306h-172z" />
    <glyph glyph-name="Ydieresis" unicode="&#x178;" horiz-adv-x="751" 
d="M345 836c-50 0 -69 21 -69 61c0 7 1 17 4 27c8 40 37 65 88 65c49 0 68 -21 68 -61c0 -7 -1 -17 -4 -27c-8 -40 -37 -65 -87 -65zM573 836c-49 0 -68 21 -68 61c0 7 1 17 3 27c9 40 38 65 88 65s69 -21 69 -61c0 -7 -2 -17 -4 -27c-8 -40 -37 -65 -88 -65zM218 0l54 307
l-182 445h183l112 -305l225 305h182l-348 -446l-54 -306h-172z" />
    <glyph glyph-name="Ygrave" unicode="&#x1ef2;" horiz-adv-x="751" 
d="M463 818l-217 125l77 107l196 -157zM218 0l54 307l-182 445h183l112 -305l225 305h182l-348 -446l-54 -306h-172z" />
    <glyph glyph-name="Z" unicode="Z" horiz-adv-x="670" 
d="M-21 0l17 101l453 525h-349l22 126h565l-18 -105l-449 -520h359l-22 -127h-578z" />
    <glyph glyph-name="Zacute" unicode="&#x179;" horiz-adv-x="670" 
d="M328 818l-47 80l250 154l65 -119zM-21 0l17 101l453 525h-349l22 126h565l-18 -105l-449 -520h359l-22 -127h-578z" />
    <glyph glyph-name="Zcaron" unicode="&#x17d;" horiz-adv-x="670" 
d="M358 818l-111 167l59 48l114 -108l157 108l49 -58l-163 -157h-105zM-21 0l17 101l453 525h-349l22 126h565l-18 -105l-449 -520h359l-22 -127h-578z" />
    <glyph glyph-name="Zdotaccent" unicode="&#x17b;" horiz-adv-x="670" 
d="M421 831c-51 0 -71 22 -71 64c0 10 1 20 4 32c9 37 32 65 94 65c51 0 71 -22 71 -64c0 -10 -1 -20 -4 -32c-9 -37 -32 -65 -94 -65zM-21 0l17 101l453 525h-349l22 126h565l-18 -105l-449 -520h359l-22 -127h-578z" />
    <glyph glyph-name="a" unicode="a" horiz-adv-x="747" 
d="M-51 0l384 752h189l140 -752h-176l-30 189h-244l-91 -189h-172zM273 313h163l-37 262h-2z" />
    <glyph glyph-name="aacute" unicode="&#xe1;" horiz-adv-x="747" 
d="M358 818l-47 80l250 154l65 -119zM-51 0l384 752h189l140 -752h-176l-30 189h-244l-91 -189h-172zM273 313h163l-37 262h-2z" />
    <glyph glyph-name="abreve" unicode="&#x103;" horiz-adv-x="747" 
d="M445 820c-108 0 -154 61 -154 138c0 12 1 24 4 38l93 3c0 -44 9 -84 64 -84c48 0 74 30 90 84l95 -3c-8 -103 -74 -176 -192 -176zM-51 0l384 752h189l140 -752h-176l-30 189h-244l-91 -189h-172zM273 313h163l-37 262h-2z" />
    <glyph glyph-name="uni01CE" unicode="&#x1ce;" horiz-adv-x="747" 
d="M388 818l-111 167l59 48l114 -108l157 108l49 -58l-163 -157h-105zM-51 0l384 752h189l140 -752h-176l-30 189h-244l-91 -189h-172zM273 313h163l-37 262h-2z" />
    <glyph glyph-name="acircumflex" unicode="&#xe2;" horiz-adv-x="747" 
d="M299 805l-49 59l162 156h106l111 -166l-59 -49l-115 108zM-51 0l384 752h189l140 -752h-176l-30 189h-244l-91 -189h-172zM273 313h163l-37 262h-2z" />
    <glyph glyph-name="adieresis" unicode="&#xe4;" horiz-adv-x="747" 
d="M327 836c-50 0 -69 21 -69 61c0 7 1 17 4 27c8 40 37 65 88 65c49 0 68 -21 68 -61c0 -7 -1 -17 -4 -27c-8 -40 -37 -65 -87 -65zM555 836c-49 0 -68 21 -68 61c0 7 1 17 3 27c9 40 38 65 88 65s69 -21 69 -61c0 -7 -2 -17 -4 -27c-8 -40 -37 -65 -88 -65zM-51 0l384 752
h189l140 -752h-176l-30 189h-244l-91 -189h-172zM273 313h163l-37 262h-2z" />
    <glyph glyph-name="agrave" unicode="&#xe0;" horiz-adv-x="747" 
d="M464 818l-217 125l77 107l196 -157zM-51 0l384 752h189l140 -752h-176l-30 189h-244l-91 -189h-172zM273 313h163l-37 262h-2z" />
    <glyph glyph-name="amacron" unicode="&#x101;" horiz-adv-x="747" 
d="M291 853l20 107h325l-20 -107h-325zM-51 0l384 752h189l140 -752h-176l-30 189h-244l-91 -189h-172zM273 313h163l-37 262h-2z" />
    <glyph glyph-name="aogonek" unicode="&#x105;" horiz-adv-x="747" 
d="M481 -274c-69 0 -131 25 -131 106c0 70 47 128 134 183l-28 174h-244l-91 -189h-172l384 752h189l140 -752h-7c-100 -6 -191 -72 -191 -138c0 -34 25 -46 59 -46c21 0 45 5 64 10l-16 -85c-26 -9 -57 -15 -90 -15zM273 313h163l-37 262h-2z" />
    <glyph glyph-name="aring" unicode="&#xe5;" horiz-adv-x="747" 
d="M440 813c-83 0 -124 44 -124 107c0 35 8 72 30 101c27 35 72 51 130 51c83 0 124 -44 124 -107c0 -35 -8 -72 -30 -101c-27 -35 -72 -51 -130 -51zM448 884c25 0 45 7 57 25c8 12 13 30 13 47c0 28 -14 45 -50 45c-25 0 -45 -7 -57 -25c-8 -12 -13 -30 -13 -47
c0 -28 14 -45 50 -45zM-51 0l384 752h189l140 -752h-176l-30 189h-244l-91 -189h-172zM273 313h163l-37 262h-2z" />
    <glyph glyph-name="aringacute" unicode="&#x1fb;" horiz-adv-x="747" 
d="M461 1089l-47 80l250 154l65 -119zM434 808c-83 0 -124 44 -124 107c0 35 8 72 30 101c27 35 72 51 130 51c83 0 124 -44 124 -107c0 -35 -8 -72 -30 -101c-27 -35 -72 -51 -130 -51zM442 879c25 0 45 7 57 25c8 12 13 30 13 47c0 28 -14 45 -50 45c-25 0 -45 -7 -57 -25
c-8 -12 -13 -30 -13 -47c0 -28 14 -45 50 -45zM-51 0l384 752h189l140 -752h-176l-30 189h-244l-91 -189h-172zM273 313h163l-37 262h-2z" />
    <glyph glyph-name="atilde" unicode="&#xe3;" horiz-adv-x="747" 
d="M328 838l-76 12c15 92 68 151 142 151c67 0 104 -48 150 -48c28 0 47 18 60 52l76 -12c-16 -92 -70 -150 -143 -150c-65 0 -103 47 -150 47c-28 0 -46 -18 -59 -52zM-51 0l384 752h189l140 -752h-176l-30 189h-244l-91 -189h-172zM273 313h163l-37 262h-2z" />
    <glyph glyph-name="ae" unicode="&#xe6;" horiz-adv-x="1142" 
d="M-54 0l596 752h608l-35 -124h-323l-32 -182h258l-23 -129h-258l-34 -193h341l-20 -124h-514l36 206h-254l-156 -206h-190zM389 328h178l53 300h-2z" />
    <glyph glyph-name="aeacute" unicode="&#x1fd;" horiz-adv-x="1142" 
d="M777 818l-47 80l250 154l65 -119zM-54 0l596 752h608l-35 -124h-323l-32 -182h258l-23 -129h-258l-34 -193h341l-20 -124h-514l36 206h-254l-156 -206h-190zM389 328h178l53 300h-2z" />
    <glyph glyph-name="b" unicode="b" horiz-adv-x="703" 
d="M23 0l132 752h235c96 0 163 -15 202 -51c28 -26 42 -62 42 -111c0 -73 -40 -144 -137 -182c86 -25 133 -81 133 -162c0 -74 -23 -131 -68 -172c-57 -51 -150 -74 -290 -74h-249zM274 453h56c46 0 82 10 105 32c20 18 31 45 31 77c0 21 -5 36 -15 46c-15 15 -40 20 -80 20
h-67zM215 124h75c58 0 105 10 133 36c22 20 34 48 34 87c0 28 -8 47 -22 60c-20 18 -54 22 -95 22h-88z" />
    <glyph glyph-name="c" unicode="c" horiz-adv-x="662" 
d="M354 -15c-205 0 -313 94 -313 298c0 126 41 278 132 375c77 82 175 109 278 109c80 0 148 -16 212 -37l-43 -122c-46 13 -99 26 -155 26c-66 0 -130 -18 -179 -95c-41 -64 -67 -160 -67 -247c0 -45 7 -92 32 -124c29 -38 75 -50 140 -50c46 0 105 6 151 15l-4 -125
c-48 -14 -121 -23 -184 -23z" />
    <glyph glyph-name="cacute" unicode="&#x107;" horiz-adv-x="662" 
d="M387 818l-47 80l250 154l65 -119zM354 -15c-205 0 -313 94 -313 298c0 126 41 278 132 375c77 82 175 109 278 109c80 0 148 -16 212 -37l-43 -122c-46 13 -99 26 -155 26c-66 0 -130 -18 -179 -95c-41 -64 -67 -160 -67 -247c0 -45 7 -92 32 -124c29 -38 75 -50 140 -50
c46 0 105 6 151 15l-4 -125c-48 -14 -121 -23 -184 -23z" />
    <glyph glyph-name="ccaron" unicode="&#x10d;" horiz-adv-x="662" 
d="M417 818l-111 167l59 48l114 -108l157 108l49 -58l-163 -157h-105zM354 -15c-205 0 -313 94 -313 298c0 126 41 278 132 375c77 82 175 109 278 109c80 0 148 -16 212 -37l-43 -122c-46 13 -99 26 -155 26c-66 0 -130 -18 -179 -95c-41 -64 -67 -160 -67 -247
c0 -45 7 -92 32 -124c29 -38 75 -50 140 -50c46 0 105 6 151 15l-4 -125c-48 -14 -121 -23 -184 -23z" />
    <glyph glyph-name="ccedilla" unicode="&#xe7;" horiz-adv-x="662" 
d="M465 634c-66 0 -130 -18 -179 -95c-41 -64 -67 -160 -67 -247c0 -45 7 -92 32 -124c29 -38 75 -50 140 -50c46 0 105 6 151 15l-4 -125c-48 -14 -121 -23 -184 -23h-6c-2 -5 -3 -10 -3 -14c0 -12 12 -19 26 -26c56 -29 84 -45 84 -99c0 -39 -15 -69 -41 -90
c-28 -23 -63 -33 -107 -33c-35 0 -74 6 -102 15l15 80c24 -6 49 -8 66 -8c34 0 60 8 60 28s-25 27 -46 35c-47 17 -58 30 -58 57c0 2 0 6 1 12c2 13 11 33 23 50c-148 25 -225 119 -225 291c0 126 41 278 132 375c77 82 175 109 278 109c80 0 148 -16 212 -37l-43 -122
c-46 13 -99 26 -155 26z" />
    <glyph glyph-name="ccircumflex" unicode="&#x109;" horiz-adv-x="662" 
d="M328 805l-49 59l162 156h106l111 -166l-59 -49l-115 108zM354 -15c-205 0 -313 94 -313 298c0 126 41 278 132 375c77 82 175 109 278 109c80 0 148 -16 212 -37l-43 -122c-46 13 -99 26 -155 26c-66 0 -130 -18 -179 -95c-41 -64 -67 -160 -67 -247c0 -45 7 -92 32 -124
c29 -38 75 -50 140 -50c46 0 105 6 151 15l-4 -125c-48 -14 -121 -23 -184 -23z" />
    <glyph glyph-name="cdotaccent" unicode="&#x10b;" horiz-adv-x="662" 
d="M480 831c-51 0 -71 22 -71 64c0 10 1 20 4 32c9 37 32 65 94 65c51 0 71 -22 71 -64c0 -10 -1 -20 -4 -32c-9 -37 -32 -65 -94 -65zM354 -15c-205 0 -313 94 -313 298c0 126 41 278 132 375c77 82 175 109 278 109c80 0 148 -16 212 -37l-43 -122c-46 13 -99 26 -155 26
c-66 0 -130 -18 -179 -95c-41 -64 -67 -160 -67 -247c0 -45 7 -92 32 -124c29 -38 75 -50 140 -50c46 0 105 6 151 15l-4 -125c-48 -14 -121 -23 -184 -23z" />
    <glyph glyph-name="d" unicode="d" horiz-adv-x="765" 
d="M23 0l132 752h223c112 0 217 -19 280 -85c49 -52 66 -123 66 -209c0 -133 -41 -261 -124 -346c-83 -84 -192 -112 -344 -112h-233zM217 125h57c93 0 155 23 203 93c40 57 69 144 69 237c0 58 -11 98 -36 127c-26 30 -68 45 -136 45h-70z" />
    <glyph glyph-name="eth" unicode="&#xf0;" 
d="M37 0l55 317h-79l20 112l81 13l55 310h223c112 0 217 -19 280 -85c49 -52 66 -123 66 -209c0 -133 -41 -261 -124 -346c-83 -84 -192 -112 -344 -112h-233zM231 125h57c93 0 155 23 203 93c40 57 69 144 69 237c0 58 -11 98 -36 127c-26 30 -68 45 -136 45h-70l-31 -181
h153l-23 -129h-153z" />
    <glyph glyph-name="dcaron" unicode="&#x10f;" horiz-adv-x="765" 
d="M359 818l-111 167l59 48l114 -108l157 108l49 -58l-163 -157h-105zM23 0l132 752h223c112 0 217 -19 280 -85c49 -52 66 -123 66 -209c0 -133 -41 -261 -124 -346c-83 -84 -192 -112 -344 -112h-233zM217 125h57c93 0 155 23 203 93c40 57 69 144 69 237
c0 58 -11 98 -36 127c-26 30 -68 45 -136 45h-70z" />
    <glyph glyph-name="dcroat" unicode="&#x111;" 
d="M37 0l55 317h-79l20 112l81 13l55 310h223c112 0 217 -19 280 -85c49 -52 66 -123 66 -209c0 -133 -41 -261 -124 -346c-83 -84 -192 -112 -344 -112h-233zM231 125h57c93 0 155 23 203 93c40 57 69 144 69 237c0 58 -11 98 -36 127c-26 30 -68 45 -136 45h-70l-31 -181
h153l-23 -129h-153z" />
    <glyph glyph-name="e" unicode="e" horiz-adv-x="655" 
d="M23 0l132 752h508l-35 -124h-324l-31 -182h258l-23 -129h-258l-33 -193h340l-20 -124h-514z" />
    <glyph glyph-name="eacute" unicode="&#xe9;" horiz-adv-x="655" 
d="M332 818l-47 80l250 154l65 -119zM23 0l132 752h508l-35 -124h-324l-31 -182h258l-23 -129h-258l-33 -193h340l-20 -124h-514z" />
    <glyph glyph-name="ebreve" unicode="&#x115;" horiz-adv-x="655" 
d="M419 820c-108 0 -154 61 -154 138c0 12 1 24 4 38l93 3c0 -44 9 -84 64 -84c48 0 74 30 90 84l95 -3c-8 -103 -74 -176 -192 -176zM23 0l132 752h508l-35 -124h-324l-31 -182h258l-23 -129h-258l-33 -193h340l-20 -124h-514z" />
    <glyph glyph-name="ecaron" unicode="&#x11b;" horiz-adv-x="655" 
d="M362 818l-111 167l59 48l114 -108l157 108l49 -58l-163 -157h-105zM23 0l132 752h508l-35 -124h-324l-31 -182h258l-23 -129h-258l-33 -193h340l-20 -124h-514z" />
    <glyph glyph-name="ecircumflex" unicode="&#xea;" horiz-adv-x="655" 
d="M273 805l-49 59l162 156h106l111 -166l-59 -49l-115 108zM23 0l132 752h508l-35 -124h-324l-31 -182h258l-23 -129h-258l-33 -193h340l-20 -124h-514z" />
    <glyph glyph-name="edieresis" unicode="&#xeb;" horiz-adv-x="655" 
d="M301 836c-50 0 -69 21 -69 61c0 7 1 17 4 27c8 40 37 65 88 65c49 0 68 -21 68 -61c0 -7 -1 -17 -4 -27c-8 -40 -37 -65 -87 -65zM529 836c-49 0 -68 21 -68 61c0 7 1 17 3 27c9 40 38 65 88 65s69 -21 69 -61c0 -7 -2 -17 -4 -27c-8 -40 -37 -65 -88 -65zM23 0l132 752
h508l-35 -124h-324l-31 -182h258l-23 -129h-258l-33 -193h340l-20 -124h-514z" />
    <glyph glyph-name="edotaccent" unicode="&#x117;" horiz-adv-x="655" 
d="M425 831c-51 0 -71 22 -71 64c0 10 1 20 4 32c9 37 32 65 94 65c51 0 71 -22 71 -64c0 -10 -1 -20 -4 -32c-9 -37 -32 -65 -94 -65zM23 0l132 752h508l-35 -124h-324l-31 -182h258l-23 -129h-258l-33 -193h340l-20 -124h-514z" />
    <glyph glyph-name="egrave" unicode="&#xe8;" horiz-adv-x="655" 
d="M465 818l-217 125l77 107l196 -157zM23 0l132 752h508l-35 -124h-324l-31 -182h258l-23 -129h-258l-33 -193h340l-20 -124h-514z" />
    <glyph glyph-name="emacron" unicode="&#x113;" horiz-adv-x="655" 
d="M265 853l20 107h325l-20 -107h-325zM23 0l132 752h508l-35 -124h-324l-31 -182h258l-23 -129h-258l-33 -193h340l-20 -124h-514z" />
    <glyph glyph-name="eogonek" unicode="&#x119;" horiz-adv-x="655" 
d="M389 -274c-80 0 -131 34 -131 106c0 71 51 135 111 168h-346l132 752h508l-35 -124h-324l-31 -182h258l-23 -129h-258l-33 -193h340l-20 -124h-7c-108 0 -158 -85 -158 -136c0 -35 23 -48 59 -48c21 0 45 5 64 10l-16 -85c-26 -9 -57 -15 -90 -15z" />
    <glyph glyph-name="f" unicode="f" horiz-adv-x="630" 
d="M23 0l132 752h496l-35 -124h-312l-31 -182h246l-23 -129h-246l-55 -317h-172z" />
    <glyph glyph-name="g" unicode="g" horiz-adv-x="762" 
d="M364 -15c-115 0 -192 25 -242 71c-54 50 -81 129 -81 228c0 157 67 336 182 417c72 51 158 66 241 66c82 0 168 -16 241 -37l-45 -125c-55 15 -121 29 -184 29c-60 0 -121 -13 -168 -65c-61 -67 -89 -189 -89 -278c0 -55 11 -100 38 -130c25 -28 66 -43 126 -43
c16 0 56 1 80 4l28 161h-105l22 124h276l-68 -384c-71 -22 -160 -38 -252 -38z" />
    <glyph glyph-name="gbreve" unicode="&#x11f;" horiz-adv-x="762" 
d="M473 820c-108 0 -154 61 -154 138c0 12 1 24 4 38l93 3c0 -44 9 -84 64 -84c48 0 74 30 90 84l95 -3c-8 -103 -74 -176 -192 -176zM364 -15c-115 0 -192 25 -242 71c-54 50 -81 129 -81 228c0 157 67 336 182 417c72 51 158 66 241 66c82 0 168 -16 241 -37l-45 -125
c-55 15 -121 29 -184 29c-60 0 -121 -13 -168 -65c-61 -67 -89 -189 -89 -278c0 -55 11 -100 38 -130c25 -28 66 -43 126 -43c16 0 56 1 80 4l28 161h-105l22 124h276l-68 -384c-71 -22 -160 -38 -252 -38z" />
    <glyph glyph-name="gcircumflex" unicode="&#x11d;" horiz-adv-x="762" 
d="M327 805l-49 59l162 156h106l111 -166l-59 -49l-115 108zM364 -15c-115 0 -192 25 -242 71c-54 50 -81 129 -81 228c0 157 67 336 182 417c72 51 158 66 241 66c82 0 168 -16 241 -37l-45 -125c-55 15 -121 29 -184 29c-60 0 -121 -13 -168 -65
c-61 -67 -89 -189 -89 -278c0 -55 11 -100 38 -130c25 -28 66 -43 126 -43c16 0 56 1 80 4l28 161h-105l22 124h276l-68 -384c-71 -22 -160 -38 -252 -38z" />
    <glyph glyph-name="gcommaaccent" unicode="&#x123;" horiz-adv-x="762" 
d="M364 -15c-115 0 -192 25 -242 71c-54 50 -81 129 -81 228c0 157 67 336 182 417c72 51 158 66 241 66c82 0 168 -16 241 -37l-45 -125c-55 15 -121 29 -184 29c-60 0 -121 -13 -168 -65c-61 -67 -89 -189 -89 -278c0 -55 11 -100 38 -130c25 -28 66 -43 126 -43
c16 0 56 1 80 4l28 161h-105l22 124h276l-68 -384c-71 -22 -160 -38 -252 -38zM241 -322l41 120c-33 5 -51 20 -51 56c0 17 5 46 19 65c16 22 41 31 74 31c28 0 44 -8 54 -18c11 -11 16 -28 16 -51c0 -55 -39 -143 -77 -203h-76z" />
    <glyph glyph-name="gdotaccent" unicode="&#x121;" horiz-adv-x="762" 
d="M479 831c-51 0 -71 22 -71 64c0 10 1 20 4 32c9 37 32 65 94 65c51 0 71 -22 71 -64c0 -10 -1 -20 -4 -32c-9 -37 -32 -65 -94 -65zM364 -15c-115 0 -192 25 -242 71c-54 50 -81 129 -81 228c0 157 67 336 182 417c72 51 158 66 241 66c82 0 168 -16 241 -37l-45 -125
c-55 15 -121 29 -184 29c-60 0 -121 -13 -168 -65c-61 -67 -89 -189 -89 -278c0 -55 11 -100 38 -130c25 -28 66 -43 126 -43c16 0 56 1 80 4l28 161h-105l22 124h276l-68 -384c-71 -22 -160 -38 -252 -38z" />
    <glyph glyph-name="h" unicode="h" horiz-adv-x="786" 
d="M23 0l132 752h171l-53 -306h265l54 306h171l-132 -752h-171l55 317h-265l-55 -317h-172z" />
    <glyph glyph-name="hbar" unicode="&#x127;" horiz-adv-x="850" 
d="M57 0l95 549h-89l20 108h88l18 95h171l-18 -95h266l17 95h172l-18 -95h92l-20 -108h-90l-96 -549h-172l55 317h-265l-55 -317h-171zM306 446h265l18 103h-265z" />
    <glyph glyph-name="hcircumflex" unicode="&#x125;" horiz-adv-x="786" 
d="M325 805l-49 59l162 156h106l111 -166l-59 -49l-115 108zM23 0l132 752h171l-53 -306h265l54 306h171l-132 -752h-171l55 317h-265l-55 -317h-172z" />
    <glyph glyph-name="i" unicode="i" horiz-adv-x="363" 
d="M30 0l131 752h172l-132 -752h-171z" />
    <glyph glyph-name="dotlessi" unicode="&#x131;" horiz-adv-x="363" 
d="M30 0l131 752h172l-132 -752h-171z" />
    <glyph glyph-name="iacute" unicode="&#xed;" horiz-adv-x="363" 
d="M170 818l-47 80l250 154l65 -119zM30 0l131 752h172l-132 -752h-171z" />
    <glyph glyph-name="ibreve" unicode="&#x12d;" horiz-adv-x="363" 
d="M257 820c-108 0 -154 61 -154 138c0 12 1 24 4 38l93 3c0 -44 9 -84 64 -84c48 0 74 30 90 84l95 -3c-8 -103 -74 -176 -192 -176zM30 0l131 752h172l-132 -752h-171z" />
    <glyph glyph-name="icircumflex" unicode="&#xee;" horiz-adv-x="363" 
d="M124 805l-49 59l162 156h106l111 -166l-59 -49l-115 108zM30 0l131 752h172l-132 -752h-171z" />
    <glyph glyph-name="idieresis" unicode="&#xef;" horiz-adv-x="363" 
d="M139 836c-50 0 -69 21 -69 61c0 7 1 17 4 27c8 40 37 65 88 65c49 0 68 -21 68 -61c0 -7 -1 -17 -4 -27c-8 -40 -37 -65 -87 -65zM367 836c-49 0 -68 21 -68 61c0 7 1 17 3 27c9 40 38 65 88 65s69 -21 69 -61c0 -7 -2 -17 -4 -27c-8 -40 -37 -65 -88 -65zM30 0l131 752
h172l-132 -752h-171z" />
    <glyph glyph-name="i.loclTRK" horiz-adv-x="363" 
d="M263 831c-51 0 -71 22 -71 64c0 10 1 20 4 32c9 37 32 65 94 65c51 0 71 -22 71 -64c0 -10 -1 -20 -4 -32c-9 -37 -32 -65 -94 -65zM30 0l131 752h172l-132 -752h-171z" />
    <glyph glyph-name="igrave" unicode="&#xec;" horiz-adv-x="363" 
d="M361 818l-217 125l77 107l196 -157zM30 0l131 752h172l-132 -752h-171z" />
    <glyph glyph-name="ij" unicode="&#x133;" horiz-adv-x="839" 
d="M30 0l131 752h172l-132 -752h-171zM473 -15c-43 0 -93 6 -128 15l8 128c23 -6 55 -11 86 -11c35 0 62 7 81 25s29 45 37 91l91 519h171l-95 -546c-13 -76 -37 -127 -74 -162c-41 -39 -98 -59 -177 -59z" />
    <glyph glyph-name="imacron" unicode="&#x12b;" horiz-adv-x="363" 
d="M103 853l20 107h325l-20 -107h-325zM30 0l131 752h172l-132 -752h-171z" />
    <glyph glyph-name="iogonek" unicode="&#x12f;" horiz-adv-x="370" 
d="M50 -274c-81 0 -131 34 -131 106c0 74 56 136 119 175l130 745h172l-132 -752c-122 0 -175 -79 -175 -135c0 -36 21 -49 57 -49c22 0 47 5 65 10l-15 -85c-26 -9 -57 -15 -90 -15z" />
    <glyph glyph-name="itilde" unicode="&#x129;" horiz-adv-x="363" 
d="M140 838l-76 12c15 92 68 151 142 151c67 0 104 -48 150 -48c28 0 47 18 60 52l76 -12c-16 -92 -70 -150 -143 -150c-65 0 -103 47 -150 47c-28 0 -46 -18 -59 -52zM30 0l131 752h172l-132 -752h-171z" />
    <glyph glyph-name="j" unicode="j" horiz-adv-x="476" 
d="M110 -15c-43 0 -93 6 -128 15l8 128c23 -6 55 -11 86 -11c35 0 62 7 81 25s29 45 37 91l91 519h171l-95 -546c-13 -76 -37 -127 -74 -162c-41 -39 -98 -59 -177 -59z" />
    <glyph glyph-name="jcircumflex" unicode="&#x135;" horiz-adv-x="476" 
d="M237 805l-49 59l162 156h106l111 -166l-59 -49l-115 108zM110 -15c-43 0 -93 6 -128 15l8 128c23 -6 55 -11 86 -11c35 0 62 7 81 25s29 45 37 91l91 519h171l-95 -546c-13 -76 -37 -127 -74 -162c-41 -39 -98 -59 -177 -59z" />
    <glyph glyph-name="k" unicode="k" horiz-adv-x="737" 
d="M23 0l132 752h171l-53 -305l284 305h201l-306 -304l193 -448h-189l-132 321l-89 -89l-40 -232h-172z" />
    <glyph glyph-name="kcommaaccent" unicode="&#x137;" horiz-adv-x="737" 
d="M23 0l132 752h171l-53 -305l284 305h201l-306 -304l193 -448h-189l-132 321l-89 -89l-40 -232h-172zM203 -322l41 120c-33 5 -51 20 -51 56c0 17 5 46 19 65c16 22 41 31 74 31c28 0 44 -8 54 -18c11 -11 16 -28 16 -51c0 -55 -39 -143 -77 -203h-76z" />
    <glyph glyph-name="l" unicode="l" horiz-adv-x="634" 
d="M23 0l132 752h171l-111 -628h334l-21 -124h-505z" />
    <glyph glyph-name="lacute" unicode="&#x13a;" horiz-adv-x="634" 
d="M191 818l-47 80l250 154l65 -119zM23 0l132 752h171l-111 -628h334l-21 -124h-505z" />
    <glyph glyph-name="lcaron" unicode="&#x13e;" horiz-adv-x="651" 
d="M442 495l41 120c-33 5 -51 20 -51 56c0 17 5 46 19 65c16 22 41 31 74 31c28 0 44 -8 54 -18c11 -11 16 -28 16 -51c0 -55 -39 -143 -77 -203h-76zM23 0l132 752h171l-111 -628h334l-21 -124h-505z" />
    <glyph glyph-name="lcommaaccent" unicode="&#x13c;" horiz-adv-x="634" 
d="M23 0l132 752h171l-111 -628h334l-21 -124h-505zM176 -322l41 120c-33 5 -51 20 -51 56c0 17 5 46 19 65c16 22 41 31 74 31c28 0 44 -8 54 -18c11 -11 16 -28 16 -51c0 -55 -39 -143 -77 -203h-76z" />
    <glyph glyph-name="ldot" unicode="&#x140;" horiz-adv-x="652" 
d="M23 0l132 752h171l-111 -628h334l-21 -124h-505zM458 316c-51 0 -71 22 -71 64c0 10 1 20 4 32c9 37 32 65 94 65c51 0 71 -22 71 -64c0 -10 -1 -20 -4 -32c-9 -37 -32 -65 -94 -65z" />
    <glyph glyph-name="lslash" unicode="&#x142;" horiz-adv-x="700" 
d="M67 0l35 201l-60 -35l-58 99l144 85l71 402h172l-54 -301l131 77l57 -99l-214 -126l-32 -179h334l-21 -124h-505z" />
    <glyph glyph-name="m" unicode="m" horiz-adv-x="928" 
d="M23 0l132 752h132l161 -415l316 415h141l-132 -752h-157l76 439l-203 -267h-132l-110 281l-80 -453h-144z" />
    <glyph glyph-name="n" unicode="n" horiz-adv-x="811" 
d="M23 0l132 752h124l272 -492l87 492h151l-133 -752h-135l-265 468l-82 -468h-151z" />
    <glyph glyph-name="nacute" unicode="&#x144;" horiz-adv-x="811" 
d="M393 818l-47 80l250 154l65 -119zM23 0l132 752h124l272 -492l87 492h151l-133 -752h-135l-265 468l-82 -468h-151z" />
    <glyph glyph-name="ncaron" unicode="&#x148;" horiz-adv-x="811" 
d="M423 818l-111 167l59 48l114 -108l157 108l49 -58l-163 -157h-105zM23 0l132 752h124l272 -492l87 492h151l-133 -752h-135l-265 468l-82 -468h-151z" />
    <glyph glyph-name="ncommaaccent" unicode="&#x146;" horiz-adv-x="811" 
d="M23 0l132 752h124l272 -492l87 492h151l-133 -752h-135l-265 468l-82 -468h-151zM243 -322l41 120c-33 5 -51 20 -51 56c0 17 5 46 19 65c16 22 41 31 74 31c28 0 44 -8 54 -18c11 -11 16 -28 16 -51c0 -55 -39 -143 -77 -203h-76z" />
    <glyph glyph-name="eng" unicode="&#x14b;" horiz-adv-x="812" 
d="M395 -263c-41 0 -88 6 -120 13l7 118c27 -7 65 -10 94 -10s64 2 87 21c20 16 28 37 35 78l11 64l-253 447l-82 -468h-151l132 752h124l272 -492l87 492h151l-145 -821c-13 -74 -32 -111 -66 -141c-38 -34 -103 -53 -183 -53z" />
    <glyph glyph-name="ntilde" unicode="&#xf1;" horiz-adv-x="811" 
d="M363 838l-76 12c15 92 68 151 142 151c67 0 104 -48 150 -48c28 0 47 18 60 52l76 -12c-16 -92 -70 -150 -143 -150c-65 0 -103 47 -150 47c-28 0 -46 -18 -59 -52zM23 0l132 752h124l272 -492l87 492h151l-133 -752h-135l-265 468l-82 -468h-151z" />
    <glyph glyph-name="o" unicode="o" horiz-adv-x="784" 
d="M334 -15c-174 0 -293 87 -293 297c0 105 30 221 80 306c66 112 171 179 326 179c176 0 295 -86 295 -297c0 -102 -28 -220 -79 -307c-68 -117 -177 -178 -329 -178zM344 119c78 0 128 43 164 111c36 69 57 163 57 241c0 121 -50 161 -126 161c-77 0 -127 -42 -163 -111
s-57 -162 -57 -241c0 -120 49 -161 125 -161z" />
    <glyph glyph-name="oacute" unicode="&#xf3;" horiz-adv-x="784" 
d="M380 818l-47 80l250 154l65 -119zM334 -15c-174 0 -293 87 -293 297c0 105 30 221 80 306c66 112 171 179 326 179c176 0 295 -86 295 -297c0 -102 -28 -220 -79 -307c-68 -117 -177 -178 -329 -178zM344 119c78 0 128 43 164 111c36 69 57 163 57 241
c0 121 -50 161 -126 161c-77 0 -127 -42 -163 -111s-57 -162 -57 -241c0 -120 49 -161 125 -161z" />
    <glyph glyph-name="obreve" unicode="&#x14f;" horiz-adv-x="784" 
d="M479 820c-108 0 -154 61 -154 138c0 12 1 24 4 38l93 3c0 -44 9 -84 64 -84c48 0 74 30 90 84l95 -3c-8 -103 -74 -176 -192 -176zM334 -15c-174 0 -293 87 -293 297c0 105 30 221 80 306c66 112 171 179 326 179c176 0 295 -86 295 -297c0 -102 -28 -220 -79 -307
c-68 -117 -177 -178 -329 -178zM344 119c78 0 128 43 164 111c36 69 57 163 57 241c0 121 -50 161 -126 161c-77 0 -127 -42 -163 -111s-57 -162 -57 -241c0 -120 49 -161 125 -161z" />
    <glyph glyph-name="ocircumflex" unicode="&#xf4;" horiz-adv-x="784" 
d="M321 805l-49 59l162 156h106l111 -166l-59 -49l-115 108zM334 -15c-174 0 -293 87 -293 297c0 105 30 221 80 306c66 112 171 179 326 179c176 0 295 -86 295 -297c0 -102 -28 -220 -79 -307c-68 -117 -177 -178 -329 -178zM344 119c78 0 128 43 164 111
c36 69 57 163 57 241c0 121 -50 161 -126 161c-77 0 -127 -42 -163 -111s-57 -162 -57 -241c0 -120 49 -161 125 -161z" />
    <glyph glyph-name="odieresis" unicode="&#xf6;" horiz-adv-x="784" 
d="M349 836c-50 0 -69 21 -69 61c0 7 1 17 4 27c8 40 37 65 88 65c49 0 68 -21 68 -61c0 -7 -1 -17 -4 -27c-8 -40 -37 -65 -87 -65zM577 836c-49 0 -68 21 -68 61c0 7 1 17 3 27c9 40 38 65 88 65s69 -21 69 -61c0 -7 -2 -17 -4 -27c-8 -40 -37 -65 -88 -65zM334 -15
c-174 0 -293 87 -293 297c0 105 30 221 80 306c66 112 171 179 326 179c176 0 295 -86 295 -297c0 -102 -28 -220 -79 -307c-68 -117 -177 -178 -329 -178zM344 119c78 0 128 43 164 111c36 69 57 163 57 241c0 121 -50 161 -126 161c-77 0 -127 -42 -163 -111
s-57 -162 -57 -241c0 -120 49 -161 125 -161z" />
    <glyph glyph-name="ograve" unicode="&#xf2;" horiz-adv-x="784" 
d="M521 818l-217 125l77 107l196 -157zM334 -15c-174 0 -293 87 -293 297c0 105 30 221 80 306c66 112 171 179 326 179c176 0 295 -86 295 -297c0 -102 -28 -220 -79 -307c-68 -117 -177 -178 -329 -178zM344 119c78 0 128 43 164 111c36 69 57 163 57 241
c0 121 -50 161 -126 161c-77 0 -127 -42 -163 -111s-57 -162 -57 -241c0 -120 49 -161 125 -161z" />
    <glyph glyph-name="ohungarumlaut" unicode="&#x151;" horiz-adv-x="784" 
d="M336 818l-56 62l175 172l74 -85zM548 818l-54 65l197 169l72 -92zM334 -15c-174 0 -293 87 -293 297c0 105 30 221 80 306c66 112 171 179 326 179c176 0 295 -86 295 -297c0 -102 -28 -220 -79 -307c-68 -117 -177 -178 -329 -178zM344 119c78 0 128 43 164 111
c36 69 57 163 57 241c0 121 -50 161 -126 161c-77 0 -127 -42 -163 -111s-57 -162 -57 -241c0 -120 49 -161 125 -161z" />
    <glyph glyph-name="omacron" unicode="&#x14d;" horiz-adv-x="784" 
d="M313 853l20 107h325l-20 -107h-325zM334 -15c-174 0 -293 87 -293 297c0 105 30 221 80 306c66 112 171 179 326 179c176 0 295 -86 295 -297c0 -102 -28 -220 -79 -307c-68 -117 -177 -178 -329 -178zM344 119c78 0 128 43 164 111c36 69 57 163 57 241
c0 121 -50 161 -126 161c-77 0 -127 -42 -163 -111s-57 -162 -57 -241c0 -120 49 -161 125 -161z" />
    <glyph glyph-name="oslash" unicode="&#xf8;" horiz-adv-x="784" 
d="M94 -81l61 111c-78 49 -114 136 -114 254c0 103 30 219 80 304c68 115 174 179 325 179c40 0 74 -4 104 -12l41 78h96l-60 -110c71 -43 115 -127 115 -251c0 -107 -28 -221 -79 -309c-67 -116 -173 -178 -333 -178c-34 0 -67 4 -98 12l-42 -78h-96zM237 179l243 448
c-15 4 -28 5 -42 5c-76 0 -126 -42 -162 -111c-35 -66 -57 -160 -57 -240c0 -48 7 -76 18 -102zM344 119c77 0 128 43 164 111c36 69 57 162 57 239c0 45 -7 82 -20 105l-242 -450c13 -4 29 -5 41 -5z" />
    <glyph glyph-name="oslashacute" unicode="&#x1ff;" horiz-adv-x="784" 
d="M430 818l-47 80l250 154l65 -119zM94 -81l61 111c-78 49 -114 136 -114 254c0 103 30 219 80 304c68 115 174 179 325 179c40 0 74 -4 104 -12l41 78h96l-60 -110c71 -43 115 -127 115 -251c0 -107 -28 -221 -79 -309c-67 -116 -173 -178 -333 -178c-34 0 -67 4 -98 12
l-42 -78h-96zM237 179l243 448c-15 4 -28 5 -42 5c-76 0 -126 -42 -162 -111c-35 -66 -57 -160 -57 -240c0 -48 7 -76 18 -102zM344 119c77 0 128 43 164 111c36 69 57 162 57 239c0 45 -7 82 -20 105l-242 -450c13 -4 29 -5 41 -5z" />
    <glyph glyph-name="otilde" unicode="&#xf5;" horiz-adv-x="784" 
d="M350 838l-76 12c15 92 68 151 142 151c67 0 104 -48 150 -48c28 0 47 18 60 52l76 -12c-16 -92 -70 -150 -143 -150c-65 0 -103 47 -150 47c-28 0 -46 -18 -59 -52zM334 -15c-174 0 -293 87 -293 297c0 105 30 221 80 306c66 112 171 179 326 179c176 0 295 -86 295 -297
c0 -102 -28 -220 -79 -307c-68 -117 -177 -178 -329 -178zM344 119c78 0 128 43 164 111c36 69 57 163 57 241c0 121 -50 161 -126 161c-77 0 -127 -42 -163 -111s-57 -162 -57 -241c0 -120 49 -161 125 -161z" />
    <glyph glyph-name="oe" unicode="&#x153;" horiz-adv-x="1087" 
d="M384 0c-99 0 -211 17 -277 86c-47 49 -66 120 -66 208c0 134 40 261 123 346c87 89 208 112 344 112h587l-36 -124h-323l-32 -182h259l-23 -129h-259l-33 -193h341l-21 -124h-584zM391 125h85l88 502h-73c-94 0 -156 -22 -204 -92c-40 -57 -69 -144 -69 -238
c0 -50 9 -97 36 -127c24 -27 66 -45 137 -45z" />
    <glyph glyph-name="p" unicode="p" horiz-adv-x="696" 
d="M23 0l132 752h240c101 0 173 -24 216 -61c34 -30 62 -78 62 -155c0 -81 -31 -149 -76 -193c-60 -59 -153 -83 -269 -83h-88l-45 -260h-172zM263 388h69c48 0 89 8 121 32c34 26 50 68 50 110c0 29 -8 50 -20 64c-17 20 -48 34 -104 34h-75z" />
    <glyph glyph-name="thorn" unicode="&#xfe;" horiz-adv-x="696" 
d="M23 0l132 752h171l-22 -125h72c101 0 174 -24 217 -62c34 -29 61 -78 61 -155c0 -80 -31 -148 -76 -192c-60 -60 -152 -84 -269 -84h-91l-23 -134h-172zM241 263h72c49 0 89 8 121 32c34 26 50 67 50 109c0 29 -8 50 -20 65c-16 19 -47 34 -103 34h-79z" />
    <glyph glyph-name="q" unicode="q" horiz-adv-x="824" 
d="M673 -138l-142 80c-49 27 -112 43 -186 43h-11c-174 0 -293 87 -293 297c0 105 30 221 80 306c66 112 171 179 326 179c176 0 295 -86 295 -298c0 -99 -26 -214 -79 -306c-26 -45 -58 -82 -97 -110c75 -5 133 -19 192 -50c-18 -50 -48 -100 -85 -141zM344 119
c78 0 128 43 164 111c36 69 57 163 57 241c0 121 -50 161 -126 161c-77 0 -127 -42 -163 -111s-57 -162 -57 -241c0 -120 49 -161 125 -161z" />
    <glyph glyph-name="r" unicode="r" horiz-adv-x="731" 
d="M23 0l132 752h256c94 0 158 -20 199 -55c42 -36 64 -93 64 -158c0 -55 -16 -106 -41 -141s-73 -73 -135 -97l117 -301h-184l-88 273h-101l-47 -273h-172zM264 397h66c58 0 101 9 133 39c27 26 41 63 41 100c0 29 -9 52 -22 65c-15 15 -42 27 -92 27h-86z" />
    <glyph glyph-name="racute" unicode="&#x155;" horiz-adv-x="731" 
d="M333 818l-47 80l250 154l65 -119zM23 0l132 752h256c94 0 158 -20 199 -55c42 -36 64 -93 64 -158c0 -55 -16 -106 -41 -141s-73 -73 -135 -97l117 -301h-184l-88 273h-101l-47 -273h-172zM264 397h66c58 0 101 9 133 39c27 26 41 63 41 100c0 29 -9 52 -22 65
c-15 15 -42 27 -92 27h-86z" />
    <glyph glyph-name="rcaron" unicode="&#x159;" horiz-adv-x="731" 
d="M363 818l-111 167l59 48l114 -108l157 108l49 -58l-163 -157h-105zM23 0l132 752h256c94 0 158 -20 199 -55c42 -36 64 -93 64 -158c0 -55 -16 -106 -41 -141s-73 -73 -135 -97l117 -301h-184l-88 273h-101l-47 -273h-172zM264 397h66c58 0 101 9 133 39
c27 26 41 63 41 100c0 29 -9 52 -22 65c-15 15 -42 27 -92 27h-86z" />
    <glyph glyph-name="rcommaaccent" unicode="&#x157;" horiz-adv-x="731" 
d="M23 0l132 752h256c94 0 158 -20 199 -55c42 -36 64 -93 64 -158c0 -55 -16 -106 -41 -141s-73 -73 -135 -97l117 -301h-184l-88 273h-101l-47 -273h-172zM264 397h66c58 0 101 9 133 39c27 26 41 63 41 100c0 29 -9 52 -22 65c-15 15 -42 27 -92 27h-86zM200 -322l41 120
c-33 5 -51 20 -51 56c0 17 5 46 19 65c16 22 41 31 74 31c28 0 44 -8 54 -18c11 -11 16 -28 16 -51c0 -55 -39 -143 -77 -203h-76z" />
    <glyph glyph-name="s" unicode="s" horiz-adv-x="664" 
d="M260 -15c-81 0 -168 14 -252 45l34 127c61 -23 147 -40 217 -40c72 0 157 18 157 92c0 41 -26 69 -96 97l-65 26c-109 44 -165 104 -165 202c0 73 31 135 92 177c52 36 123 56 209 56c74 0 147 -15 222 -40l-43 -121c-60 18 -120 29 -173 29c-80 0 -143 -25 -143 -81
c0 -37 29 -62 111 -96l65 -27c106 -44 153 -105 153 -204c0 -72 -25 -135 -87 -180c-58 -42 -140 -62 -236 -62z" />
    <glyph glyph-name="sacute" unicode="&#x15b;" horiz-adv-x="664" 
d="M320 818l-47 80l250 154l65 -119zM260 -15c-81 0 -168 14 -252 45l34 127c61 -23 147 -40 217 -40c72 0 157 18 157 92c0 41 -26 69 -96 97l-65 26c-109 44 -165 104 -165 202c0 73 31 135 92 177c52 36 123 56 209 56c74 0 147 -15 222 -40l-43 -121
c-60 18 -120 29 -173 29c-80 0 -143 -25 -143 -81c0 -37 29 -62 111 -96l65 -27c106 -44 153 -105 153 -204c0 -72 -25 -135 -87 -180c-58 -42 -140 -62 -236 -62z" />
    <glyph glyph-name="scaron" unicode="&#x161;" horiz-adv-x="664" 
d="M350 818l-111 167l59 48l114 -108l157 108l49 -58l-163 -157h-105zM260 -15c-81 0 -168 14 -252 45l34 127c61 -23 147 -40 217 -40c72 0 157 18 157 92c0 41 -26 69 -96 97l-65 26c-109 44 -165 104 -165 202c0 73 31 135 92 177c52 36 123 56 209 56
c74 0 147 -15 222 -40l-43 -121c-60 18 -120 29 -173 29c-80 0 -143 -25 -143 -81c0 -37 29 -62 111 -96l65 -27c106 -44 153 -105 153 -204c0 -72 -25 -135 -87 -180c-58 -42 -140 -62 -236 -62z" />
    <glyph glyph-name="scedilla" unicode="&#x15f;" horiz-adv-x="664" 
d="M430 431c106 -44 153 -105 153 -204c0 -72 -25 -135 -87 -180c-49 -35 -115 -55 -192 -61c-1 -5 -3 -10 -3 -15c0 -12 12 -19 26 -26c56 -29 84 -45 84 -99c0 -39 -15 -69 -41 -90c-28 -23 -63 -33 -107 -33c-35 0 -74 6 -102 15l15 80c24 -6 49 -8 66 -8
c34 0 60 8 60 28s-25 27 -46 35c-47 17 -58 30 -58 57c0 2 0 6 1 12c2 12 9 29 19 44c-69 4 -140 18 -210 44l34 127c61 -23 147 -40 217 -40c72 0 157 18 157 92c0 41 -26 69 -96 97l-65 26c-109 44 -165 104 -165 202c0 73 31 135 92 177c52 36 123 56 209 56
c74 0 147 -15 222 -40l-43 -121c-60 18 -120 29 -173 29c-80 0 -143 -25 -143 -81c0 -37 29 -62 111 -96z" />
    <glyph glyph-name="scircumflex" unicode="&#x15d;" horiz-adv-x="664" 
d="M261 805l-49 59l162 156h106l111 -166l-59 -49l-115 108zM260 -15c-81 0 -168 14 -252 45l34 127c61 -23 147 -40 217 -40c72 0 157 18 157 92c0 41 -26 69 -96 97l-65 26c-109 44 -165 104 -165 202c0 73 31 135 92 177c52 36 123 56 209 56c74 0 147 -15 222 -40
l-43 -121c-60 18 -120 29 -173 29c-80 0 -143 -25 -143 -81c0 -37 29 -62 111 -96l65 -27c106 -44 153 -105 153 -204c0 -72 -25 -135 -87 -180c-58 -42 -140 -62 -236 -62z" />
    <glyph glyph-name="scommaaccent" unicode="&#x219;" horiz-adv-x="664" 
d="M260 -15c-81 0 -168 14 -252 45l34 127c61 -23 147 -40 217 -40c72 0 157 18 157 92c0 41 -26 69 -96 97l-65 26c-109 44 -165 104 -165 202c0 73 31 135 92 177c52 36 123 56 209 56c74 0 147 -15 222 -40l-43 -121c-60 18 -120 29 -173 29c-80 0 -143 -25 -143 -81
c0 -37 29 -62 111 -96l65 -27c106 -44 153 -105 153 -204c0 -72 -25 -135 -87 -180c-58 -42 -140 -62 -236 -62zM206 -322l41 120c-33 5 -51 20 -51 56c0 17 5 46 19 65c16 22 41 31 74 31c28 0 44 -8 54 -18c11 -11 16 -28 16 -51c0 -55 -39 -143 -77 -203h-76z" />
    <glyph glyph-name="t" unicode="t" horiz-adv-x="693" 
d="M194 0l110 628h-233l22 124h646l-36 -124h-227l-110 -628h-172z" />
    <glyph glyph-name="tbar" unicode="&#x167;" horiz-adv-x="732" 
d="M216 0l51 293h-138l20 107h138l39 228h-233l22 124h646l-35 -124h-228l-40 -228h138l-20 -107h-138l-50 -293h-172z" />
    <glyph glyph-name="tcaron" unicode="&#x165;" horiz-adv-x="693" 
d="M365 818l-111 167l59 48l114 -108l157 108l49 -58l-163 -157h-105zM194 0l110 628h-233l22 124h646l-36 -124h-227l-110 -628h-172z" />
    <glyph glyph-name="uni0163" unicode="&#x163;" horiz-adv-x="693" 
d="M194 0l110 628h-233l22 124h646l-36 -124h-227l-110 -628h-172zM177 -322l41 120c-33 5 -51 20 -51 56c0 17 5 46 19 65c16 22 41 31 74 31c28 0 44 -8 54 -18c11 -11 16 -28 16 -51c0 -55 -39 -143 -77 -203h-76z" />
    <glyph glyph-name="uni021B" unicode="&#x21b;" horiz-adv-x="693" 
d="M194 0l110 628h-233l22 124h646l-36 -124h-227l-110 -628h-172zM177 -322l41 120c-33 5 -51 20 -51 56c0 17 5 46 19 65c16 22 41 31 74 31c28 0 44 -8 54 -18c11 -11 16 -28 16 -51c0 -55 -39 -143 -77 -203h-76z" />
    <glyph glyph-name="u" unicode="u" 
d="M348 -15c-90 0 -159 20 -211 64c-54 46 -74 105 -74 184c0 35 4 71 13 121l71 398h168l-78 -442c-7 -42 -8 -63 -8 -75c0 -26 5 -56 23 -79c21 -27 56 -40 103 -40c60 0 97 21 119 46c24 27 40 66 53 137l80 453h154l-89 -504c-17 -96 -54 -155 -101 -194
c-61 -51 -137 -69 -223 -69z" />
    <glyph glyph-name="uacute" unicode="&#xfa;" 
d="M391 818l-47 80l250 154l65 -119zM348 -15c-90 0 -159 20 -211 64c-54 46 -74 105 -74 184c0 35 4 71 13 121l71 398h168l-78 -442c-7 -42 -8 -63 -8 -75c0 -26 5 -56 23 -79c21 -27 56 -40 103 -40c60 0 97 21 119 46c24 27 40 66 53 137l80 453h154l-89 -504
c-17 -96 -54 -155 -101 -194c-61 -51 -137 -69 -223 -69z" />
    <glyph glyph-name="ubreve" unicode="&#x16d;" 
d="M478 820c-108 0 -154 61 -154 138c0 12 1 24 4 38l93 3c0 -44 9 -84 64 -84c48 0 74 30 90 84l95 -3c-8 -103 -74 -176 -192 -176zM348 -15c-90 0 -159 20 -211 64c-54 46 -74 105 -74 184c0 35 4 71 13 121l71 398h168l-78 -442c-7 -42 -8 -63 -8 -75
c0 -26 5 -56 23 -79c21 -27 56 -40 103 -40c60 0 97 21 119 46c24 27 40 66 53 137l80 453h154l-89 -504c-17 -96 -54 -155 -101 -194c-61 -51 -137 -69 -223 -69z" />
    <glyph glyph-name="ucircumflex" unicode="&#xfb;" 
d="M332 805l-49 59l162 156h106l111 -166l-59 -49l-115 108zM348 -15c-90 0 -159 20 -211 64c-54 46 -74 105 -74 184c0 35 4 71 13 121l71 398h168l-78 -442c-7 -42 -8 -63 -8 -75c0 -26 5 -56 23 -79c21 -27 56 -40 103 -40c60 0 97 21 119 46c24 27 40 66 53 137l80 453
h154l-89 -504c-17 -96 -54 -155 -101 -194c-61 -51 -137 -69 -223 -69z" />
    <glyph glyph-name="udieresis" unicode="&#xfc;" 
d="M360 836c-50 0 -69 21 -69 61c0 7 1 17 4 27c8 40 37 65 88 65c49 0 68 -21 68 -61c0 -7 -1 -17 -4 -27c-8 -40 -37 -65 -87 -65zM588 836c-49 0 -68 21 -68 61c0 7 1 17 3 27c9 40 38 65 88 65s69 -21 69 -61c0 -7 -2 -17 -4 -27c-8 -40 -37 -65 -88 -65zM348 -15
c-90 0 -159 20 -211 64c-54 46 -74 105 -74 184c0 35 4 71 13 121l71 398h168l-78 -442c-7 -42 -8 -63 -8 -75c0 -26 5 -56 23 -79c21 -27 56 -40 103 -40c60 0 97 21 119 46c24 27 40 66 53 137l80 453h154l-89 -504c-17 -96 -54 -155 -101 -194c-61 -51 -137 -69 -223 -69
z" />
    <glyph glyph-name="ugrave" unicode="&#xf9;" 
d="M502 818l-217 125l77 107l196 -157zM348 -15c-90 0 -159 20 -211 64c-54 46 -74 105 -74 184c0 35 4 71 13 121l71 398h168l-78 -442c-7 -42 -8 -63 -8 -75c0 -26 5 -56 23 -79c21 -27 56 -40 103 -40c60 0 97 21 119 46c24 27 40 66 53 137l80 453h154l-89 -504
c-17 -96 -54 -155 -101 -194c-61 -51 -137 -69 -223 -69z" />
    <glyph glyph-name="uhungarumlaut" unicode="&#x171;" 
d="M347 818l-56 62l175 172l74 -85zM559 818l-54 65l197 169l72 -92zM348 -15c-90 0 -159 20 -211 64c-54 46 -74 105 -74 184c0 35 4 71 13 121l71 398h168l-78 -442c-7 -42 -8 -63 -8 -75c0 -26 5 -56 23 -79c21 -27 56 -40 103 -40c60 0 97 21 119 46c24 27 40 66 53 137
l80 453h154l-89 -504c-17 -96 -54 -155 -101 -194c-61 -51 -137 -69 -223 -69z" />
    <glyph glyph-name="umacron" unicode="&#x16b;" 
d="M324 853l20 107h325l-20 -107h-325zM348 -15c-90 0 -159 20 -211 64c-54 46 -74 105 -74 184c0 35 4 71 13 121l71 398h168l-78 -442c-7 -42 -8 -63 -8 -75c0 -26 5 -56 23 -79c21 -27 56 -40 103 -40c60 0 97 21 119 46c24 27 40 66 53 137l80 453h154l-89 -504
c-17 -96 -54 -155 -101 -194c-61 -51 -137 -69 -223 -69z" />
    <glyph glyph-name="uogonek" unicode="&#x173;" 
d="M328 -274c-80 0 -130 33 -130 108c0 61 36 113 97 153c-66 7 -118 28 -159 63c-55 46 -73 108 -73 184c0 32 4 72 13 120l71 398h168l-78 -442c-4 -26 -8 -53 -8 -72c0 -29 5 -59 23 -82c20 -26 54 -40 103 -40c60 0 97 21 119 46c22 24 40 64 53 137l80 453h154
l-89 -504c-17 -95 -53 -154 -101 -194c-44 -36 -97 -56 -152 -64c-76 -49 -108 -86 -108 -132c0 -29 21 -42 58 -42c22 0 46 5 65 10l-15 -85c-27 -9 -58 -15 -91 -15z" />
    <glyph glyph-name="uring" unicode="&#x16f;" 
d="M473 813c-83 0 -124 44 -124 107c0 35 8 72 30 101c27 35 72 51 130 51c83 0 124 -44 124 -107c0 -35 -8 -72 -30 -101c-27 -35 -72 -51 -130 -51zM481 884c25 0 45 7 57 25c8 12 13 30 13 47c0 28 -14 45 -50 45c-25 0 -45 -7 -57 -25c-8 -12 -13 -30 -13 -47
c0 -28 14 -45 50 -45zM348 -15c-90 0 -159 20 -211 64c-54 46 -74 105 -74 184c0 35 4 71 13 121l71 398h168l-78 -442c-7 -42 -8 -63 -8 -75c0 -26 5 -56 23 -79c21 -27 56 -40 103 -40c60 0 97 21 119 46c24 27 40 66 53 137l80 453h154l-89 -504
c-17 -96 -54 -155 -101 -194c-61 -51 -137 -69 -223 -69z" />
    <glyph glyph-name="utilde" unicode="&#x169;" 
d="M361 838l-76 12c15 92 68 151 142 151c67 0 104 -48 150 -48c28 0 47 18 60 52l76 -12c-16 -92 -70 -150 -143 -150c-65 0 -103 47 -150 47c-28 0 -46 -18 -59 -52zM348 -15c-90 0 -159 20 -211 64c-54 46 -74 105 -74 184c0 35 4 71 13 121l71 398h168l-78 -442
c-7 -42 -8 -63 -8 -75c0 -26 5 -56 23 -79c21 -27 56 -40 103 -40c60 0 97 21 119 46c24 27 40 66 53 137l80 453h154l-89 -504c-17 -96 -54 -155 -101 -194c-61 -51 -137 -69 -223 -69z" />
    <glyph glyph-name="v" unicode="v" horiz-adv-x="741" 
d="M220 0l-130 752h178l82 -554l262 554h176l-382 -752h-186z" />
    <glyph glyph-name="w" unicode="w" horiz-adv-x="1091" 
d="M181 0l-88 752h177l44 -554l231 554h144l52 -554l230 554h159l-335 -752h-186l-43 466l-199 -466h-186z" />
    <glyph glyph-name="wacute" unicode="&#x1e83;" horiz-adv-x="1091" 
d="M545 818l-47 80l250 154l65 -119zM181 0l-88 752h177l44 -554l231 554h144l52 -554l230 554h159l-335 -752h-186l-43 466l-199 -466h-186z" />
    <glyph glyph-name="wcircumflex" unicode="&#x175;" horiz-adv-x="1091" 
d="M486 805l-49 59l162 156h106l111 -166l-59 -49l-115 108zM181 0l-88 752h177l44 -554l231 554h144l52 -554l230 554h159l-335 -752h-186l-43 466l-199 -466h-186z" />
    <glyph glyph-name="wdieresis" unicode="&#x1e85;" horiz-adv-x="1091" 
d="M514 836c-50 0 -69 21 -69 61c0 7 1 17 4 27c8 40 37 65 88 65c49 0 68 -21 68 -61c0 -7 -1 -17 -4 -27c-8 -40 -37 -65 -87 -65zM742 836c-49 0 -68 21 -68 61c0 7 1 17 3 27c9 40 38 65 88 65s69 -21 69 -61c0 -7 -2 -17 -4 -27c-8 -40 -37 -65 -88 -65zM181 0l-88 752
h177l44 -554l231 554h144l52 -554l230 554h159l-335 -752h-186l-43 466l-199 -466h-186z" />
    <glyph glyph-name="wgrave" unicode="&#x1e81;" horiz-adv-x="1091" 
d="M736 818l-217 125l77 107l196 -157zM181 0l-88 752h177l44 -554l231 554h144l52 -554l230 554h159l-335 -752h-186l-43 466l-199 -466h-186z" />
    <glyph glyph-name="x" unicode="x" horiz-adv-x="719" 
d="M-49 0l316 391l-153 361h186l91 -237l186 237h183l-303 -374l162 -378h-186l-100 255l-200 -255h-182z" />
    <glyph glyph-name="y" unicode="y" horiz-adv-x="751" 
d="M218 0l54 307l-182 445h183l112 -305l225 305h182l-348 -446l-54 -306h-172z" />
    <glyph glyph-name="yacute" unicode="&#xfd;" horiz-adv-x="751" 
d="M376 818l-47 80l250 154l65 -119zM218 0l54 307l-182 445h183l112 -305l225 305h182l-348 -446l-54 -306h-172z" />
    <glyph glyph-name="ycircumflex" unicode="&#x177;" horiz-adv-x="751" 
d="M317 805l-49 59l162 156h106l111 -166l-59 -49l-115 108zM218 0l54 307l-182 445h183l112 -305l225 305h182l-348 -446l-54 -306h-172z" />
    <glyph glyph-name="ydieresis" unicode="&#xff;" horiz-adv-x="751" 
d="M345 836c-50 0 -69 21 -69 61c0 7 1 17 4 27c8 40 37 65 88 65c49 0 68 -21 68 -61c0 -7 -1 -17 -4 -27c-8 -40 -37 -65 -87 -65zM573 836c-49 0 -68 21 -68 61c0 7 1 17 3 27c9 40 38 65 88 65s69 -21 69 -61c0 -7 -2 -17 -4 -27c-8 -40 -37 -65 -88 -65zM218 0l54 307
l-182 445h183l112 -305l225 305h182l-348 -446l-54 -306h-172z" />
    <glyph glyph-name="ygrave" unicode="&#x1ef3;" horiz-adv-x="751" 
d="M463 818l-217 125l77 107l196 -157zM218 0l54 307l-182 445h183l112 -305l225 305h182l-348 -446l-54 -306h-172z" />
    <glyph glyph-name="z" unicode="z" horiz-adv-x="670" 
d="M-21 0l17 101l453 525h-349l22 126h565l-18 -105l-449 -520h359l-22 -127h-578z" />
    <glyph glyph-name="zacute" unicode="&#x17a;" horiz-adv-x="670" 
d="M328 818l-47 80l250 154l65 -119zM-21 0l17 101l453 525h-349l22 126h565l-18 -105l-449 -520h359l-22 -127h-578z" />
    <glyph glyph-name="zcaron" unicode="&#x17e;" horiz-adv-x="670" 
d="M358 818l-111 167l59 48l114 -108l157 108l49 -58l-163 -157h-105zM-21 0l17 101l453 525h-349l22 126h565l-18 -105l-449 -520h359l-22 -127h-578z" />
    <glyph glyph-name="zdotaccent" unicode="&#x17c;" horiz-adv-x="670" 
d="M421 831c-51 0 -71 22 -71 64c0 10 1 20 4 32c9 37 32 65 94 65c51 0 71 -22 71 -64c0 -10 -1 -20 -4 -32c-9 -37 -32 -65 -94 -65zM-21 0l17 101l453 525h-349l22 126h565l-18 -105l-449 -520h359l-22 -127h-578z" />
    <glyph glyph-name="uni0394" unicode="&#x394;" horiz-adv-x="774" 
d="M-10 0l14 84c3 19 6 28 19 52l327 616h179l116 -612c4 -20 6 -39 2 -64l-14 -76h-643zM176 109h317l-77 470z" />
    <glyph glyph-name="uni03A9" unicode="&#x3a9;" horiz-adv-x="824" 
d="M16 0l19 109h140c-56 53 -106 143 -106 268c0 119 45 230 127 303c70 62 156 87 251 87c211 0 313 -125 313 -299c0 -95 -30 -179 -79 -244c-31 -41 -77 -83 -130 -115h131l-19 -109h-287l12 71c4 25 10 32 32 54c77 78 167 170 167 332c0 115 -45 178 -141 178
c-52 0 -96 -19 -132 -58c-38 -41 -78 -117 -78 -228c0 -93 28 -156 62 -216c14 -24 19 -35 19 -48c0 -9 -2 -20 -6 -42l-8 -43h-287z" />
    <glyph glyph-name="pi" unicode="&#x3c0;" horiz-adv-x="728" 
d="M57 0l74 429h-93l20 110h675l-20 -110h-93l-75 -429h-148l74 429h-191l-75 -429h-148z" />
    <glyph glyph-name="zero" unicode="0" horiz-adv-x="684" 
d="M280 -15c-167 0 -244 112 -244 300c0 126 35 251 95 339c77 112 179 143 266 143c166 0 243 -114 243 -300c0 -128 -36 -251 -96 -339c-77 -113 -178 -143 -264 -143zM287 111c44 0 88 30 124 89c37 61 68 154 68 269c0 102 -24 171 -91 171c-39 0 -84 -24 -124 -89
c-37 -60 -68 -154 -68 -268c0 -102 25 -172 91 -172z" />
    <glyph glyph-name="one" unicode="1" horiz-adv-x="724" 
d="M91 0l19 110h129l94 533h-124l18 107c57 8 135 13 172 13c69 0 99 -18 99 -64c0 -12 -2 -25 -8 -56l-93 -533h105l-18 -110h-393z" />
    <glyph glyph-name="two" unicode="2" horiz-adv-x="689" 
d="M21 0c-3 8 -3 14 -3 20c0 35 10 74 52 115l229 229c99 99 131 148 131 199c0 64 -48 80 -113 80c-49 0 -108 -9 -174 -25l21 122c50 16 124 27 186 27c81 0 155 -19 200 -67c27 -29 43 -69 43 -121c0 -85 -43 -156 -167 -274l-201 -191h294l-20 -114h-478z" />
    <glyph glyph-name="three" unicode="3" horiz-adv-x="694" 
d="M224 -15c-73 0 -133 11 -185 24l21 119c44 -12 102 -20 155 -20c52 0 96 8 130 30c35 23 50 55 50 91c0 33 -12 59 -34 75c-20 14 -53 25 -123 25h-31l20 110h27c36 0 115 7 156 52c15 17 25 38 25 66s-10 48 -25 61c-19 16 -48 25 -99 25c-49 0 -95 -8 -154 -22l22 124
c64 14 114 22 168 22c99 0 162 -27 200 -67c35 -37 47 -85 47 -126c0 -84 -52 -152 -134 -185c61 -28 98 -83 98 -161c0 -59 -21 -122 -77 -169c-61 -51 -153 -74 -257 -74z" />
    <glyph glyph-name="four" unicode="4" horiz-adv-x="685" 
d="M321 0l30 173h-327c-2 7 -2 13 -2 16c0 9 0 22 3 37c4 22 13 49 41 100l231 426h155l-251 -462h171l31 180h158l-32 -180h88l-21 -117h-88l-30 -173h-157z" />
    <glyph glyph-name="five" unicode="5" horiz-adv-x="690" 
d="M227 -15c-55 0 -120 7 -182 24l21 119c43 -12 103 -20 153 -20c126 0 190 51 190 146c0 48 -16 95 -137 95h-145c-2 9 -2 15 -2 18c0 11 2 31 10 68l69 317h411l-20 -112h-276l-36 -169h48c151 0 242 -72 242 -208c0 -150 -110 -278 -346 -278z" />
    <glyph glyph-name="six" unicode="6" horiz-adv-x="692" 
d="M307 -15c-157 0 -245 99 -245 284c0 150 58 320 174 417c65 55 143 81 238 81c56 0 106 -9 151 -20l-21 -120c-39 11 -75 16 -111 16c-58 0 -122 -13 -174 -74c-24 -28 -50 -71 -67 -120c42 19 91 33 146 33c117 0 204 -64 204 -208c0 -85 -30 -165 -90 -218
c-50 -44 -122 -71 -205 -71zM318 105c30 0 61 11 88 41c19 21 40 56 40 112c0 74 -37 105 -106 105c-33 0 -73 -7 -114 -19c-4 -25 -6 -53 -6 -79c0 -107 34 -160 98 -160z" />
    <glyph glyph-name="seven" unicode="7" horiz-adv-x="702" 
d="M147 0l339 640h-345l19 112h491c2 -4 3 -12 3 -20c0 -30 -12 -71 -43 -133l-299 -599h-165z" />
    <glyph glyph-name="eight" unicode="8" horiz-adv-x="686" 
d="M305 -15c-167 0 -272 81 -272 200c0 91 61 160 184 211c-47 35 -78 90 -78 158c0 121 99 213 255 213c133 0 231 -66 231 -181c0 -90 -59 -148 -158 -197c74 -50 118 -102 118 -187c0 -139 -116 -217 -280 -217zM376 448c59 35 104 71 104 122c0 45 -34 78 -90 78
c-55 0 -100 -31 -100 -84c0 -35 20 -73 86 -116zM305 107c69 0 118 38 118 93c0 35 -20 71 -77 107l-40 25c-66 -35 -113 -78 -113 -134c0 -54 44 -91 112 -91z" />
    <glyph glyph-name="nine" unicode="9" horiz-adv-x="692" 
d="M209 -15c-49 0 -103 7 -142 19l21 120c30 -9 71 -16 107 -16c77 0 123 19 167 64c31 32 56 73 76 123c-42 -17 -87 -26 -134 -26c-133 0 -214 73 -214 214c0 97 39 167 86 211s114 73 199 73c184 0 255 -136 255 -299c0 -145 -56 -302 -162 -395
c-66 -58 -150 -88 -259 -88zM357 388c36 0 74 7 109 20c4 24 6 50 6 76c0 85 -21 163 -100 163c-47 0 -79 -28 -98 -57c-18 -28 -28 -59 -28 -98c0 -67 30 -104 111 -104z" />
    <glyph glyph-name="fraction" unicode="&#x2044;" horiz-adv-x="563" 
d="M-57 -15l538 782h139l-539 -782h-138z" />
    <glyph glyph-name="onehalf" unicode="&#xbd;" horiz-adv-x="1156" 
d="M233 -15l538 782h139l-539 -782h-138zM134 314l16 87h79l46 264h-75l16 87c34 3 99 6 125 6c37 0 62 -6 62 -36c0 -9 -2 -22 -8 -54l-47 -267h61l-15 -87h-260zM659 0c0 6 0 24 3 41c5 30 16 51 56 85l94 81c63 54 82 71 82 98c0 33 -28 46 -71 46c-17 0 -48 -2 -83 -7
l16 93c35 7 72 11 104 11c98 0 160 -38 160 -120c0 -63 -37 -99 -110 -160l-95 -80h176l-16 -88h-316z" />
    <glyph glyph-name="onequarter" unicode="&#xbc;" horiz-adv-x="1154" 
d="M228 -15l538 782h139l-539 -782h-138zM128 314l16 87h79l46 264h-75l16 87c34 3 99 6 125 6c37 0 62 -6 62 -36c0 -9 -2 -22 -8 -54l-47 -267h61l-15 -87h-260zM832 0l17 95h-208c-1 3 -2 7 -2 14c0 23 9 45 31 89l124 243h125l-132 -254h79l20 97h109l-20 -97h43
l-16 -92h-43l-17 -95h-110z" />
    <glyph glyph-name="threequarters" unicode="&#xbe;" horiz-adv-x="1152" 
d="M229 -15l538 782h139l-539 -782h-138zM223 308c-31 0 -72 4 -107 12l15 88c23 -4 52 -7 82 -7c42 0 100 6 100 57c0 33 -25 41 -72 41h-27l14 80h31c35 0 75 10 75 45c0 31 -29 41 -76 41c-21 0 -55 -2 -77 -6l15 87c22 6 56 11 92 11c101 0 165 -40 165 -112
c0 -42 -22 -80 -72 -104c39 -19 57 -49 57 -89c0 -96 -108 -144 -215 -144zM833 0l18 95h-208c-1 3 -3 7 -3 14c0 23 9 45 31 89l125 243h124l-132 -254h79l20 97h109l-20 -97h43l-15 -92h-43l-18 -95h-110z" />
    <glyph glyph-name="uni00B9" unicode="&#xb9;" horiz-adv-x="620" 
d="M176 383l16 87h79l46 264h-75l16 87c34 3 99 6 125 6c37 0 62 -6 62 -36c0 -9 -2 -22 -8 -54l-47 -267h61l-15 -87h-260z" />
    <glyph glyph-name="uni00B2" unicode="&#xb2;" horiz-adv-x="601" 
d="M139 378c0 6 0 24 3 41c5 30 16 51 56 85l94 81c63 54 82 71 82 98c0 33 -28 46 -71 46c-17 0 -48 -2 -83 -7l16 93c35 7 72 11 104 11c98 0 160 -38 160 -120c0 -63 -37 -99 -110 -160l-95 -80h176l-16 -88h-316z" />
    <glyph glyph-name="uni00B3" unicode="&#xb3;" horiz-adv-x="607" 
d="M276 377c-31 0 -72 4 -107 12l15 88c23 -4 52 -7 82 -7c42 0 100 6 100 57c0 33 -25 41 -72 41h-27l14 80h31c35 0 75 10 75 45c0 31 -29 41 -76 41c-21 0 -55 -2 -77 -6l15 87c22 6 56 11 92 11c101 0 165 -40 165 -112c0 -42 -22 -80 -72 -104c39 -19 57 -49 57 -89
c0 -96 -108 -144 -215 -144z" />
    <glyph glyph-name="asterisk" unicode="*" horiz-adv-x="534" 
d="M185 318l-81 78l131 117l-144 42l54 106l127 -69l11 160h112l-41 -160l152 65l14 -103l-155 -41l91 -125l-100 -70l-62 150z" />
    <glyph glyph-name="backslash" unicode="\" horiz-adv-x="581" 
d="M317 -15l-194 782h138l193 -782h-137z" />
    <glyph glyph-name="periodcentered" unicode="&#xb7;" horiz-adv-x="293" 
d="M140 293c-50 0 -74 22 -74 61c0 9 1 19 4 33c11 45 41 71 96 71c50 0 75 -22 75 -62c0 -9 -2 -19 -5 -33c-11 -45 -40 -70 -96 -70z" />
    <glyph glyph-name="bullet" unicode="&#x2022;" horiz-adv-x="444" 
d="M197 221c-95 0 -141 41 -141 115c0 17 2 36 8 63c21 86 78 135 182 135c95 0 143 -42 143 -118c0 -17 -4 -36 -10 -63c-21 -85 -76 -132 -182 -132z" />
    <glyph glyph-name="colon" unicode=":" horiz-adv-x="283" 
d="M124 293c-50 0 -74 22 -74 61c0 9 1 19 4 33c11 45 41 71 96 71c50 0 75 -22 75 -62c0 -9 -2 -19 -5 -33c-11 -45 -40 -70 -96 -70zM68 -15c-50 0 -74 22 -74 61c0 9 1 19 4 33c11 45 41 71 96 71c50 0 75 -22 75 -62c0 -9 -2 -19 -5 -33c-11 -45 -40 -70 -96 -70z" />
    <glyph glyph-name="comma" unicode="," horiz-adv-x="300" 
d="M16 -175l30 161c-35 5 -55 23 -55 60c0 29 11 70 40 88c16 11 38 16 60 16c28 0 45 -7 59 -20c12 -12 16 -32 16 -53c0 -65 -39 -183 -72 -252h-78z" />
    <glyph glyph-name="ellipsis" unicode="&#x2026;" horiz-adv-x="821" 
d="M68 -15c-50 0 -74 22 -74 61c0 9 1 19 4 33c11 45 41 71 96 71c50 0 75 -22 75 -62c0 -9 -2 -19 -5 -33c-11 -45 -40 -70 -96 -70zM331 -15c-50 0 -74 22 -74 61c0 9 1 19 4 33c11 45 41 71 96 71c50 0 75 -22 75 -62c0 -9 -2 -19 -5 -33c-11 -45 -40 -70 -96 -70z
M593 -15c-50 0 -74 22 -74 61c0 9 1 19 4 33c11 45 41 71 96 71c50 0 75 -22 75 -62c0 -9 -2 -19 -5 -33c-11 -45 -40 -70 -96 -70z" />
    <glyph glyph-name="exclam" unicode="!" horiz-adv-x="337" 
d="M86 235l68 517h165l-116 -517h-117zM104 -15c-50 0 -75 22 -75 61c0 9 1 19 5 33c11 45 40 71 95 71c51 0 75 -22 75 -62c0 -9 -1 -19 -4 -33c-11 -45 -41 -70 -96 -70z" />
    <glyph glyph-name="exclamdown" unicode="&#xa1;" horiz-adv-x="338" 
d="M215 767c50 0 75 -22 75 -61c0 -9 -1 -19 -5 -33c-11 -45 -40 -71 -95 -71c-51 0 -75 22 -75 62c0 9 1 19 4 33c11 45 41 70 96 70zM233 517l-68 -517h-165l116 517h117z" />
    <glyph glyph-name="numbersign" unicode="#" horiz-adv-x="675" 
d="M27 0l83 224h-71l18 100h91l39 104h-109l17 100h129l84 224h117l-83 -224h102l84 224h117l-83 -224h71l-17 -100h-92l-38 -104h109l-18 -100h-130l-82 -224h-118l83 224h-103l-82 -224h-118zM266 324h102l39 104h-103z" />
    <glyph glyph-name="period" unicode="." horiz-adv-x="295" 
d="M71 -15c-50 0 -74 22 -74 61c0 9 1 19 4 33c11 45 41 71 96 71c50 0 75 -22 75 -62c0 -9 -2 -19 -5 -33c-11 -45 -40 -70 -96 -70z" />
    <glyph glyph-name="question" unicode="?" horiz-adv-x="505" 
d="M140 237c9 89 45 127 95 180c54 56 84 89 84 142c0 48 -26 80 -96 80c-36 0 -74 -9 -111 -20l-9 118c52 19 112 30 174 30c142 0 216 -59 216 -170c0 -92 -52 -154 -106 -202c-95 -85 -109 -100 -132 -158h-115zM157 -15c-50 0 -75 22 -75 61c0 9 1 19 5 33
c11 45 40 71 95 71c51 0 75 -22 75 -62c0 -9 -1 -19 -4 -33c-11 -45 -41 -70 -96 -70z" />
    <glyph glyph-name="questiondown" unicode="&#xbf;" horiz-adv-x="504" 
d="M324 766c50 0 75 -22 75 -61c0 -9 -1 -19 -5 -33c-11 -45 -40 -71 -95 -71c-51 0 -75 22 -75 62c0 9 1 19 4 33c11 45 41 70 96 70zM341 514c-9 -89 -45 -127 -95 -180c-54 -56 -84 -89 -84 -142c0 -48 26 -80 96 -80c36 0 74 9 111 20l9 -118c-52 -19 -112 -30 -174 -30
c-142 0 -216 59 -216 170c0 92 52 154 106 202c95 85 109 100 132 158h115z" />
    <glyph glyph-name="quotedbl" unicode="&#x22;" horiz-adv-x="562" 
d="M133 462l32 290h152l-68 -290h-116zM369 462l32 290h152l-68 -290h-116z" />
    <glyph glyph-name="quotesingle" unicode="'" horiz-adv-x="327" 
d="M128 462l32 290h152l-68 -290h-116z" />
    <glyph glyph-name="semicolon" unicode=";" horiz-adv-x="287" 
d="M126 293c-50 0 -74 22 -74 61c0 9 1 19 4 33c11 45 41 71 96 71c50 0 75 -22 75 -62c0 -9 -2 -19 -5 -33c-11 -45 -40 -70 -96 -70zM21 -175l30 161c-35 5 -55 23 -55 60c0 29 11 70 40 88c16 11 38 16 60 16c28 0 45 -7 59 -20c12 -12 16 -32 16 -53
c0 -65 -39 -183 -72 -252h-78z" />
    <glyph glyph-name="slash" unicode="/" horiz-adv-x="553" 
d="M-35 -15l469 782h153l-469 -782h-153z" />
    <glyph glyph-name="underscore" unicode="_" horiz-adv-x="514" 
d="M-68 -138l20 107h472l-20 -107h-472z" />
    <glyph glyph-name="braceleft" unicode="{" horiz-adv-x="454" 
d="M246 -140c-100 0 -154 39 -154 124c0 26 5 59 12 97l21 113c4 20 5 26 5 36c0 60 -36 79 -112 87l21 114c90 9 136 33 151 117l30 160c26 141 85 180 208 180h69l-20 -110h-15c-46 0 -65 -11 -74 -60l-32 -169c-18 -97 -60 -145 -147 -175c57 -21 88 -58 88 -120
c0 -19 -3 -43 -11 -84l-26 -135c-2 -13 -3 -20 -3 -27c0 -31 19 -38 53 -38h22l-20 -110h-66z" />
    <glyph glyph-name="braceright" unicode="}" horiz-adv-x="457" 
d="M-48 -140l19 110h16c46 0 65 11 74 60l31 169c17 91 59 145 148 175c-55 20 -88 56 -88 119c0 19 3 43 11 84l25 136c2 13 4 20 4 29c0 29 -19 36 -53 36h-22l20 110h66c102 0 153 -39 153 -129c0 -25 -4 -50 -12 -92l-21 -113c-3 -18 -4 -29 -4 -38
c0 -54 32 -77 111 -85l-21 -114c-89 -9 -135 -33 -150 -117l-30 -160c-26 -141 -86 -180 -208 -180h-69z" />
    <glyph glyph-name="bracketleft" unicode="[" horiz-adv-x="429" 
d="M8 -140l189 1028h278l-20 -110h-112l-150 -808h113l-20 -110h-278z" />
    <glyph glyph-name="bracketright" unicode="]" horiz-adv-x="431" 
d="M-48 -140l19 110h113l150 808h-113l20 110h278l-189 -1028h-278z" />
    <glyph glyph-name="parenleft" unicode="(" horiz-adv-x="428" 
d="M210 -162c-94 114 -147 248 -147 419c0 225 91 459 325 656l96 -67c-170 -195 -250 -392 -250 -600c0 -123 28 -230 82 -341z" />
    <glyph glyph-name="parenright" unicode=")" horiz-adv-x="425" 
d="M46 -162l-96 67c171 195 250 392 250 600c0 123 -27 230 -81 341l105 67c95 -113 148 -248 148 -419c0 -225 -92 -459 -326 -656z" />
    <glyph glyph-name="emdash" unicode="&#x2014;" horiz-adv-x="1000" 
d="M0 309l23 129h977l-23 -129h-977z" />
    <glyph glyph-name="endash" unicode="&#x2013;" horiz-adv-x="500" 
d="M0 309l23 129h477l-23 -129h-477z" />
    <glyph glyph-name="hyphen" unicode="-" horiz-adv-x="394" 
d="M52 309l23 129h266l-23 -129h-266z" />
    <glyph glyph-name="uni00AD" unicode="&#xad;" horiz-adv-x="394" 
d="M52 309l23 129h266l-23 -129h-266z" />
    <glyph glyph-name="guillemotleft" unicode="&#xab;" horiz-adv-x="653" 
d="M230 124l-133 182c-17 23 -28 44 -28 66c0 27 17 49 42 71l202 180l60 -57l-172 -197l104 -201zM477 124l-133 182c-18 25 -27 47 -27 66c0 27 17 48 42 71l202 180l59 -57l-171 -197l103 -201z" />
    <glyph glyph-name="guillemotright" unicode="&#xbb;" horiz-adv-x="653" 
d="M92 124l-59 57l171 197l-103 201l75 44l133 -182c18 -25 27 -47 27 -66c0 -27 -17 -48 -42 -71zM340 124l-60 57l172 197l-104 201l75 44l133 -182c17 -23 28 -44 28 -66c0 -27 -17 -49 -42 -71z" />
    <glyph glyph-name="guilsinglleft" unicode="&#x2039;" horiz-adv-x="404" 
d="M230 124l-133 182c-17 23 -28 44 -28 66c0 27 17 49 42 71l202 180l60 -57l-172 -197l104 -201z" />
    <glyph glyph-name="guilsinglright" unicode="&#x203a;" horiz-adv-x="405" 
d="M92 124l-59 56l171 198l-103 201l74 44l134 -182c16 -22 27 -45 27 -67c0 -28 -18 -49 -42 -70z" />
    <glyph glyph-name="quotedblbase" unicode="&#x201e;" horiz-adv-x="513" 
d="M7 -175l33 161c-35 5 -55 23 -55 60c0 29 11 70 40 88c17 11 39 16 61 16c27 0 45 -7 58 -20c12 -12 15 -31 15 -53c0 -49 -25 -146 -52 -216c-8 -21 -28 -36 -55 -36h-45zM232 -175l33 161c-35 5 -55 23 -55 60c0 29 11 70 40 88c16 11 38 16 60 16c27 0 45 -7 58 -20
c12 -12 16 -31 16 -53c0 -49 -26 -146 -53 -216c-8 -21 -28 -36 -55 -36h-44z" />
    <glyph glyph-name="quotedblleft" unicode="&#x201c;" horiz-adv-x="505" 
d="M167 442c-28 0 -45 7 -58 20c-13 12 -16 31 -16 53c0 49 25 146 53 215c8 21 27 37 55 37h44l-33 -161c35 -5 55 -23 55 -60c0 -29 -11 -70 -40 -88c-16 -11 -38 -16 -60 -16zM391 442c-27 0 -45 7 -58 20c-12 12 -16 31 -16 53c0 49 26 146 53 215c8 21 28 37 55 37h44
l-33 -161c36 -5 55 -23 55 -60c0 -29 -11 -70 -39 -88c-17 -11 -39 -16 -61 -16z" />
    <glyph glyph-name="quotedblright" unicode="&#x201d;" horiz-adv-x="490" 
d="M115 441l33 161c-35 5 -55 23 -55 60c0 29 11 70 40 88c16 11 38 16 60 16c28 0 45 -7 59 -20c12 -12 15 -31 15 -53c0 -50 -25 -146 -53 -216c-8 -20 -27 -36 -55 -36h-44zM339 441l34 161c-36 5 -56 23 -56 60c0 29 11 70 40 88c17 11 39 16 61 16c27 0 45 -7 58 -20
c12 -12 15 -31 15 -53c0 -50 -25 -146 -52 -216c-8 -20 -28 -36 -55 -36h-45z" />
    <glyph glyph-name="quoteleft" unicode="&#x2018;" horiz-adv-x="281" 
d="M167 441c-28 0 -45 7 -58 20c-13 12 -16 31 -16 53c0 49 25 146 53 215c8 21 27 37 55 37h44l-33 -161c35 -6 55 -23 55 -61c0 -28 -11 -69 -40 -87c-16 -11 -38 -16 -60 -16z" />
    <glyph glyph-name="quoteright" unicode="&#x2019;" horiz-adv-x="266" 
d="M115 441l33 161c-35 5 -55 23 -55 60c0 29 11 70 40 88c16 11 38 16 60 16c28 0 45 -7 59 -20c12 -12 15 -31 15 -53c0 -50 -25 -146 -53 -216c-8 -20 -27 -36 -55 -36h-44z" />
    <glyph glyph-name="quotesinglbase" unicode="&#x201a;" horiz-adv-x="288" 
d="M7 -175l33 161c-35 5 -55 23 -55 60c0 29 11 70 40 88c17 11 39 16 61 16c27 0 45 -7 58 -20c12 -12 15 -31 15 -53c0 -49 -25 -146 -52 -216c-8 -21 -28 -36 -55 -36h-45z" />
    <glyph glyph-name="space" unicode=" " horiz-adv-x="240" 
 />
    <glyph glyph-name="uni00A0" unicode="&#xa0;" horiz-adv-x="240" 
 />
    <glyph glyph-name="CR" unicode="&#xd;" horiz-adv-x="240" 
 />
    <glyph glyph-name=".null" horiz-adv-x="0" 
 />
    <glyph glyph-name="cent" unicode="&#xa2;" horiz-adv-x="706" 
d="M258 -141l23 130c-102 18 -185 79 -185 231c0 103 39 189 93 243c59 60 132 78 191 87l22 130h100l-22 -128c41 -3 78 -9 113 -19l-20 -117c-40 10 -86 17 -123 17c-55 0 -95 -15 -127 -46c-46 -45 -61 -110 -61 -163c0 -84 37 -121 136 -121c40 0 89 6 125 13l-20 -114
c-36 -10 -79 -15 -123 -16l-22 -127h-100z" />
    <glyph glyph-name="dollar" unicode="$" horiz-adv-x="683" 
d="M199 -141l22 127c-67 4 -138 18 -207 44l34 127c62 -23 147 -40 219 -40c70 0 154 16 154 91c0 42 -26 69 -95 97l-64 26c-114 46 -166 108 -166 202c0 74 33 138 92 178c43 29 103 48 170 54l21 115h100l-20 -117c52 -5 104 -17 160 -36l-43 -121
c-59 18 -120 29 -173 29c-80 0 -141 -25 -141 -81c0 -37 28 -62 110 -96l65 -27c109 -45 153 -110 153 -203c0 -71 -25 -136 -87 -181c-44 -32 -107 -54 -182 -60l-22 -128h-100z" />
    <glyph glyph-name="Euro" unicode="&#x20ac;" horiz-adv-x="671" 
d="M374 -15c-177 0 -274 81 -282 257h-99l15 77l83 11c1 19 4 36 7 55h-79l14 78l86 10c18 59 44 106 72 144c77 104 179 150 317 150c68 0 120 -11 171 -27l-21 -125c-42 11 -88 19 -129 19c-74 0 -149 -27 -197 -96c-9 -13 -24 -38 -34 -64h166l-15 -89h-174
c-4 -16 -7 -35 -8 -55h172l-15 -88h-156c9 -102 64 -124 140 -124c54 0 118 11 168 26l-21 -131c-40 -13 -105 -28 -181 -28z" />
    <glyph glyph-name="florin" unicode="&#x192;" horiz-adv-x="684" 
d="M53 -259c-41 0 -75 5 -113 14l20 112c28 -6 52 -8 70 -8c64 0 108 27 127 102l87 344h-115l15 75l122 13l62 228c34 125 109 184 255 184c38 0 72 -4 110 -13l-20 -112c-28 5 -52 7 -70 7c-65 0 -108 -27 -125 -92l-52 -201h133l-17 -89h-140l-96 -380
c-32 -125 -114 -184 -253 -184z" />
    <glyph glyph-name="sterling" unicode="&#xa3;" horiz-adv-x="685" 
d="M52 0c-2 7 -3 16 -3 26c0 47 21 71 68 124c38 44 71 82 71 177v14h-118l16 87l94 9c-4 25 -5 51 -5 69c0 83 21 148 74 195c58 51 140 66 216 66c65 0 133 -11 184 -26l-18 -117c-47 11 -105 19 -148 19c-54 0 -88 -13 -111 -34s-44 -54 -44 -120c0 -14 1 -32 3 -50h179
l-18 -98h-151v-12c0 -88 -27 -152 -120 -215h359l-20 -114h-508z" />
    <glyph glyph-name="yen" unicode="&#xa5;" horiz-adv-x="694" 
d="M198 0l26 151h-139l16 90h139l7 42h-138l15 90h103l-135 379h180l90 -322l203 322h174l-275 -379h101l-15 -90h-139l-8 -42h139l-15 -90h-139l-26 -151h-164z" />
    <glyph glyph-name="uni2126" unicode="&#x2126;" horiz-adv-x="824" 
d="M16 0l19 109h140c-56 53 -106 143 -106 268c0 119 45 230 127 303c70 62 156 87 251 87c211 0 313 -125 313 -299c0 -95 -30 -179 -79 -244c-31 -41 -77 -83 -130 -115h131l-19 -109h-287l12 71c4 25 10 32 32 54c77 78 167 170 167 332c0 115 -45 178 -141 178
c-52 0 -96 -19 -132 -58c-38 -41 -78 -117 -78 -228c0 -93 28 -156 62 -216c14 -24 19 -35 19 -48c0 -9 -2 -20 -6 -42l-8 -43h-287z" />
    <glyph glyph-name="approxequal" unicode="&#x2248;" horiz-adv-x="715" 
d="M238 399l-73 11c13 82 61 133 127 133c61 0 114 -44 158 -44c28 0 42 18 52 48l73 -9c-15 -88 -63 -134 -126 -134c-62 0 -114 44 -159 44c-28 0 -41 -18 -52 -49zM200 189l-72 11c13 82 60 133 126 133c62 0 115 -44 159 -44c27 0 41 18 51 48l74 -9
c-15 -88 -64 -134 -126 -134s-114 44 -159 44c-28 0 -42 -18 -53 -49z" />
    <glyph glyph-name="asciitilde" unicode="~" horiz-adv-x="703" 
d="M194 316l-95 14c21 117 87 157 162 157c89 0 133 -56 186 -56c40 0 60 32 69 63l95 -12c-20 -116 -85 -160 -162 -160c-89 0 -134 58 -188 58c-36 0 -55 -27 -67 -64z" />
    <glyph glyph-name="divide" unicode="&#xf7;" horiz-adv-x="719" 
d="M383 496c-45 0 -69 21 -69 53c0 9 2 22 5 33c11 41 35 64 85 64c47 0 69 -20 69 -56c0 -7 -1 -19 -3 -29c-8 -40 -38 -65 -87 -65zM140 305l18 103h412l-19 -103h-411zM306 66c-44 0 -67 20 -67 56c0 8 1 17 4 30c10 40 35 64 86 64c46 0 68 -20 68 -56
c0 -8 -1 -19 -3 -29c-8 -40 -38 -65 -88 -65z" />
    <glyph glyph-name="dotmath" unicode="&#x22c5;" horiz-adv-x="293" 
d="M140 293c-50 0 -74 22 -74 61c0 9 1 19 4 33c11 45 41 71 96 71c50 0 75 -22 75 -62c0 -9 -2 -19 -5 -33c-11 -45 -40 -70 -96 -70z" />
    <glyph glyph-name="equal" unicode="=" horiz-adv-x="711" 
d="M154 410l19 104h411l-18 -104h-412zM117 199l19 103h411l-19 -103h-411z" />
    <glyph glyph-name="greater" unicode="&#x3e;" horiz-adv-x="713" 
d="M126 102l22 122l320 140l-273 129l20 117l375 -203l-18 -101z" />
    <glyph glyph-name="greaterequal" unicode="&#x2265;" horiz-adv-x="707" 
d="M130 161l22 122l320 140l-273 129l20 117l375 -203l-18 -101zM101 0l18 103h412l-19 -103h-411z" />
    <glyph glyph-name="uni2206" unicode="&#x2206;" horiz-adv-x="774" 
d="M-10 0l14 84c3 19 6 28 19 52l327 616h179l116 -612c4 -20 6 -39 2 -64l-14 -76h-643zM176 109h317l-77 470z" />
    <glyph glyph-name="integral" unicode="&#x222b;" horiz-adv-x="610" 
d="M75 -263c-36 0 -83 4 -118 12l20 112c22 -4 51 -7 73 -7c26 0 54 4 73 21c18 16 29 45 37 89l115 660c13 74 41 120 72 147c32 28 80 46 160 46c38 0 83 -4 118 -12l-20 -112c-22 4 -50 8 -74 8c-35 0 -56 -8 -71 -21s-27 -34 -37 -89l-116 -660
c-13 -72 -36 -116 -69 -146c-34 -30 -86 -48 -163 -48z" />
    <glyph glyph-name="less" unicode="&#x3c;" horiz-adv-x="713" 
d="M503 102l-375 204l17 101l447 203l-22 -122l-320 -139l273 -129z" />
    <glyph glyph-name="lessequal" unicode="&#x2264;" horiz-adv-x="698" 
d="M503 161l-375 204l17 101l447 203l-22 -122l-320 -139l273 -129zM64 0l18 103h412l-19 -103h-411z" />
    <glyph glyph-name="logicalnot" unicode="&#xac;" horiz-adv-x="720" 
d="M409 199l38 211h-300l19 104h411l-56 -315h-112z" />
    <glyph glyph-name="minus" unicode="&#x2212;" horiz-adv-x="719" 
d="M140 305l18 103h412l-19 -103h-411z" />
    <glyph glyph-name="multiply" unicode="&#xd7;" horiz-adv-x="723" 
d="M218 174l-66 75l135 113l-87 113l79 64l87 -112l134 112l66 -75l-138 -116l85 -110l-79 -64l-86 110z" />
    <glyph glyph-name="notequal" unicode="&#x2260;" horiz-adv-x="994" 
d="M887 457l-28 -161h-291l-52 -296h-171l52 296h-291l29 161h290l52 295h171l-52 -295h291z" />
    <glyph glyph-name="partialdiff" unicode="&#x2202;" horiz-adv-x="689" 
d="M268 -15c-134 0 -235 67 -235 213c0 72 25 150 78 207c52 56 120 77 188 77c62 0 113 -18 154 -39c1 10 1 19 1 28c0 59 -10 103 -32 130c-25 30 -73 42 -137 42c-38 0 -78 -4 -116 -11l21 120c53 10 99 15 142 15c92 0 168 -23 215 -76c41 -46 62 -115 62 -212
c0 -124 -34 -288 -113 -388c-52 -66 -124 -106 -228 -106zM279 105c51 0 78 27 95 51c29 41 52 109 68 188c-34 11 -67 19 -104 19c-54 0 -87 -17 -111 -50c-20 -28 -35 -72 -35 -114c0 -64 33 -94 87 -94z" />
    <glyph glyph-name="percent" unicode="%" horiz-adv-x="1142" 
d="M262 308c-107 0 -166 66 -166 178c0 63 19 148 70 207c38 44 94 74 171 74c104 0 162 -67 162 -180c0 -65 -19 -146 -69 -204c-40 -46 -96 -75 -168 -75zM232 -15l539 782h131l-540 -782h-130zM276 413c27 0 49 14 66 48c18 35 29 88 29 129c0 43 -12 72 -51 72
c-33 0 -52 -20 -66 -47c-19 -37 -30 -89 -30 -130c0 -44 13 -72 52 -72zM802 -15c-108 0 -167 65 -167 179c0 62 17 143 70 205c38 44 92 74 166 74c111 0 167 -67 167 -178c0 -65 -19 -148 -69 -206c-37 -43 -93 -74 -167 -74zM815 89c29 0 50 17 66 48c17 33 29 86 29 129
c0 45 -13 73 -51 73c-33 0 -52 -21 -66 -48c-19 -37 -30 -89 -30 -129c0 -44 13 -73 52 -73z" />
    <glyph glyph-name="perthousand" unicode="&#x2030;" horiz-adv-x="1585" 
d="M262 308c-107 0 -166 65 -166 179c0 62 17 143 70 205c37 43 91 75 167 75c110 0 166 -67 166 -180c0 -66 -19 -146 -69 -204c-40 -46 -96 -75 -168 -75zM232 -15l539 782h131l-540 -782h-130zM276 413c29 0 50 16 66 48c19 38 29 89 29 129c0 43 -12 72 -51 72
c-33 0 -52 -20 -66 -47c-19 -37 -30 -89 -30 -130c0 -44 13 -72 52 -72zM802 -15c-108 0 -167 65 -167 179c0 62 17 143 70 205c38 44 92 74 166 74c111 0 167 -67 167 -178c0 -65 -19 -148 -69 -206c-37 -43 -93 -74 -167 -74zM1245 -15c-108 0 -166 65 -166 180
c0 61 16 142 69 204c38 44 92 74 166 74c111 0 167 -67 167 -180c0 -64 -18 -145 -69 -204c-40 -46 -96 -74 -167 -74zM815 89c29 0 50 17 66 48c17 33 29 86 29 129c0 45 -13 73 -51 73c-33 0 -52 -21 -66 -48c-19 -37 -30 -89 -30 -129c0 -44 13 -73 52 -73zM1258 89
c33 0 52 21 66 48c17 33 30 86 30 129c0 44 -14 73 -52 73c-33 0 -52 -21 -66 -48c-19 -37 -30 -89 -30 -129c0 -44 13 -73 52 -73z" />
    <glyph glyph-name="plus" unicode="+" horiz-adv-x="719" 
d="M263 151l26 154h-149l18 103h150l27 154h113l-28 -154h150l-19 -103h-150l-26 -154h-112z" />
    <glyph glyph-name="plusminus" unicode="&#xb1;" horiz-adv-x="705" 
d="M268 209l26 154h-149l18 103h150l27 154h113l-28 -154h150l-19 -103h-150l-26 -154h-112zM82 0l18 103h412l-19 -103h-411z" />
    <glyph glyph-name="product" unicode="&#x220f;" horiz-adv-x="840" 
d="M38 -248l155 883h-90l21 117h728l-21 -117h-90l-155 -883h-165l154 883h-216l-155 -883h-166z" />
    <glyph glyph-name="summation" unicode="&#x2211;" horiz-adv-x="735" 
d="M-36 -248l19 112l384 398l-243 408l14 82h580l-19 -109h-404l228 -393l-357 -375h400l-21 -123h-581z" />
    <glyph glyph-name="notequal.ss01" horiz-adv-x="711" 
d="M131 52l77 147h-91l19 103h128l55 108h-165l19 104h202l77 147h110l-77 -147h99l-18 -104h-137l-55 -108h173l-19 -103h-210l-77 -147h-110z" />
    <glyph glyph-name="plus.ss01" horiz-adv-x="994" 
d="M887 457l-28 -161h-291l-52 -296h-171l52 296h-291l29 161h290l52 295h171l-52 -295h291z" />
    <glyph glyph-name="uniF8FF" unicode="&#xf8ff;" horiz-adv-x="616" 
d="M105 0v684h406v-66h-338v-550h75v-68h-143zM240 210v67h205v69h-205v203h271v-68h-202v-67h202v-204h-271z" />
    <glyph glyph-name="bar" unicode="|" horiz-adv-x="295" 
d="M-22 -190l193 1095h141l-194 -1095h-140z" />
    <glyph glyph-name="brokenbar" unicode="&#xa6;" horiz-adv-x="294" 
d="M95 481l75 424h141l-75 -424h-141zM-24 -190l76 429h141l-76 -429h-141z" />
    <glyph glyph-name="at" unicode="@" horiz-adv-x="893" 
d="M423 -15c-231 0 -378 122 -378 343c0 253 193 439 457 439c224 0 350 -136 350 -318c0 -149 -83 -277 -233 -277c-51 0 -93 14 -113 36c-34 -22 -73 -36 -115 -36c-84 0 -143 55 -143 166c0 132 83 235 211 235c39 0 69 -10 91 -26l8 17l80 -6l-43 -213
c-5 -27 -7 -43 -7 -54c0 -24 13 -36 37 -36c68 0 109 94 109 192c0 145 -90 216 -228 216c-182 0 -340 -126 -340 -337c0 -175 109 -244 274 -244c70 0 141 13 208 29l-12 -97c-58 -17 -141 -29 -213 -29zM418 258c20 0 43 7 63 18v8c0 15 2 37 8 65l27 136
c-13 5 -26 7 -39 7c-77 0 -120 -74 -120 -153c0 -56 22 -81 61 -81z" />
    <glyph glyph-name="ampersand" unicode="&#x26;" horiz-adv-x="764" 
d="M562 -44l-71 96c-63 -41 -141 -67 -224 -67c-135 0 -240 69 -240 202c0 118 82 188 196 229c-33 46 -58 94 -58 157c0 117 91 194 215 194c119 0 176 -72 176 -159c0 -90 -60 -150 -167 -201l129 -175c27 40 50 90 65 151h117c-21 -99 -60 -183 -113 -246l79 -106z
M341 472c62 38 94 74 94 122c0 37 -20 64 -60 64c-45 0 -74 -32 -74 -84c0 -31 10 -62 40 -102zM302 108c45 0 86 14 120 37l-151 205c-52 -37 -89 -83 -89 -138c0 -57 40 -104 120 -104z" />
    <glyph glyph-name="paragraph" unicode="&#xb6;" horiz-adv-x="744" 
d="M162 -223l103 577c-93 9 -172 57 -172 172c0 59 21 125 79 170c54 42 128 56 217 56h352l-19 -109h-75l-152 -866h-125l153 866h-83l-153 -866h-125z" />
    <glyph glyph-name="copyright" unicode="&#xa9;" horiz-adv-x="897" 
d="M396 -15c-204 0 -343 123 -343 336c0 254 198 446 452 446c205 0 343 -124 343 -337c0 -254 -198 -445 -452 -445zM405 85c191 0 329 150 329 339c0 152 -89 243 -238 243c-191 0 -329 -151 -329 -340c0 -152 90 -242 238 -242zM439 185c-60 0 -102 16 -129 50
c-16 20 -29 50 -29 99c0 67 24 154 87 203c34 26 72 36 120 36c45 0 82 -9 110 -19l-24 -66c-23 7 -48 13 -74 13c-38 0 -62 -13 -81 -36c-27 -34 -38 -84 -38 -126c0 -29 5 -48 15 -61c11 -14 33 -21 67 -21c23 0 46 3 71 7l-2 -68c-27 -7 -63 -11 -93 -11z" />
    <glyph glyph-name="registered" unicode="&#xae;" horiz-adv-x="897" 
d="M396 -15c-204 0 -343 123 -343 336c0 254 198 446 452 446c205 0 343 -124 343 -337c0 -254 -198 -445 -452 -445zM405 85c191 0 329 150 329 339c0 152 -89 243 -238 243c-191 0 -329 -151 -329 -340c0 -152 90 -242 238 -242zM285 193l66 376h127
c89 0 137 -37 137 -106c0 -58 -34 -99 -90 -121l57 -149h-92l-43 134h-47l-23 -134h-92zM411 392h30c55 0 76 32 76 68c0 31 -16 43 -51 43h-36z" />
    <glyph glyph-name="trademark" unicode="&#x2122;" horiz-adv-x="847" 
d="M144 387l49 286h-108l15 79h328l-15 -79h-110l-49 -286h-110zM409 387l64 365h93l58 -205l134 205h96l-63 -365h-99l29 171l-80 -121h-66l-42 123l-29 -173h-95z" />
    <glyph glyph-name="degree" unicode="&#xb0;" horiz-adv-x="606" 
d="M306 349c-121 0 -183 65 -183 173c0 72 29 145 86 192c44 36 97 53 164 53c121 0 183 -65 183 -173c0 -72 -29 -145 -86 -192c-44 -36 -97 -53 -164 -53zM320 454c31 0 55 12 73 32c23 26 35 66 35 101c0 49 -23 75 -69 75c-31 0 -55 -12 -73 -32
c-23 -26 -35 -66 -35 -101c0 -49 23 -75 69 -75z" />
    <glyph glyph-name="estimated" unicode="&#x212e;" horiz-adv-x="1044" 
d="M542 -15c-241 0 -438 173 -438 390c0 218 197 392 438 392c238 0 435 -174 435 -392v-9h-706c-5 0 -8 -1 -8 -6v-214c0 -10 5 -16 12 -25c66 -68 162 -112 268 -112c113 0 213 49 279 127h65c-81 -91 -206 -151 -345 -151zM271 387h539c6 0 8 2 8 7v215c0 9 -5 18 -13 27
c-67 67 -161 108 -262 108c-106 0 -199 -42 -268 -112c-7 -8 -12 -17 -12 -28v-210c0 -5 3 -7 8 -7z" />
    <glyph glyph-name="uni2116" unicode="&#x2116;" horiz-adv-x="1262" 
d="M25 0l132 752h124l272 -492l87 492h151l-133 -752h-135l-265 468l-82 -468h-151zM1019 252c-143 0 -201 76 -201 176c0 67 26 138 75 184c48 45 110 58 169 58c142 0 200 -76 200 -176c0 -67 -26 -138 -76 -185c-48 -44 -108 -57 -167 -57zM1025 362c33 0 57 13 74 34
c20 25 29 58 29 88c0 54 -30 76 -73 76c-33 0 -57 -13 -74 -34c-20 -25 -29 -58 -29 -88c0 -54 30 -76 73 -76z" />
    <glyph glyph-name="asciicircum" unicode="^" horiz-adv-x="711" 
d="M122 417l252 337h95l126 -337h-124l-67 219l-150 -219h-132z" />
    <glyph glyph-name="uni0308" unicode="&#x308;" horiz-adv-x="0" 
d="M-287 836c-50 0 -69 21 -69 61c0 7 1 17 4 27c8 40 37 65 88 65c49 0 68 -21 68 -61c0 -7 -1 -17 -4 -27c-8 -40 -37 -65 -87 -65zM-59 836c-49 0 -68 21 -68 61c0 7 1 17 3 27c9 40 38 65 88 65s69 -21 69 -61c0 -7 -2 -17 -4 -27c-8 -40 -37 -65 -88 -65z" />
    <glyph glyph-name="uni0307" unicode="&#x307;" horiz-adv-x="0" 
d="M-169 831c-51 0 -71 22 -71 64c0 10 1 20 4 32c9 37 32 65 94 65c51 0 71 -22 71 -64c0 -10 -1 -20 -4 -32c-9 -37 -32 -65 -94 -65z" />
    <glyph glyph-name="gravecomb" unicode="&#x300;" horiz-adv-x="0" 
d="M-99 818l-217 125l77 107l196 -157z" />
    <glyph glyph-name="acutecomb" unicode="&#x301;" horiz-adv-x="0" 
d="M-264 818l-47 80l250 154l65 -119z" />
    <glyph glyph-name="uni030B" unicode="&#x30b;" horiz-adv-x="0" 
d="M-333 818l-56 62l175 172l74 -85zM-121 818l-54 65l197 169l72 -92z" />
    <glyph glyph-name="uni0302" unicode="&#x302;" horiz-adv-x="0" 
d="M-307 805l-49 59l162 156h106l111 -166l-59 -49l-115 108z" />
    <glyph glyph-name="uni030C" unicode="&#x30c;" horiz-adv-x="0" 
d="M-230 818l-111 167l59 48l114 -108l157 108l49 -58l-163 -157h-105z" />
    <glyph glyph-name="uni0306" unicode="&#x306;" horiz-adv-x="0" 
d="M-165 820c-108 0 -154 61 -154 138c0 12 1 24 4 38l93 3c0 -44 9 -84 64 -84c48 0 74 30 90 84l95 -3c-8 -103 -74 -176 -192 -176z" />
    <glyph glyph-name="uni030A" unicode="&#x30a;" horiz-adv-x="0" 
d="M-181 813c-83 0 -124 44 -124 107c0 35 8 72 30 101c27 35 72 51 130 51c83 0 124 -44 124 -107c0 -35 -8 -72 -30 -101c-27 -35 -72 -51 -130 -51zM-173 884c25 0 45 7 57 25c8 12 13 30 13 47c0 28 -14 45 -50 45c-25 0 -45 -7 -57 -25c-8 -12 -13 -30 -13 -47
c0 -28 14 -45 50 -45z" />
    <glyph glyph-name="tildecomb" unicode="&#x303;" horiz-adv-x="0" 
d="M-293 838l-76 12c15 92 68 151 142 151c67 0 104 -48 150 -48c28 0 47 18 60 52l76 -12c-16 -92 -70 -150 -143 -150c-65 0 -103 47 -150 47c-28 0 -46 -18 -59 -52z" />
    <glyph glyph-name="uni0304" unicode="&#x304;" horiz-adv-x="0" 
d="M-342 853l20 107h325l-20 -107h-325z" />
    <glyph glyph-name="uni0326" unicode="&#x326;" horiz-adv-x="0" 
d="M-407 -322l41 120c-33 5 -51 20 -51 56c0 17 5 46 19 65c16 22 41 31 74 31c28 0 44 -8 54 -18c11 -11 16 -28 16 -51c0 -55 -39 -143 -77 -203h-76z" />
    <glyph glyph-name="uni0327" unicode="&#x327;" horiz-adv-x="0" 
d="M-332 -277c-35 0 -74 6 -102 15l15 80c24 -6 49 -8 66 -8c34 0 60 8 60 28s-25 27 -46 35c-47 17 -58 30 -58 57c0 2 0 6 1 12c3 17 17 46 34 63h78c-3 -7 -9 -22 -10 -34c0 -12 12 -19 26 -26c56 -29 84 -45 84 -99c0 -39 -15 -69 -41 -90c-28 -23 -63 -33 -107 -33z
" />
    <glyph glyph-name="uni0328" unicode="&#x328;" horiz-adv-x="0" 
d="M-336 -274c-80 0 -131 33 -131 104c0 75 57 132 135 186h98c-51 -40 -119 -102 -119 -156c0 -30 21 -44 58 -44c22 0 46 5 65 10l-16 -85c-26 -9 -57 -15 -90 -15z" />
    <glyph glyph-name="uni0308.case" horiz-adv-x="0" 
d="M-287 836c-50 0 -69 21 -69 61c0 7 1 17 4 27c8 40 37 65 88 65c49 0 68 -21 68 -61c0 -7 -1 -17 -4 -27c-8 -40 -37 -65 -87 -65zM-59 836c-49 0 -68 21 -68 61c0 7 1 17 3 27c9 40 38 65 88 65s69 -21 69 -61c0 -7 -2 -17 -4 -27c-8 -40 -37 -65 -88 -65z" />
    <glyph glyph-name="uni0307.case" horiz-adv-x="0" 
d="M-169 831c-51 0 -71 22 -71 64c0 10 1 20 4 32c9 37 32 65 94 65c51 0 71 -22 71 -64c0 -10 -1 -20 -4 -32c-9 -37 -32 -65 -94 -65z" />
    <glyph glyph-name="gravecomb.case" horiz-adv-x="0" 
d="M-99 818l-217 125l77 107l196 -157z" />
    <glyph glyph-name="acutecomb.case" horiz-adv-x="0" 
d="M-264 818l-47 80l250 154l65 -119z" />
    <glyph glyph-name="uni030B.case" horiz-adv-x="0" 
d="M-333 818l-56 62l175 172l74 -85zM-121 818l-54 65l197 169l72 -92z" />
    <glyph glyph-name="uni0302.case" horiz-adv-x="0" 
d="M-307 805l-49 59l162 156h106l111 -166l-59 -49l-115 108z" />
    <glyph glyph-name="uni030C.case" horiz-adv-x="0" 
d="M-230 818l-111 167l59 48l114 -108l157 108l49 -58l-163 -157h-105z" />
    <glyph glyph-name="uni0306.case" horiz-adv-x="0" 
d="M-165 820c-108 0 -154 61 -154 138c0 12 1 24 4 38l93 3c0 -44 9 -84 64 -84c48 0 74 30 90 84l95 -3c-8 -103 -74 -176 -192 -176z" />
    <glyph glyph-name="uni030A.case" horiz-adv-x="0" 
d="M-181 813c-83 0 -124 44 -124 107c0 35 8 72 30 101c27 35 72 51 130 51c83 0 124 -44 124 -107c0 -35 -8 -72 -30 -101c-27 -35 -72 -51 -130 -51zM-173 884c25 0 45 7 57 25c8 12 13 30 13 47c0 28 -14 45 -50 45c-25 0 -45 -7 -57 -25c-8 -12 -13 -30 -13 -47
c0 -28 14 -45 50 -45z" />
    <glyph glyph-name="tildecomb.case" horiz-adv-x="0" 
d="M-293 838l-76 12c15 92 68 151 142 151c67 0 104 -48 150 -48c28 0 47 18 60 52l76 -12c-16 -92 -70 -150 -143 -150c-65 0 -103 47 -150 47c-28 0 -46 -18 -59 -52z" />
    <glyph glyph-name="uni0304.case" horiz-adv-x="0" 
d="M-342 853l20 107h325l-20 -107h-325z" />
    <glyph glyph-name="acute" unicode="&#xb4;" horiz-adv-x="500" 
d="M236 818l-47 80l250 154l65 -119z" />
    <glyph glyph-name="breve" unicode="&#x2d8;" horiz-adv-x="500" 
d="M335 820c-108 0 -154 61 -154 138c0 12 1 24 4 38l93 3c0 -44 9 -84 64 -84c48 0 74 30 90 84l95 -3c-8 -103 -74 -176 -192 -176z" />
    <glyph glyph-name="caron" unicode="&#x2c7;" horiz-adv-x="500" 
d="M270 818l-111 167l59 48l114 -108l157 108l49 -58l-163 -157h-105z" />
    <glyph glyph-name="cedilla" unicode="&#xb8;" horiz-adv-x="500" 
d="M168 -277c-35 0 -74 6 -102 15l15 80c24 -6 49 -8 66 -8c34 0 60 8 60 28s-25 27 -46 35c-47 17 -58 30 -58 57c0 2 0 6 1 12c3 17 17 46 34 63h78c-3 -7 -9 -22 -10 -34c0 -12 12 -19 26 -26c56 -29 84 -45 84 -99c0 -39 -15 -69 -41 -90c-28 -23 -63 -33 -107 -33z" />
    <glyph glyph-name="circumflex" unicode="&#x2c6;" horiz-adv-x="500" 
d="M193 805l-49 59l162 156h106l111 -166l-59 -49l-115 108z" />
    <glyph glyph-name="dieresis" unicode="&#xa8;" horiz-adv-x="500" 
d="M213 836c-50 0 -69 21 -69 61c0 7 1 17 4 27c8 40 37 65 88 65c49 0 68 -21 68 -61c0 -7 -1 -17 -4 -27c-8 -40 -37 -65 -87 -65zM441 836c-49 0 -68 21 -68 61c0 7 1 17 3 27c9 40 38 65 88 65s69 -21 69 -61c0 -7 -2 -17 -4 -27c-8 -40 -37 -65 -88 -65z" />
    <glyph glyph-name="dotaccent" unicode="&#x2d9;" horiz-adv-x="500" 
d="M331 831c-51 0 -71 22 -71 64c0 10 1 20 4 32c9 37 32 65 94 65c51 0 71 -22 71 -64c0 -10 -1 -20 -4 -32c-9 -37 -32 -65 -94 -65z" />
    <glyph glyph-name="grave" unicode="`" horiz-adv-x="500" 
d="M401 818l-217 125l77 107l196 -157z" />
    <glyph glyph-name="hungarumlaut" unicode="&#x2dd;" horiz-adv-x="500" 
d="M167 818l-56 62l175 172l74 -85zM379 818l-54 65l197 169l72 -92z" />
    <glyph glyph-name="macron" unicode="&#xaf;" horiz-adv-x="500" 
d="M158 853l20 107h325l-20 -107h-325z" />
    <glyph glyph-name="ogonek" unicode="&#x2db;" horiz-adv-x="500" 
d="M164 -274c-80 0 -131 33 -131 104c0 75 57 132 135 186h98c-51 -40 -119 -102 -119 -156c0 -30 21 -44 58 -44c22 0 46 5 65 10l-16 -85c-26 -9 -57 -15 -90 -15z" />
    <glyph glyph-name="ring" unicode="&#x2da;" horiz-adv-x="500" 
d="M319 813c-83 0 -124 44 -124 107c0 35 8 72 30 101c27 35 72 51 130 51c83 0 124 -44 124 -107c0 -35 -8 -72 -30 -101c-27 -35 -72 -51 -130 -51zM327 884c25 0 45 7 57 25c8 12 13 30 13 47c0 28 -14 45 -50 45c-25 0 -45 -7 -57 -25c-8 -12 -13 -30 -13 -47
c0 -28 14 -45 50 -45z" />
    <glyph glyph-name="tilde" unicode="&#x2dc;" horiz-adv-x="500" 
d="M207 838l-76 12c15 92 68 151 142 151c67 0 104 -48 150 -48c28 0 47 18 60 52l76 -12c-16 -92 -70 -150 -143 -150c-65 0 -103 47 -150 47c-28 0 -46 -18 -59 -52z" />
    <glyph glyph-name="acute.case" horiz-adv-x="500" 
d="M236 818l-47 80l250 154l65 -119z" />
    <glyph glyph-name="breve.case" horiz-adv-x="500" 
d="M335 820c-108 0 -154 61 -154 138c0 12 1 24 4 38l93 3c0 -44 9 -84 64 -84c48 0 74 30 90 84l95 -3c-8 -103 -74 -176 -192 -176z" />
    <glyph glyph-name="caron.case" horiz-adv-x="500" 
d="M270 818l-111 167l59 48l114 -108l157 108l49 -58l-163 -157h-105z" />
    <glyph glyph-name="circumflex.case" horiz-adv-x="500" 
d="M193 805l-49 59l162 156h106l111 -166l-59 -49l-115 108z" />
    <glyph glyph-name="dieresis.case" horiz-adv-x="500" 
d="M213 836c-50 0 -69 21 -69 61c0 7 1 17 4 27c8 40 37 65 88 65c49 0 68 -21 68 -61c0 -7 -1 -17 -4 -27c-8 -40 -37 -65 -87 -65zM441 836c-49 0 -68 21 -68 61c0 7 1 17 3 27c9 40 38 65 88 65s69 -21 69 -61c0 -7 -2 -17 -4 -27c-8 -40 -37 -65 -88 -65z" />
    <glyph glyph-name="dotaccent.case" horiz-adv-x="500" 
d="M331 831c-51 0 -71 22 -71 64c0 10 1 20 4 32c9 37 32 65 94 65c51 0 71 -22 71 -64c0 -10 -1 -20 -4 -32c-9 -37 -32 -65 -94 -65z" />
    <glyph glyph-name="grave.case" horiz-adv-x="500" 
d="M401 818l-217 125l77 107l196 -157z" />
    <glyph glyph-name="hungarumlaut.case" horiz-adv-x="500" 
d="M167 818l-56 62l175 172l74 -85zM379 818l-54 65l197 169l72 -92z" />
    <glyph glyph-name="macron.case" horiz-adv-x="500" 
d="M158 853l20 107h325l-20 -107h-325z" />
    <glyph glyph-name="ring.case" horiz-adv-x="500" 
d="M319 813c-83 0 -124 44 -124 107c0 35 8 72 30 101c27 35 72 51 130 51c83 0 124 -44 124 -107c0 -35 -8 -72 -30 -101c-27 -35 -72 -51 -130 -51zM327 884c25 0 45 7 57 25c8 12 13 30 13 47c0 28 -14 45 -50 45c-25 0 -45 -7 -57 -25c-8 -12 -13 -30 -13 -47
c0 -28 14 -45 50 -45z" />
    <glyph glyph-name="tilde.case" horiz-adv-x="500" 
d="M207 838l-76 12c15 92 68 151 142 151c67 0 104 -48 150 -48c28 0 47 18 60 52l76 -12c-16 -92 -70 -150 -143 -150c-65 0 -103 47 -150 47c-28 0 -46 -18 -59 -52z" />
    <glyph glyph-name="null.001" horiz-adv-x="600" 
 />
    </font>
</defs>
</svg>
