<svg xmlns="http://www.w3.org/2000/svg" width="197" height="172" viewBox="0 0 197 172">
    <g fill="none" fill-rule="evenodd">
        <path fill="#E9426D" d="M117.755 167.37c-6.975 1.81-14.644 2.945-23.014 3.385-2.575.196-5.106.323-7.571.368-.091.001-.148-.055-.187-.144-.092.001-.18.005-.272.005-58.601 0-85.833-31.33-85.833-85.45C.878 31.414 35.903.083 86.711.083c44.685 0 85.832 31.331 85.832 85.451 0 4.883-.229 9.573-.676 14.079.4 4.167.575 7.027.506 7.822-.362 4.125 2.536 4.715 5.33 5.025 2.795.311 16.967-2.229 18.264 7.065 2.582 18.496-38.475 39.45-78.212 47.845"/>
        <text fill="#FFF" font-family="Telefonica-Bold, Telefonica" font-size="40" font-weight="bold" transform="translate(0 -1)">
            <tspan x="33.96" y="73">10 GB</tspan>  <tspan x="19.188" y="114.168" font-size="24">gratis/mes</tspan> <tspan x="35.544" y="149" font-size="24">(3 meses)</tspan>
        </text>
    </g>
</svg>
