<?xml version="1.0" encoding="UTF-8"?>
<svg width="385px" height="536px" viewBox="0 0 385 536" version="1.1" xmlns="http://www.w3.org/2000/svg" xmlns:xlink="http://www.w3.org/1999/xlink">
    <!-- Generator: sketchtool 56.3 (101010) - https://sketch.com -->
    <title>8FC534FE-C56D-4908-B6E1-66B20932812C</title>
    <desc>Created with sketchtool.</desc>
    <g id="Landings" stroke="none" stroke-width="1" fill="none" fill-rule="evenodd">
        <g id="Telefonía-Movil_home_modulos_Desktop" transform="translate(-157.000000, -2731.000000)" fill="#5BC500">
            <g id="Group-2" transform="translate(157.000000, 2731.000000)">
                <g id="mlogo_green">
                    <path d="M-1128.62604,-287.766875 C-1215.97136,-286.40134 -1377.20039,-243.293865 -1450.83596,57.6205122 C-1482.90807,188.742959 -1495.31507,325.389618 -1467.86458,488.074557 C-1442.52327,638.128292 -1397.67194,767.636924 -1367.42987,838.986156 C-1357.00798,863.596831 -1340.84786,889.231657 -1328.37882,905.028421 C-1292.49156,950.401442 -1232.75183,947.484162 -1207.65866,935.132272 C-1180.30122,921.663126 -1148.84946,889.107517 -1160.2639,814.80997 C-1165.754,778.933627 -1181.60395,726.422579 -1190.53699,697.218739 C-1217.95648,607.652021 -1254.43307,499.557469 -1257.59686,422.590921 C-1261.84626,319.586092 -1221.27535,306.116946 -1194.32113,300.18928 C-1149.00455,290.227078 -1111.00809,340.007055 -1074.93473,402.387202 C-1031.8514,476.870958 -957.998703,608.862382 -897.793711,709.632698 C-843.420011,800.627021 -743.078358,898.045568 -581.973397,891.373065 C-417.70465,884.545387 -296.612281,821.854892 -234.236063,624.441902 C-187.585724,476.715784 -155.730739,366.386719 -104.551843,253.357618 C-45.680604,123.352428 32.855738,53.8032197 98.9850749,75.0310904 C160.368732,94.7382511 175.691384,154.79078 176.435804,243.054032 C177.087172,321.137837 168.061075,407.228646 161.051118,470.446734 C158.476664,493.381525 153.886072,539.561454 155.77814,565.165245 C159.469224,615.565921 181.274536,665.904526 237.974549,673.942565 C298.365646,682.508197 346.846018,634.217895 366.200946,575.84125 C373.831254,552.813355 380.313914,517.61978 383.849911,492.636687 C401.591928,366.479824 406.213537,281.661446 398.211019,152.556267 C388.84373,1.63355504 359.315058,-136.037255 307.825987,-255.149197 C258.53916,-369.07831 179.382468,-442.103426 77.8621488,-448.52765 C-34.4832819,-455.696712 -163.423082,-381.088815 -231.072277,-236.373083 C-293.417477,-102.954053 -343.293638,33.9719195 -373.535712,103.862511 C-404.24305,174.74622 -449.342513,218.443357 -518.666654,225.736558 C-603.468533,234.643574 -676.514776,173.070335 -730.019985,85.272607 C-776.670324,8.74054683 -869.102511,-136.999337 -918.575444,-185.972407 C-965.070696,-231.966127 -1018.11064,-289.535864 -1128.62604,-287.766875" transform="translate(-540.500000, 247.000000) rotate(159.000000) translate(540.500000, -247.000000) "></path>
                </g>
            </g>
        </g>
    </g>
</svg>