<?xml version="1.0" encoding="UTF-8"?>
<svg width="288px" height="459px" viewBox="0 0 288 459" version="1.1" xmlns="http://www.w3.org/2000/svg" xmlns:xlink="http://www.w3.org/1999/xlink">
    <!-- Generator: sketchtool 56.3 (101010) - https://sketch.com -->
    <title>7FED2470-E06E-4F44-B3CF-3AA099ED6874</title>
    <desc>Created with sketchtool.</desc>
    <g id="Landings" stroke="none" stroke-width="1" fill="none" fill-rule="evenodd">
        <g id="Telefonía-Movil_home_modulos_Desktop" transform="translate(-1155.000000, -2731.000000)" fill="#5BC500">
            <g id="Group-2-Copy" transform="translate(810.000000, 2731.000000)">
                <g id="mlogo_green">
                    <path d="M532.37396,152.233125 C445.028645,153.59866 283.799614,196.706135 210.164039,497.620512 C178.091931,628.742959 165.684926,765.389618 193.135425,928.074557 C218.476733,1078.12829 263.328056,1207.63692 293.570131,1278.98616 C303.992015,1303.59683 320.152139,1329.23166 332.621179,1345.02842 C368.508441,1390.40144 428.248171,1387.48416 453.341338,1375.13227 C480.698784,1361.66313 512.150542,1329.10752 500.736098,1254.80997 C495.245998,1218.93363 479.396049,1166.42258 470.463005,1137.21874 C443.043524,1047.65202 406.566929,939.557469 403.403143,862.590921 C399.153744,759.586092 439.72465,746.116946 466.678869,740.18928 C511.995455,730.227078 549.991908,780.007055 586.065275,842.387202 C629.1486,916.870958 703.001297,1048.86238 763.206289,1149.6327 C817.579989,1240.62702 917.921642,1338.04557 1079.0266,1331.37307 C1243.29535,1324.54539 1364.38772,1261.85489 1426.76394,1064.4419 C1473.41428,916.715784 1505.26926,806.386719 1556.44816,693.357618 C1615.3194,563.352428 1693.85574,493.80322 1759.98507,515.03109 C1821.36873,534.738251 1836.69138,594.79078 1837.4358,683.054032 C1838.08717,761.137837 1829.06108,847.228646 1822.05112,910.446734 C1819.47666,933.381525 1814.88607,979.561454 1816.77814,1005.16525 C1820.46922,1055.56592 1842.27454,1105.90453 1898.97455,1113.94256 C1959.36565,1122.5082 2007.84602,1074.21789 2027.20095,1015.84125 C2034.83125,992.813355 2041.31391,957.61978 2044.84991,932.636687 C2062.59193,806.479824 2067.21354,721.661446 2059.21102,592.556267 C2049.84373,441.633555 2020.31506,303.962745 1968.82599,184.850803 C1919.53916,70.9216904 1840.38247,-2.10342619 1738.86215,-8.52765021 C1626.51672,-15.6967118 1497.57692,58.9111846 1429.92772,203.626917 C1367.58252,337.045947 1317.70636,473.971919 1287.46429,543.862511 C1256.75695,614.74622 1211.65749,658.443357 1142.33335,665.736558 C1057.53147,674.643574 984.485224,613.070335 930.980015,525.272607 C884.329676,448.740547 791.897489,303.000663 742.424556,254.027593 C695.929304,208.033873 642.889358,150.464136 532.37396,152.233125" transform="translate(1120.500000, 687.000000) rotate(262.000000) translate(-1120.500000, -687.000000) "></path>
                </g>
            </g>
        </g>
    </g>
</svg>