<svg width="28" height="20" xmlns="http://www.w3.org/2000/svg"><path d="M1.355 7.28c-.46 1.883-.637 3.847-.244 6.184.362 2.156 1.005 4.016 1.438 5.042.15.353.38.721.56.948.513.652 1.37.61 1.729.433.392-.194.842-.661.679-1.729-.079-.516-.306-1.27-.434-1.69-.393-1.286-.915-2.84-.96-3.945-.062-1.48.52-1.674.906-1.759.649-.143 1.193.572 1.71 1.469.617 1.07 1.675 2.966 2.537 4.414.78 1.308 2.216 2.707 4.524 2.611 2.353-.098 4.087-.999 4.98-3.835.67-2.122 1.125-3.708 1.858-5.332.843-1.867 1.968-2.867 2.916-2.562.879.284 1.098 1.146 1.109 2.415.01 1.121-.12 2.358-.22 3.266-.037.33-.103.993-.076 1.362.053.723.365 1.447 1.177 1.562.866.123 1.56-.57 1.837-1.41.11-.33.203-.836.253-1.195.254-1.813.32-3.03.206-4.886-.135-2.169-.557-4.146-1.295-5.858C25.839 1.148 24.705.1 23.25.007c-1.609-.103-3.456.97-4.425 3.048-.893 1.917-1.607 3.884-2.04 4.889-.44 1.018-1.086 1.645-2.08 1.75-1.214.129-2.26-.756-3.027-2.017-.668-1.1-1.992-3.194-2.7-3.898-.666-.66-1.426-1.488-3.01-1.462-1.25.02-3.56.639-4.614 4.962z" fill="#5BC500" fill-rule="evenodd"/></svg>