<svg width="36" height="25" xmlns="http://www.w3.org/2000/svg"><g fill="#5BC500"><path d="M31.945 24.984H17.063c-1.202 0-1.95-.621-1.95-1.617V1.607c0-.98.746-1.59 1.947-1.591h9.286c.264 0 .518.087.705.241l7.788 6.425a.758.758 0 0 1 .293.582v16.14c0 .31-.037.71-.325 1.044-.21.243-.625.535-1.41.535h-1.452zm-2.085-1.648h3.273V7.607l-7.202-5.943h-8.822v21.673h12.752z"/><path d="M30.297 12.074H19.946c-.551 0-.999-.37-.999-.824 0-.455.448-.824.999-.824h10.351c.552 0 .999.37.999.824 0 .455-.447.824-.999.824zm0 4.022H19.946c-.551 0-.999-.37-.999-.824 0-.455.448-.824.999-.824h10.351c.552 0 .999.369.999.824 0 .455-.447.824-.999.824zm0 4.047H19.946c-.551 0-.999-.368-.999-.823 0-.455.448-.824.999-.824h10.351c.552 0 .999.369.999.824 0 .455-.447.823-.999.823zM9.815 6.72c-.313 0-.593-.16-.702-.403-.109-.242-.023-.515.214-.683a65.683 65.683 0 0 0 1.61-1.163l.012-.01-.022-.02c-.4-.329-1.585-1.162-1.598-1.17-.315-.222-.353-.611-.085-.871.268-.26.74-.292 1.056-.07.05.035 1.245.874 1.687 1.24.666.55.67 1.23.01 1.774-.224.185-1.451 1.055-1.695 1.227a.845.845 0 0 1-.487.15z"/><path d="M4.449 9.902c-.414 0-.749-.277-.749-.618V8.06c0-1.398.456-2.47 1.356-3.183.863-.685 2.124-1.032 3.748-1.032H11c.414 0 .75.276.75.617 0 .342-.336.618-.75.618H8.805c-1.225 0-2.136.231-2.71.687-.595.472-.899 1.244-.899 2.293v1.222c0 .341-.334.618-.747.619zm2.027 15.052H1.547C.64 24.953.03 24.448.03 23.696V11.704c0-.734.624-1.247 1.517-1.248H7.41c.266 0 .52.086.708.24l4.327 3.57a.758.758 0 0 1 .292.583v8.868c0 .727-.615 1.236-1.498 1.236l-4.763.001zm-4.448-1.647h8.711V15.19L6.995 12.1h-4.97c.002 1.923.002 9.317.002 11.206z"/><path d="M9.15 17.974H3.634c-.267 0-.515-.118-.648-.31a.526.526 0 0 1 0-.617c.133-.191.38-.309.648-.309H9.15c.414 0 .749.277.749.618 0 .341-.335.618-.749.618zm0 2.142H3.634c-.413 0-.749-.277-.749-.618 0-.341.336-.618.75-.618H9.15c.414 0 .749.277.749.618 0 .341-.335.618-.749.618zm0 2.141H3.634c-.413 0-.749-.276-.749-.617 0-.342.336-.618.75-.618H9.15c.414 0 .749.276.749.618 0 .34-.335.617-.749.617zm2.041-6.34h-1.73c-1.068 0-1.901-.24-2.477-.716-.577-.475-.869-1.163-.869-2.043V11.73c0-.341.336-.618.75-.618.413 0 .748.277.748.618v1.428c0 1.082.535 1.524 1.847 1.524h1.731c.414 0 .749.276.749.617 0 .342-.335.618-.749.618zm22.941-7.829h-3.894c-1.465 0-2.699-.379-3.567-1.096-.868-.717-1.325-1.733-1.325-2.94V.839c0-.455.447-.823.999-.823.55 0 .998.368.998.823v3.213c0 .761.256 1.376.74 1.776.486.401 1.23.613 2.155.613h3.894c.552 0 .999.369.999.824 0 .455-.447.824-.999.824z"/></g></svg>