<svg width="31" height="25" xmlns="http://www.w3.org/2000/svg"><g fill="#5BC500"><path d="M23.143 19.097H13.5c-1.291 0-2.434-.359-3.306-1.037-.911-.708-1.5-1.728-1.749-3.031C8.24 13.947 6.207 4.207 5.927 2.916c-.185-.853-1.265-1.493-2.514-1.493H1.338c-.476 0-.862-.319-.862-.711C.476.319.862 0 1.338 0h2.075c2.105 0 3.876 1.122 4.21 2.667.281 1.294 2.318 11.056 2.525 12.142.188.984.601 1.73 1.229 2.218.553.43 1.268.647 2.123.647h9.643c1.051 0 2.544-.304 3.369-2.934.179-.571.776-2.553 1.355-4.47l.895-2.962H24.28c-.476 0-.862-.318-.862-.711 0-.393.386-.712.862-.712h5.589c.266 0 .517.102.68.275a.62.62 0 0 1 .156.611c-.237.774-.687 2.265-1.164 3.842-.58 1.92-1.179 3.905-1.36 4.483-.407 1.302-1 2.26-1.817 2.934-.86.708-1.942 1.067-3.22 1.067z"/><path d="M11.808 7.308H7.739c-.476 0-.862-.318-.862-.71 0-.394.386-.712.862-.712h4.067c.476 0 .862.318.862.711 0 .393-.386.711-.862.711h.002zM13.5 24.982c-.772 0-1.39-.18-1.839-.537-.467-.372-.705-.897-.705-1.56 0-.665.237-1.19.705-1.561.45-.356 1.067-.538 1.839-.538.77 0 1.39.18 1.838.538.467.372.705.897.705 1.56s-.237 1.189-.705 1.56c-.45.358-1.068.538-1.838.538zm0-2.774c-.628 0-.82.158-.82.676s.192.676.82.676c.627 0 .819-.158.819-.676s-.192-.676-.82-.676zm8.405 2.774c-.771 0-1.39-.18-1.838-.537-.468-.372-.705-.897-.705-1.56 0-.665.237-1.19.705-1.561.449-.356 1.067-.538 1.838-.538.771 0 1.39.18 1.838.538.468.372.705.897.705 1.56s-.237 1.189-.705 1.56c-.449.358-1.067.538-1.838.538zm0-2.774c-.628 0-.819.158-.819.676s.191.676.819.676c.628 0 .819-.158.819-.676s-.191-.676-.819-.676z"/><path d="M22.69 14.752h-9.468c-.75 0-1.215-.385-1.215-1.005V1.024c0-.605.474-.994 1.21-.996h6.155c.171 0 .336.056.457.157l4.632 3.823c.12.1.189.236.189.377v9.385c0 .595-.467.98-1.188.982h-.772zm-1.08-1.066h1.746v-9.08l-4.252-3.51h-5.803v12.588c1.033.002 7.696.001 8.31.001z"/><path d="M21.505 7.13h-6.724c-.357 0-.647-.238-.647-.533 0-.295.29-.533.647-.533h6.724c.358 0 .647.238.647.533 0 .295-.29.534-.647.534zm0 2.428h-6.724c-.357 0-.647-.24-.647-.534 0-.294.29-.533.647-.533h6.724c.358 0 .647.239.647.533 0 .295-.29.534-.647.534zm0 2.426h-6.724c-.357 0-.647-.238-.647-.533 0-.295.29-.534.647-.534h6.724c.358 0 .647.24.647.534 0 .295-.29.533-.647.533zm.081-7.064h-.535c-1.02-.004-1.562-.388-1.838-.71-.325-.38-.484-.893-.487-1.569V.562c0-.216.158-.41.4-.493a.75.75 0 0 1 .704.116l4.63 3.823c.185.153.24.382.14.581-.1.2-.335.33-.597.33h-2.417zm-1.567-3.07v.787c.004 1.118.492 1.212 1.035 1.214h1.387L20.02 1.849z"/></g></svg>