<svg width="1287" height="600" xmlns="http://www.w3.org/2000/svg" xmlns:xlink="http://www.w3.org/1999/xlink"><defs><linearGradient x1="17.287%" y1="40.327%" x2="92.691%" y2="56.831%" id="b"><stop stop-color="#00A9E0" offset="0%"/><stop stop-color="#00D4F2" offset="100%"/></linearGradient><path id="a" d="M0 0h1287v600H0z"/><path id="d" d="M0 0h2265v1673H0z"/></defs><g fill="none" fill-rule="evenodd"><mask id="c" fill="#fff"><use xlink:href="#a"/></mask><use fill="url(#b)" xlink:href="#a"/><g style="mix-blend-mode:darken" mask="url(#c)" fill="#00A9E0"><path d="M143.512 59.75c-31.524 54.6-48.375 58.673-66.512 48.202C58.863 97.48 53.965 80.85 85.488 26.25c31.524-54.6 48.375-58.673 66.512-48.202 18.137 10.471 23.035 27.102-8.488 81.702m-46 326C65.988 440.35 49.137 444.423 31 433.952 12.863 423.48 7.965 406.85 39.488 352.25c31.524-54.6 48.375-58.673 66.512-48.202 18.137 10.471 23.035 27.102-8.488 81.702m-47-163C18.988 277.35 2.137 281.423-16 270.952c-18.137-10.471-23.035-27.102 8.488-81.702 31.524-54.6 48.375-58.673 66.512-48.202 18.137 10.471 23.035 27.102-8.488 81.702m-46 326c-31.524 54.6-48.375 58.673-66.512 48.202-18.137-10.471-23.035-27.102 8.488-81.702 31.524-54.6 48.375-58.673 66.512-48.202 18.137 10.471 23.035 27.102-8.488 81.702m272-489c-31.524 54.6-48.375 58.673-66.512 48.202-18.137-10.471-23.035-27.102 8.488-81.702 31.524-54.6 48.375-58.673 66.512-48.202 18.137 10.471 23.035 27.102-8.488 81.702m-46 326c-31.524 54.6-48.375 58.673-66.512 48.202-18.137-10.471-23.035-27.102 8.488-81.702 31.524-54.6 48.375-58.673 66.512-48.202 18.137 10.471 23.035 27.102-8.488 81.702m-47-163c-31.524 54.6-48.375 58.673-66.512 48.202-18.137-10.471-23.035-27.102 8.488-81.702 31.524-54.6 48.375-58.673 66.512-48.202 18.137 10.471 23.035 27.102-8.488 81.702m-46 326c-31.524 54.6-48.375 58.673-66.512 48.202-18.137-10.471-23.035-27.102 8.488-81.702 31.524-54.6 48.375-58.673 66.512-48.202 18.137 10.471 23.035 27.102-8.488 81.702m272-489c-31.524 54.6-48.375 58.673-66.512 48.202-18.137-10.471-23.035-27.102 8.488-81.702 31.524-54.6 48.375-58.673 66.512-48.202 18.137 10.471 23.035 27.102-8.488 81.702m-46 326c-31.524 54.6-48.375 58.673-66.512 48.202-18.137-10.471-23.035-27.102 8.488-81.702 31.524-54.6 48.375-58.673 66.512-48.202 18.137 10.471 23.035 27.102-8.488 81.702m-47-163c-31.524 54.6-48.375 58.673-66.512 48.202-18.137-10.471-23.035-27.102 8.488-81.702 31.524-54.6 48.375-58.673 66.512-48.202 18.137 10.471 23.035 27.102-8.488 81.702m-46 326c-31.524 54.6-48.375 58.673-66.512 48.202-18.137-10.471-23.035-27.102 8.488-81.702 31.524-54.6 48.375-58.673 66.512-48.202 18.137 10.471 23.035 27.102-8.488 81.702m272-489c-31.524 54.6-48.375 58.673-66.512 48.202-18.137-10.471-23.035-27.102 8.488-81.702 31.524-54.6 48.375-58.673 66.512-48.202 18.137 10.471 23.035 27.102-8.488 81.702m-46 326c-31.524 54.6-48.375 58.673-66.512 48.202-18.137-10.471-23.035-27.102 8.488-81.702 31.524-54.6 48.375-58.673 66.512-48.202 18.137 10.471 23.035 27.102-8.488 81.702m-47-163c-31.524 54.6-48.375 58.673-66.512 48.202-18.137-10.471-23.035-27.102 8.488-81.702 31.524-54.6 48.375-58.673 66.512-48.202 18.137 10.471 23.035 27.102-8.488 81.702m-46 326c-31.524 54.6-48.375 58.673-66.512 48.202-18.137-10.471-23.035-27.102 8.488-81.702 31.524-54.6 48.375-58.673 66.512-48.202 18.137 10.471 23.035 27.102-8.488 81.702m272-489c-31.524 54.6-48.375 58.673-66.512 48.202-18.137-10.471-23.035-27.102 8.488-81.702 31.524-54.6 48.375-58.673 66.512-48.202 18.137 10.471 23.035 27.102-8.488 81.702m-46 326c-31.524 54.6-48.375 58.673-66.512 48.202-18.137-10.471-23.035-27.102 8.488-81.702 31.524-54.6 48.375-58.673 66.512-48.202 18.137 10.471 23.035 27.102-8.488 81.702m-47-163c-31.524 54.6-48.375 58.673-66.512 48.202-18.137-10.471-23.035-27.102 8.488-81.702 31.524-54.6 48.375-58.673 66.512-48.202 18.137 10.471 23.035 27.102-8.488 81.702m-46 326c-31.524 54.6-48.375 58.673-66.512 48.202-18.137-10.471-23.035-27.102 8.488-81.702 31.524-54.6 48.375-58.673 66.512-48.202 18.137 10.471 23.035 27.102-8.488 81.702m272-489c-31.524 54.6-48.375 58.673-66.512 48.202-18.137-10.471-23.035-27.102 8.488-81.702 31.524-54.6 48.375-58.673 66.512-48.202 18.137 10.471 23.035 27.102-8.488 81.702m-46 326c-31.524 54.6-48.375 58.673-66.512 48.202-18.137-10.471-23.035-27.102 8.488-81.702 31.524-54.6 48.375-58.673 66.512-48.202 18.137 10.471 23.035 27.102-8.488 81.702m-47-163c-31.524 54.6-48.375 58.673-66.512 48.202-18.137-10.471-23.035-27.102 8.488-81.702 31.524-54.6 48.375-58.673 66.512-48.202 18.137 10.471 23.035 27.102-8.488 81.702m-46 326c-31.524 54.6-48.375 58.673-66.512 48.202-18.137-10.471-23.035-27.102 8.488-81.702 31.524-54.6 48.375-58.673 66.512-48.202 18.137 10.471 23.035 27.102-8.488 81.702m272-489c-31.524 54.6-48.375 58.673-66.512 48.202-18.137-10.471-23.035-27.102 8.488-81.702 31.524-54.6 48.375-58.673 66.512-48.202 18.137 10.471 23.035 27.102-8.488 81.702m-46 326c-31.524 54.6-48.375 58.673-66.512 48.202-18.137-10.471-23.035-27.102 8.488-81.702 31.524-54.6 48.375-58.673 66.512-48.202 18.137 10.471 23.035 27.102-8.488 81.702m-47-163c-31.524 54.6-48.375 58.673-66.512 48.202-18.137-10.471-23.035-27.102 8.488-81.702 31.524-54.6 48.375-58.673 66.512-48.202 18.137 10.471 23.035 27.102-8.488 81.702m-46 326c-31.524 54.6-48.375 58.673-66.512 48.202-18.137-10.471-23.035-27.102 8.488-81.702 31.524-54.6 48.375-58.673 66.512-48.202 18.137 10.471 23.035 27.102-8.488 81.702m272-489c-31.524 54.6-48.375 58.673-66.512 48.202-18.137-10.471-23.035-27.102 8.488-81.702 31.524-54.6 48.375-58.673 66.512-48.202 18.137 10.471 23.035 27.102-8.488 81.702m-46 326c-31.524 54.6-48.375 58.673-66.512 48.202-18.137-10.471-23.035-27.102 8.488-81.702 31.524-54.6 48.375-58.673 66.512-48.202 18.137 10.471 23.035 27.102-8.488 81.702m-47-163c-31.524 54.6-48.375 58.673-66.512 48.202-18.137-10.471-23.035-27.102 8.488-81.702 31.524-54.6 48.375-58.673 66.512-48.202 18.137 10.471 23.035 27.102-8.488 81.702m-46 326c-31.524 54.6-48.375 58.673-66.512 48.202-18.137-10.471-23.035-27.102 8.488-81.702 31.524-54.6 48.375-58.673 66.512-48.202 18.137 10.471 23.035 27.102-8.488 81.702m272-489c-31.524 54.6-48.375 58.673-66.512 48.202-18.137-10.471-23.035-27.102 8.488-81.702 31.524-54.6 48.375-58.673 66.512-48.202 18.137 10.471 23.035 27.102-8.488 81.702m-46 326c-31.524 54.6-48.375 58.673-66.512 48.202-18.137-10.471-23.035-27.102 8.488-81.702 31.524-54.6 48.375-58.673 66.512-48.202 18.137 10.471 23.035 27.102-8.488 81.702m-47-163c-31.524 54.6-48.375 58.673-66.512 48.202-18.137-10.471-23.035-27.102 8.488-81.702 31.524-54.6 48.375-58.673 66.512-48.202 18.137 10.471 23.035 27.102-8.488 81.702m-46 326c-31.524 54.6-48.375 58.673-66.512 48.202-18.137-10.471-23.035-27.102 8.488-81.702 31.524-54.6 48.375-58.673 66.512-48.202 18.137 10.471 23.035 27.102-8.488 81.702m272-489c-31.524 54.6-48.375 58.673-66.512 48.202-18.137-10.471-23.035-27.102 8.488-81.702 31.524-54.6 48.375-58.673 66.512-48.202 18.137 10.471 23.035 27.102-8.488 81.702m-46 326c-31.524 54.6-48.375 58.673-66.512 48.202-18.137-10.471-23.035-27.102 8.488-81.702 31.524-54.6 48.375-58.673 66.512-48.202 18.137 10.471 23.035 27.102-8.488 81.702m-47-163c-31.524 54.6-48.375 58.673-66.512 48.202-18.137-10.471-23.035-27.102 8.488-81.702 31.524-54.6 48.375-58.673 66.512-48.202 18.137 10.471 23.035 27.102-8.488 81.702m-46 326c-31.524 54.6-48.375 58.673-66.512 48.202-18.137-10.471-23.035-27.102 8.488-81.702 31.524-54.6 48.375-58.673 66.512-48.202 18.137 10.471 23.035 27.102-8.488 81.702"/></g><g mask="url(#c)"><g transform="translate(-489 -498)"><mask id="e" fill="#fff"><use xlink:href="#d"/></mask><path d="M878.94 355.912c-103.462 1.637-294.453 52.727-381.686 409.41-38.006 155.413-52.693 317.4-20.164 510.23 29.993 177.856 83.15 331.356 118.97 415.943 12.352 29.152 31.466 59.55 46.254 78.256 42.5 53.811 113.27 50.363 142.994 35.706 32.422-15.97 69.667-54.546 56.184-142.616-6.512-42.542-25.31-104.78-35.893-139.395-32.462-106.175-75.682-234.275-79.443-325.544-5.039-122.064 43.032-138.034 74.962-145.073 53.682-11.821 98.705 47.19 141.454 121.162 51.024 88.278 138.494 244.708 209.83 364.18 64.405 107.858 183.267 223.335 374.13 215.414 194.597-8.07 338.029-82.405 411.921-316.417 55.283-175.074 92.986-305.888 153.631-439.862 69.741-154.066 162.761-236.53 241.1-211.346 72.729 23.36 90.88 94.542 91.762 199.168.774 92.542-9.917 194.568-18.24 269.523-3.027 27.192-8.483 81.906-6.25 112.298 4.394 59.705 30.222 119.356 97.387 128.894 71.55 10.171 128.96-47.076 151.888-116.265 9.042-27.286 16.753-69.028 20.924-98.644 21.025-149.533 26.488-250.064 16.995-403.072-11.101-178.927-46.06-342.093-107.081-483.294-58.358-135.03-152.124-221.571-272.372-229.223-133.104-8.46-285.847 79.967-365.976 251.505-73.866 158.114-132.95 320.438-168.796 403.28-36.364 84.028-89.777 135.785-171.924 144.447-100.448 10.582-186.968-62.413-250.358-166.48-55.263-90.73-164.78-263.46-223.38-321.508-55.04-54.512-117.919-122.758-248.823-120.677" fill="#FFF" mask="url(#e)" transform="rotate(-16 1575.65 989.79)"/></g></g></g></svg>