<svg xmlns="http://www.w3.org/2000/svg" xmlns:xlink="http://www.w3.org/1999/xlink" width="320" height="442"><defs><linearGradient id="b" x1="32.853%" x2="72.377%" y1="5.494%" y2="81.427%"><stop offset="0%" stop-color="#00A9E0"/><stop offset="100%" stop-color="#00D4F2"/></linearGradient><path id="a" d="M0 0h320v442H0z"/></defs><g fill="none" fill-rule="evenodd"><mask id="c" fill="#fff"><use xlink:href="#a"/></mask><use fill="url(#b)" xlink:href="#a"/><g fill="#00A9E0" mask="url(#c)" style="mix-blend-mode:darken"><path d="M50.318 107.246c-19.566 33.864-30.026 36.39-41.283 29.896-11.258-6.495-14.298-16.81 5.268-50.673C33.87 52.605 44.33 50.079 55.586 56.573c11.258 6.495 14.298 16.81-5.268 50.673m-28.552 202.19C2.2 343.3-8.26 345.826-19.517 339.332c-11.257-6.495-14.298-16.81 5.268-50.673 19.567-33.864 30.026-36.39 41.284-29.896 11.257 6.495 14.297 16.81-5.269 50.673M-7.406 208.341c-19.567 33.864-30.026 36.39-41.283 29.896-11.258-6.495-14.298-16.81 5.268-50.673 19.566-33.864 30.026-36.39 41.283-29.896 11.258 6.495 14.298 16.81-5.268 50.673M132.87 107.246c-19.567 33.864-30.026 36.39-41.284 29.896-11.257-6.495-14.298-16.81 5.269-50.673 19.566-33.864 30.026-36.39 41.283-29.896 11.257 6.495 14.298 16.81-5.269 50.673m-28.551 202.19c-19.567 33.864-30.026 36.39-41.283 29.896-11.258-6.495-14.298-16.81 5.268-50.673 19.566-33.864 30.026-36.39 41.283-29.896 11.258 6.495 14.298 16.81-5.268 50.673M75.145 208.341c-19.566 33.864-30.025 36.39-41.283 29.896-11.257-6.495-14.298-16.81 5.269-50.673 19.566-33.864 30.026-36.39 41.283-29.896 11.257 6.495 14.298 16.81-5.269 50.673m-28.551 202.19c-19.567 33.864-30.026 36.39-41.283 29.896-11.258-6.495-14.298-16.81 5.268-50.673 19.566-33.864 30.026-36.39 41.283-29.896 11.258 6.495 14.298 16.81-5.268 50.673m168.827-303.285c-19.566 33.864-30.026 36.39-41.283 29.896-11.258-6.495-14.298-16.81 5.268-50.673 19.567-33.864 30.026-36.39 41.283-29.896 11.258 6.495 14.298 16.81-5.268 50.673m-28.551 202.19c-19.567 33.864-30.026 36.39-41.284 29.896-11.257-6.495-14.298-16.81 5.269-50.673 19.566-33.864 30.026-36.39 41.283-29.896 11.257 6.495 14.298 16.81-5.269 50.673m-29.172-101.095c-19.566 33.864-30.026 36.39-41.283 29.896-11.258-6.495-14.298-16.81 5.268-50.673 19.567-33.864 30.026-36.39 41.283-29.896 11.258 6.495 14.298 16.81-5.268 50.673m-28.552 202.19c-19.566 33.864-30.025 36.39-41.283 29.896-11.257-6.495-14.298-16.81 5.269-50.673 19.566-33.864 30.026-36.39 41.283-29.896 11.257 6.495 14.298 16.81-5.269 50.673m168.828-303.285c-19.567 33.864-30.026 36.39-41.284 29.896-11.257-6.495-14.297-16.81 5.269-50.673 19.566-33.864 30.026-36.39 41.283-29.896 11.257 6.495 14.298 16.81-5.268 50.673m-28.553 202.19c-19.565 33.864-30.025 36.39-41.282 29.896-11.258-6.495-14.298-16.81 5.268-50.673 19.567-33.864 30.026-36.39 41.283-29.896 11.258 6.495 14.298 16.81-5.268 50.673m-29.172-101.095c-19.567 33.864-30.026 36.39-41.284 29.896-11.257-6.495-14.297-16.81 5.269-50.673 19.566-33.864 30.026-36.39 41.283-29.896 11.257 6.495 14.298 16.81-5.268 50.673m-28.552 202.19c-19.566 33.864-30.026 36.39-41.283 29.896-11.258-6.495-14.298-16.81 5.268-50.673 19.566-33.864 30.026-36.39 41.283-29.896 11.258 6.495 14.298 16.81-5.268 50.673m140.275-101.095c-19.566 33.864-30.025 36.39-41.283 29.896-11.257-6.495-14.298-16.81 5.269-50.673 19.566-33.864 30.026-36.39 41.283-29.896 11.257 6.495 14.298 16.81-5.269 50.673M322.8 208.341c-19.566 33.864-30.026 36.39-41.283 29.896-11.257-6.495-14.298-16.81 5.268-50.673 19.567-33.864 30.026-36.39 41.284-29.896 11.257 6.495 14.297 16.81-5.269 50.673m-28.552 202.19c-19.566 33.864-30.025 36.39-41.283 29.896-11.257-6.495-14.298-16.81 5.269-50.673 19.566-33.864 30.026-36.39 41.283-29.896 11.257 6.495 14.298 16.81-5.269 50.673m82.552 0c-19.566 33.864-30.026 36.39-41.283 29.896-11.258-6.495-14.298-16.81 5.268-50.673 19.567-33.864 30.026-36.39 41.283-29.896 11.258 6.495 14.298 16.81-5.268 50.673"/></g><path fill="#FFF" d="M31.517 98.449c-48.803.762-138.89 24.854-180.005 193.17-17.912 73.34-24.825 149.783-9.462 240.786 14.165 83.936 39.255 156.381 56.159 196.303 5.83 13.758 14.848 28.106 21.826 36.934 20.053 25.399 53.435 23.778 67.455 16.864 15.292-7.533 32.857-25.734 26.489-67.297-3.076-20.077-11.95-49.45-16.945-65.787-15.322-50.109-35.722-110.566-37.505-153.637-2.389-57.605 20.285-65.137 35.346-68.456 25.321-5.574 46.565 22.28 66.737 57.192 24.077 41.665 65.352 115.496 99.013 171.883 30.391 50.907 86.47 105.414 176.501 101.694 91.793-3.79 159.443-38.856 194.276-149.283 26.061-82.616 43.833-144.346 72.427-207.564 32.883-72.7 76.753-111.608 113.709-99.715 34.309 11.03 42.878 44.625 43.304 94 .374 43.672-4.66 91.819-8.578 127.19-1.426 12.833-3.994 38.653-2.938 52.995 2.079 28.177 14.268 56.33 45.95 60.837 33.753 4.807 60.828-22.203 71.637-54.853 4.262-12.876 7.895-32.573 9.86-46.55 9.903-70.565 12.47-118.007 7.978-190.215-5.254-84.44-21.76-161.444-50.558-228.086-27.54-63.729-71.78-104.578-128.502-108.2-62.787-4.005-134.828 37.71-172.61 118.654-34.827 74.61-62.682 151.208-79.583 190.3-17.145 39.65-42.335 64.07-81.084 68.15-47.381 4.984-88.2-29.471-118.112-78.589-26.077-42.822-77.753-124.347-105.4-151.747-25.97-25.73-55.636-57.943-117.385-56.973" mask="url(#c)" transform="rotate(-12 360.227 397.648)"/></g></svg>